{
.appVersion = "1141";
copyright = "Copyright (c) 2018, Cadson Demak (info@cadsondemak.com)";
customParameters = (
{
name = vendorID;
value = CDK;
},
{
name = description;
value = "Copyright (c) 2018, Cadson Demak (info@cadsondemak.com)";
},
{
name = license;

glyphs = (
{
glyphname = A;
lastChange = "2018-07-24 14:42:09 +0000";
layers = (
{
anchors = (
{
name = bottom;
position = "{349, 0}";
},
{
name = ogonek;
position = "{566, 10}";
},
{
name = top;
position = "{349, 700}";
}
);
layerId = "671CEF0C-3804-4AAB-8F09-7652EF8CF253";
paths = (
{
closed = 1;
nodes = (
"221 174 LINE",
"476 174 LINE",
"560 -9 LINE",
"650 -1 OFFCURVE",
"686 70 OFFCURVE",
"647 157 CURVE SMOOTH",
"421 660 LINE SMOOTH",
"406 694 OFFCURVE",
"383 709 OFFCURVE",
"349 709 CURVE SMOOTH",
"315 709 OFFCURVE",
"292 694 OFFCURVE",
"277 660 CURVE SMOOTH",
"51 157 LINE SMOOTH",
"11 69 OFFCURVE",
"48 -1 OFFCURVE",
"137 -9 CURVE"
);
},
{
closed = 1;
nodes = (
"341 483 LINE",
"314 550 LINE",
"328 556 LINE",
"431 300 LINE",
"265 300 LINE"
);
}
);
width = 698;
},
{
anchors = (
{
name = bottom;
position = "{339, 0}";
},
{
name = ogonek;
position = "{605, 10}";
},
{
name = top;
position = "{339, 700}";
}
);
layerId = "467B800A-9F0B-4EDA-B6B6-3D16CD953827";
paths = (
{
closed = 1;
nodes = (
"195 200 LINE",
"482 200 LINE",
"568 -9 LINE",
"622 2 OFFCURVE",
"646 50 OFFCURVE",
"623 104 CURVE SMOOTH",
"384 679 LINE SMOOTH",
"376 698 OFFCURVE",
"360 709 OFFCURVE",
"339 709 CURVE SMOOTH",
"317 709 OFFCURVE",
"301 699 OFFCURVE",
"293 679 CURVE SMOOTH",
"54 104 LINE SMOOTH",
"31 50 OFFCURVE",
"54 2 OFFCURVE",
"109 -9 CURVE"
);
},
{
closed = 1;
nodes = (
"334 559 LINE",
"316 605 LINE",
"324 608 LINE",
"453 281 LINE",
"224 281 LINE"
);
}
);
width = 677;
},
{
anchors = (
{
name = bottom;
position = "{332, 0}";
},
{
name = ogonek;
position = "{599, 10}";
},
{
name = top;
position = "{332, 700}";
}
);
layerId = "D810D4E0-5EEA-4CB0-897C-7C2F2D158137";
paths = (
{
closed = 1;
nodes = (
"176 222 LINE",
"490 222 LINE",
"576 -9 LINE",
"602 4 OFFCURVE",
"615 36 OFFCURVE",
"605 60 CURVE SMOOTH",
"356 694 LINE SMOOTH",
"353 703 OFFCURVE",
"342 709 OFFCURVE",
"332 709 CURVE SMOOTH",
"321 709 OFFCURVE",
"312 704 OFFCURVE",
"308 694 CURVE SMOOTH",
"58 59 LINE SMOOTH",
"49 35 OFFCURVE",
"62 5 OFFCURVE",
"87 -9 CURVE"
);
},
{
closed = 1;
nodes = (
"329 621 LINE",
"319 649 LINE",
"322 651 LINE",
"471 269 LINE",
"193 269 LINE"
);
}
);
width = 664;
},
{
anchors = (
{
name = bottom;
position = "{305, 0}";
},
{
name = ogonek;
position = "{524, 10}";
},
{
name = top;
position = "{429, 700}";
}
);
layerId = "FBA9A202-A695-4A56-B536-8E03A4D5E61C";
paths = (
{
closed = 1;
nodes = (
"210 174 LINE",
"469 174 LINE",
"519 -9 LINE",
"608 -1 OFFCURVE",
"654 68 OFFCURVE",
"630 157 CURVE SMOOTH",
"493 660 LINE SMOOTH",
"484 693 OFFCURVE",
"463 709 OFFCURVE",
"429 709 CURVE SMOOTH",
"395 709 OFFCURVE",
"371 694 OFFCURVE",
"349 660 CURVE SMOOTH",
"32 157 LINE SMOOTH",
"-23 70 OFFCURVE",
"5 0 OFFCURVE",
"94 -9 CURVE"
);
},
{
closed = 1;
nodes = (
"386 483 LINE",
"371 550 LINE",
"386 556 LINE",
"444 300 LINE",
"276 300 LINE"
);
}
);
width = 698;
},
{
anchors = (
{
name = bottom;
position = "{295, 0}";
},
{
name = ogonek;
position = "{540, 10}";
},
{
name = top;
position = "{418, 700}";
}
);
layerId = "92CE152A-AC33-4332-A899-C7DC9B2DD026";
paths = (
{
closed = 1;
nodes = (
"189 200 LINE",
"478 200 LINE",
"522 -9 LINE",
"578 2 OFFCURVE",
"610 50 OFFCURVE",
"597 104 CURVE SMOOTH",
"457 679 LINE SMOOTH",
"452 698 OFFCURVE",
"438 709 OFFCURVE",
"418 709 CURVE SMOOTH",
"396 709 OFFCURVE",
"379 699 OFFCURVE",
"367 679 CURVE SMOOTH",
"26 104 LINE SMOOTH",
"-5 52 OFFCURVE",
"12 2 OFFCURVE",
"66 -9 CURVE"
);
},
{
closed = 1;
nodes = (
"391 559 LINE",
"381 605 LINE",
"390 608 LINE",
"464 281 LINE",
"233 281 LINE"
);
}
);
width = 677;
},
{
anchors = (
{
name = bottom;
position = "{289, 0}";
},
{
name = ogonek;
position = "{557, 10}";
},
{
name = top;
position = "{412, 700}";
}
);
layerId = "8FB96992-DBAA-412F-B62D-2E73CBD2FD04";
paths = (
{
closed = 1;
nodes = (
"174 222 LINE",
"489 222 LINE",
"534 -9 LINE",
"561 3 OFFCURVE",
"577 35 OFFCURVE",
"572 60 CURVE SMOOTH",
"434 694 LINE SMOOTH",
"432 702 OFFCURVE",
"423 709 OFFCURVE",
"413 709 CURVE SMOOTH",
"402 709 OFFCURVE",
"392 704 OFFCURVE",
"386 694 CURVE SMOOTH",
"23 59 LINE SMOOTH",
"10 36 OFFCURVE",
"19 7 OFFCURVE",
"44 -9 CURVE"
);
},
{
closed = 1;
nodes = (
"398 621 LINE",
"393 649 LINE",
"396 651 LINE",
"478 269 LINE",
"199 269 LINE"
);
}
);
width = 665;
}
);
leftKerningGroup = A;
note = A;
rightKerningGroup = A;
unicode = 0041;
},
{
glyphname = AE;
lastChange = "2018-07-08 08:32:23 +0000";
layers = (
{
anchors = (
{
name = bottom;
position = "{501, 0}";
},
{
name = top;
position = "{498, 700}";
}
);
layerId = "671CEF0C-3804-4AAB-8F09-7652EF8CF253";
paths = (
{
closed = 1;
nodes = (
"14 75 OFFCURVE",
"42 0 OFFCURVE",
"137 -9 CURVE",
"221 174 LINE",
"373 174 LINE",
"373 67 LINE SMOOTH",
"373 28 OFFCURVE",
"407 0 OFFCURVE",
"447 0 CURVE SMOOTH",
"874 0 LINE",
"874 78 OFFCURVE",
"853 126 OFFCURVE",
"782 126 CURVE SMOOTH",
"520 126 LINE",
"520 290 LINE",
"649 290 LINE SMOOTH",
"721 290 OFFCURVE",
"742 337 OFFCURVE",
"742 416 CURVE",
"520 416 LINE",
"520 574 LINE",
"761 574 LINE SMOOTH",
"833 574 OFFCURVE",
"854 621 OFFCURVE",
"854 700 CURVE",
"365 700 LINE SMOOTH",
"327 700 OFFCURVE",
"291 683 OFFCURVE",
"277 650 CURVE SMOOTH",
"51 157 LINE SMOOTH"
);
},
{
closed = 1;
nodes = (
"373 537 LINE",
"373 300 LINE",
"265 300 LINE"
);
}
);
width = 909;
},
{
anchors = (
{
name = bottom;
position = "{499, 0}";
},
{
name = top;
position = "{496, 700}";
}
);
layerId = "467B800A-9F0B-4EDA-B6B6-3D16CD953827";
paths = (
{
closed = 1;
nodes = (
"31 52 OFFCURVE",
"52 2 OFFCURVE",
"109 -9 CURVE",
"205 200 LINE",
"386 200 LINE",
"386 44 LINE SMOOTH",
"386 19 OFFCURVE",
"407 0 OFFCURVE",
"434 0 CURVE SMOOTH",
"854 0 LINE",
"854 52 OFFCURVE",
"835 82 OFFCURVE",
"785 82 CURVE SMOOTH",
"480 82 LINE",
"480 312 LINE",
"648 312 LINE SMOOTH",
"698 312 OFFCURVE",
"717 341 OFFCURVE",
"717 394 CURVE",
"480 394 LINE",
"480 618 LINE",
"764 618 LINE SMOOTH",
"815 618 OFFCURVE",
"834 647 OFFCURVE",
"834 700 CURVE",
"374 700 LINE SMOOTH",
"351 700 OFFCURVE",
"332 690 OFFCURVE",
"322 669 CURVE SMOOTH",
"55 104 LINE SMOOTH"
);
},
{
closed = 1;
nodes = (
"386 607 LINE",
"386 283 LINE",
"234 283 LINE"
);
}
);
width = 899;
},
{
anchors = (
{
name = bottom;
position = "{500, 0}";
},
{
name = top;
position = "{497, 700}";
}
);
layerId = "D810D4E0-5EEA-4CB0-897C-7C2F2D158137";
paths = (
{
closed = 1;
nodes = (
"48 32 OFFCURVE",
"64 3 OFFCURVE",
"88 -9 CURVE",
"194 222 LINE",
"399 222 LINE",
"399 26 LINE SMOOTH",
"399 12 OFFCURVE",
"409 0 OFFCURVE",
"425 0 CURVE SMOOTH",
"840 0 LINE",
"840 31 OFFCURVE",
"822 46 OFFCURVE",
"791 46 CURVE SMOOTH",
"450 46 LINE",
"450 329 LINE",
"649 329 LINE SMOOTH",
"682 329 OFFCURVE",
"700 345 OFFCURVE",
"700 376 CURVE",
"450 376 LINE",
"450 654 LINE",
"770 654 LINE SMOOTH",
"802 654 OFFCURVE",
"820 669 OFFCURVE",
"820 700 CURVE",
"385 700 LINE SMOOTH",
"373 700 OFFCURVE",
"368 695 OFFCURVE",
"363 685 CURVE SMOOTH",
"61 60 LINE SMOOTH"
);
},
{
closed = 1;
nodes = (
"399 664 LINE",
"399 269 LINE",
"212 269 LINE"
);
}
);
width = 895;
},
{
anchors = (
{
name = bottom;
position = "{457, 0}";
},
{
name = top;
position = "{578, 700}";
}
);
layerId = "FBA9A202-A695-4A56-B536-8E03A4D5E61C";
paths = (
{
closed = 1;
nodes = (
"-17 75 OFFCURVE",
"-2 0 OFFCURVE",
"92 -9 CURVE",
"208 174 LINE",
"360 174 LINE",
"341 67 LINE SMOOTH",
"334 28 OFFCURVE",
"364 0 OFFCURVE",
"403 0 CURVE SMOOTH",
"830 0 LINE",
"844 79 OFFCURVE",
"831 126 OFFCURVE",
"761 126 CURVE SMOOTH",
"499 126 LINE",
"527 290 LINE",
"656 290 LINE SMOOTH",
"728 290 OFFCURVE",
"758 337 OFFCURVE",
"772 416 CURVE",
"550 416 LINE",
"578 574 LINE",
"819 574 LINE SMOOTH",
"891 574 OFFCURVE",
"920 621 OFFCURVE",
"934 700 CURVE",
"445 700 LINE SMOOTH",
"404 700 OFFCURVE",
"367 680 OFFCURVE",
"348 650 CURVE SMOOTH",
"35 157 LINE SMOOTH"
);
},
{
closed = 1;
nodes = (
"424 537 LINE",
"382 300 LINE",
"274 300 LINE"
);
}
);
width = 910;
},
{
anchors = (
{
name = bottom;
position = "{455, 0}";
},
{
name = top;
position = "{575, 700}";
}
);
layerId = "92CE152A-AC33-4332-A899-C7DC9B2DD026";
paths = (
{
closed = 1;
nodes = (
"-5 51 OFFCURVE",
"9 2 OFFCURVE",
"63 -9 CURVE",
"196 200 LINE",
"377 200 LINE",
"349 44 LINE SMOOTH",
"345 22 OFFCURVE",
"360 0 OFFCURVE",
"390 0 CURVE SMOOTH",
"810 0 LINE",
"819 52 OFFCURVE",
"804 82 OFFCURVE",
"755 82 CURVE SMOOTH",
"450 82 LINE",
"491 312 LINE",
"659 312 LINE SMOOTH",
"708 312 OFFCURVE",
"733 341 OFFCURVE",
"742 394 CURVE",
"505 394 LINE",
"545 618 LINE",
"829 618 LINE SMOOTH",
"879 618 OFFCURVE",
"904 647 OFFCURVE",
"913 700 CURVE",
"453 700 LINE SMOOTH",
"433 700 OFFCURVE",
"411 692 OFFCURVE",
"396 669 CURVE SMOOTH",
"29 104 LINE SMOOTH"
);
},
{
closed = 1;
nodes = (
"449 607 LINE",
"392 283 LINE",
"240 283 LINE"
);
}
);
width = 900;
},
{
anchors = (
{
name = bottom;
position = "{455, 0}";
},
{
name = top;
position = "{576, 700}";
}
);
layerId = "8FB96992-DBAA-412F-B62D-2E73CBD2FD04";
paths = (
{
closed = 1;
nodes = (
"7 32 OFFCURVE",
"21 4 OFFCURVE",
"43 -9 CURVE",
"190 222 LINE",
"395 222 LINE",
"360 26 LINE SMOOTH",
"358 13 OFFCURVE",
"364 0 OFFCURVE",
"381 0 CURVE SMOOTH",
"795 0 LINE",
"801 31 OFFCURVE",
"786 46 OFFCURVE",
"755 46 CURVE SMOOTH",
"412 46 LINE",
"461 329 LINE",
"662 329 LINE SMOOTH",
"695 329 OFFCURVE",
"716 345 OFFCURVE",
"722 376 CURVE",
"470 376 LINE",
"519 654 LINE",
"841 654 LINE SMOOTH",
"873 654 OFFCURVE",
"893 669 OFFCURVE",
"899 700 CURVE",
"462 700 LINE SMOOTH",
"450 700 OFFCURVE",
"444 695 OFFCURVE",
"437 685 CURVE SMOOTH",
"25 60 LINE SMOOTH"
);
},
{
closed = 1;
nodes = (
"473 664 LINE",
"403 269 LINE",
"216 269 LINE"
);
}
);
width = 895;
}
);
leftKerningGroup = A;
note = AE;
rightKerningGroup = E;
rightMetricsKey = E;
unicode = 00C6;
},
{
glyphname = B;
lastChange = "2018-07-08 10:08:13 +0000";
layers = (
{
anchors = (
{
name = bottom;
position = "{346, 0}";
},
{
name = top;
position = "{346, 700}";
}
);
background = {
paths = (
{
closed = 1;
nodes = (
"564 395 OFFCURVE",
"593 460 OFFCURVE",
"593 513 CURVE SMOOTH",
"593 610 OFFCURVE",
"515 700 OFFCURVE",
"416 700 CURVE SMOOTH",
"129 700 LINE SMOOTH",
"113 700 OFFCURVE",
"99 688 OFFCURVE",
"99 671 CURVE SMOOTH",
"99 29 LINE SMOOTH",
"99 13 OFFCURVE",
"113 0 OFFCURVE",
"129 0 CURVE SMOOTH",
"475 0 LINE SMOOTH",
"587 0 OFFCURVE",
"652 88 OFFCURVE",
"652 190 CURVE SMOOTH",
"652 274 OFFCURVE",
"601 349 OFFCURVE",
"512 368 CURVE"
);
},
{
closed = 1;
nodes = (
"158 647 LINE",
"206 647 OFFCURVE",
"416 647 OFFCURVE",
"416 647 CURVE",
"483 647 OFFCURVE",
"534 576 OFFCURVE",
"534 513 CURVE SMOOTH",
"534 450 OFFCURVE",
"483 377 OFFCURVE",
"416 377 CURVE SMOOTH",
"416 377 OFFCURVE",
"206 377 OFFCURVE",
"158 377 CURVE"
);
},
{
closed = 1;
nodes = (
"158 53 LINE",
"158 324 LINE",
"475 324 LINE SMOOTH",
"542 324 OFFCURVE",
"593 273 OFFCURVE",
"593 190 CURVE SMOOTH",
"593 105 OFFCURVE",
"542 53 OFFCURVE",
"475 53 CURVE SMOOTH"
);
}
);
};
layerId = "671CEF0C-3804-4AAB-8F09-7652EF8CF253";
paths = (
{
closed = 1;
nodes = (
"413 0 LINE SMOOTH",
"548 0 OFFCURVE",
"642 85 OFFCURVE",
"642 209 CURVE SMOOTH",
"642 276 OFFCURVE",
"599 335 OFFCURVE",
"531 359 CURVE",
"531 363 LINE",
"580 392 OFFCURVE",
"613 446 OFFCURVE",
"613 501 CURVE SMOOTH",
"613 622 OFFCURVE",
"527 700 OFFCURVE",
"394 700 CURVE SMOOTH",
"129 700 LINE SMOOTH",
"88 700 OFFCURVE",
"55 670 OFFCURVE",
"55 633 CURVE SMOOTH",
"55 67 LINE SMOOTH",
"55 30 OFFCURVE",
"89 0 OFFCURVE",
"129 0 CURVE SMOOTH"
);
},
{
closed = 1;
nodes = (
"198 289 LINE",
"412 289 LINE SMOOTH",
"464 289 OFFCURVE",
"495 259 OFFCURVE",
"495 207 CURVE SMOOTH",
"495 156 OFFCURVE",
"463 124 OFFCURVE",
"412 124 CURVE SMOOTH",
"198 124 LINE"
);
},
{
closed = 1;
nodes = (
"198 576 LINE",
"392 576 LINE SMOOTH",
"438 576 OFFCURVE",
"466 545 OFFCURVE",
"466 495 CURVE SMOOTH",
"466 448 OFFCURVE",
"433 411 OFFCURVE",
"392 411 CURVE SMOOTH",
"198 411 LINE"
);
}
);
width = 677;
},
{
anchors = (
{
name = bottom;
position = "{335, 0}";
},
{
name = top;
position = "{335, 700}";
}
);
layerId = "467B800A-9F0B-4EDA-B6B6-3D16CD953827";
paths = (
{
closed = 1;
nodes = (
"421 0 LINE SMOOTH",
"536 0 OFFCURVE",
"615 81 OFFCURVE",
"615 198 CURVE SMOOTH",
"615 276 OFFCURVE",
"572 334 OFFCURVE",
"496 357 CURVE",
"496 359 LINE",
"549 385 OFFCURVE",
"586 445 OFFCURVE",
"586 508 CURVE SMOOTH",
"586 625 OFFCURVE",
"512 700 OFFCURVE",
"396 700 CURVE SMOOTH",
"118 700 LINE SMOOTH",
"91 700 OFFCURVE",
"70 681 OFFCURVE",
"70 656 CURVE SMOOTH",
"70 44 LINE SMOOTH",
"70 20 OFFCURVE",
"91 0 OFFCURVE",
"118 0 CURVE SMOOTH"
);
},
{
closed = 1;
nodes = (
"163 310 LINE",
"414 310 LINE SMOOTH",
"483 310 OFFCURVE",
"523 268 OFFCURVE",
"523 197 CURVE SMOOTH",
"523 124 OFFCURVE",
"482 81 OFFCURVE",
"414 81 CURVE SMOOTH",
"163 81 LINE"
);
},
{
closed = 1;
nodes = (
"163 619 LINE",
"394 619 LINE SMOOTH",
"457 619 OFFCURVE",
"494 577 OFFCURVE",
"494 506 CURVE SMOOTH",
"494 442 OFFCURVE",
"449 391 OFFCURVE",
"394 391 CURVE SMOOTH",
"163 391 LINE"
);
}
);
width = 660;
},
{
anchors = (
{
name = bottom;
position = "{323, 0}";
},
{
name = top;
position = "{323, 700}";
}
);
background = {
paths = (
{
closed = 1;
nodes = (
"545 395 OFFCURVE",
"574 460 OFFCURVE",
"574 513 CURVE SMOOTH",
"574 610 OFFCURVE",
"496 700 OFFCURVE",
"397 700 CURVE SMOOTH",
"110 700 LINE SMOOTH",
"94 700 OFFCURVE",
"80 688 OFFCURVE",
"80 671 CURVE SMOOTH",
"80 29 LINE SMOOTH",
"80 13 OFFCURVE",
"94 0 OFFCURVE",
"110 0 CURVE SMOOTH",
"456 0 LINE SMOOTH",
"568 0 OFFCURVE",
"633 88 OFFCURVE",
"633 190 CURVE SMOOTH",
"633 274 OFFCURVE",
"582 349 OFFCURVE",
"493 368 CURVE"
);
},
{
closed = 1;
nodes = (
"139 647 LINE",
"187 647 OFFCURVE",
"397 647 OFFCURVE",
"397 647 CURVE",
"464 647 OFFCURVE",
"515 576 OFFCURVE",
"515 513 CURVE SMOOTH",
"515 450 OFFCURVE",
"464 377 OFFCURVE",
"397 377 CURVE SMOOTH",
"397 377 OFFCURVE",
"187 377 OFFCURVE",
"139 377 CURVE"
);
},
{
closed = 1;
nodes = (
"139 53 LINE",
"139 324 LINE",
"456 324 LINE SMOOTH",
"523 324 OFFCURVE",
"574 273 OFFCURVE",
"574 190 CURVE SMOOTH",
"574 105 OFFCURVE",
"523 53 OFFCURVE",
"456 53 CURVE SMOOTH"
);
}
);
};
layerId = "D810D4E0-5EEA-4CB0-897C-7C2F2D158137";
paths = (
{
closed = 1;
nodes = (
"425 0 LINE SMOOTH",
"523 0 OFFCURVE",
"590 76 OFFCURVE",
"590 188 CURVE SMOOTH",
"590 275 OFFCURVE",
"546 333 OFFCURVE",
"465 355 CURVE",
"465 357 LINE",
"520 378 OFFCURVE",
"561 445 OFFCURVE",
"561 514 CURVE SMOOTH",
"561 627 OFFCURVE",
"496 700 OFFCURVE",
"395 700 CURVE SMOOTH",
"106 700 LINE SMOOTH",
"92 700 OFFCURVE",
"80 689 OFFCURVE",
"80 675 CURVE SMOOTH",
"80 26 LINE SMOOTH",
"80 12 OFFCURVE",
"92 0 OFFCURVE",
"106 0 CURVE SMOOTH"
);
},
{
closed = 1;
nodes = (
"131 327 LINE",
"413 327 LINE SMOOTH",
"496 327 OFFCURVE",
"544 276 OFFCURVE",
"544 188 CURVE SMOOTH",
"544 98 OFFCURVE",
"496 46 OFFCURVE",
"413 46 CURVE SMOOTH",
"131 46 LINE"
);
},
{
closed = 1;
nodes = (
"131 654 LINE",
"393 654 LINE SMOOTH",
"470 654 OFFCURVE",
"515 603 OFFCURVE",
"515 515 CURVE SMOOTH",
"515 437 OFFCURVE",
"461 374 OFFCURVE",
"393 374 CURVE SMOOTH",
"131 374 LINE"
);
}
);
width = 645;
},
{
anchors = (
{
name = bottom;
position = "{302, 0}";
},
{
name = top;
position = "{426, 700}";
}
);
background = {
paths = (
{
closed = 1;
nodes = (
"564 395 OFFCURVE",
"593 460 OFFCURVE",
"593 513 CURVE SMOOTH",
"593 610 OFFCURVE",
"515 700 OFFCURVE",
"416 700 CURVE SMOOTH",
"129 700 LINE SMOOTH",
"113 700 OFFCURVE",
"99 688 OFFCURVE",
"99 671 CURVE SMOOTH",
"99 29 LINE SMOOTH",
"99 13 OFFCURVE",
"113 0 OFFCURVE",
"129 0 CURVE SMOOTH",
"475 0 LINE SMOOTH",
"587 0 OFFCURVE",
"652 88 OFFCURVE",
"652 190 CURVE SMOOTH",
"652 274 OFFCURVE",
"601 349 OFFCURVE",
"512 368 CURVE"
);
},
{
closed = 1;
nodes = (
"158 647 LINE",
"206 647 OFFCURVE",
"416 647 OFFCURVE",
"416 647 CURVE",
"483 647 OFFCURVE",
"534 576 OFFCURVE",
"534 513 CURVE SMOOTH",
"534 450 OFFCURVE",
"483 377 OFFCURVE",
"416 377 CURVE SMOOTH",
"416 377 OFFCURVE",
"206 377 OFFCURVE",
"158 377 CURVE"
);
},
{
closed = 1;
nodes = (
"158 53 LINE",
"158 324 LINE",
"475 324 LINE SMOOTH",
"542 324 OFFCURVE",
"593 273 OFFCURVE",
"593 190 CURVE SMOOTH",
"593 105 OFFCURVE",
"542 53 OFFCURVE",
"475 53 CURVE SMOOTH"
);
}
);
};
layerId = "FBA9A202-A695-4A56-B536-8E03A4D5E61C";
paths = (
{
closed = 1;
nodes = (
"368 0 LINE SMOOTH",
"513 0 OFFCURVE",
"636 108 OFFCURVE",
"636 235 CURVE SMOOTH",
"636 292 OFFCURVE",
"604 336 OFFCURVE",
"549 357 CURVE",
"550 361 LINE",
"617 396 OFFCURVE",
"660 468 OFFCURVE",
"660 541 CURVE SMOOTH",
"660 640 OFFCURVE",
"590 700 OFFCURVE",
"473 700 CURVE SMOOTH",
"208 700 LINE SMOOTH",
"167 700 OFFCURVE",
"129 670 OFFCURVE",
"122 633 CURVE SMOOTH",
"22 67 LINE SMOOTH",
"16 31 OFFCURVE",
"44 0 OFFCURVE",
"84 0 CURVE SMOOTH"
);
},
{
closed = 1;
nodes = (
"204 289 LINE",
"418 289 LINE SMOOTH",
"463 289 OFFCURVE",
"488 267 OFFCURVE",
"488 227 CURVE SMOOTH",
"488 167 OFFCURVE",
"446 124 OFFCURVE",
"389 124 CURVE SMOOTH",
"175 124 LINE"
);
},
{
closed = 1;
nodes = (
"255 576 LINE",
"449 576 LINE SMOOTH",
"488 576 OFFCURVE",
"510 554 OFFCURVE",
"510 515 CURVE SMOOTH",
"510 460 OFFCURVE",
"467 411 OFFCURVE",
"420 411 CURVE SMOOTH",
"226 411 LINE"
);
}
);
width = 677;
},
{
anchors = (
{
name = bottom;
position = "{291, 0}";
},
{
name = top;
position = "{415, 700}";
}
);
layerId = "92CE152A-AC33-4332-A899-C7DC9B2DD026";
paths = (
{
closed = 1;
nodes = (
"376 0 LINE SMOOTH",
"503 0 OFFCURVE",
"608 105 OFFCURVE",
"608 232 CURVE SMOOTH",
"608 293 OFFCURVE",
"575 335 OFFCURVE",
"514 355 CURVE",
"515 357 LINE",
"586 389 OFFCURVE",
"635 469 OFFCURVE",
"635 551 CURVE SMOOTH",
"635 644 OFFCURVE",
"575 700 OFFCURVE",
"475 700 CURVE SMOOTH",
"197 700 LINE SMOOTH",
"170 700 OFFCURVE",
"145 681 OFFCURVE",
"141 656 CURVE SMOOTH",
"33 44 LINE SMOOTH",
"29 20 OFFCURVE",
"47 0 OFFCURVE",
"73 0 CURVE SMOOTH"
);
},
{
closed = 1;
nodes = (
"173 310 LINE",
"424 310 LINE SMOOTH",
"483 310 OFFCURVE",
"516 279 OFFCURVE",
"516 225 CURVE SMOOTH",
"516 142 OFFCURVE",
"461 81 OFFCURVE",
"384 81 CURVE SMOOTH",
"133 81 LINE"
);
},
{
closed = 1;
nodes = (
"227 619 LINE",
"458 619 LINE SMOOTH",
"511 619 OFFCURVE",
"541 589 OFFCURVE",
"541 536 CURVE SMOOTH",
"541 459 OFFCURVE",
"483 391 OFFCURVE",
"418 391 CURVE SMOOTH",
"187 391 LINE"
);
}
);
width = 660;
},
{
anchors = (
{
name = bottom;
position = "{279, 0}";
},
{
name = top;
position = "{403, 700}";
}
);
background = {
paths = (
{
closed = 1;
nodes = (
"545 395 OFFCURVE",
"574 460 OFFCURVE",
"574 513 CURVE SMOOTH",
"574 610 OFFCURVE",
"496 700 OFFCURVE",
"397 700 CURVE SMOOTH",
"110 700 LINE SMOOTH",
"94 700 OFFCURVE",
"80 688 OFFCURVE",
"80 671 CURVE SMOOTH",
"80 29 LINE SMOOTH",
"80 13 OFFCURVE",
"94 0 OFFCURVE",
"110 0 CURVE SMOOTH",
"456 0 LINE SMOOTH",
"568 0 OFFCURVE",
"633 88 OFFCURVE",
"633 190 CURVE SMOOTH",
"633 274 OFFCURVE",
"582 349 OFFCURVE",
"493 368 CURVE"
);
},
{
closed = 1;
nodes = (
"139 647 LINE",
"187 647 OFFCURVE",
"397 647 OFFCURVE",
"397 647 CURVE",
"464 647 OFFCURVE",
"515 576 OFFCURVE",
"515 513 CURVE SMOOTH",
"515 450 OFFCURVE",
"464 377 OFFCURVE",
"397 377 CURVE SMOOTH",
"397 377 OFFCURVE",
"187 377 OFFCURVE",
"139 377 CURVE"
);
},
{
closed = 1;
nodes = (
"139 53 LINE",
"139 324 LINE",
"456 324 LINE SMOOTH",
"523 324 OFFCURVE",
"574 273 OFFCURVE",
"574 190 CURVE SMOOTH",
"574 105 OFFCURVE",
"523 53 OFFCURVE",
"456 53 CURVE SMOOTH"
);
}
);
};
layerId = "8FB96992-DBAA-412F-B62D-2E73CBD2FD04";
paths = (
{
closed = 1;
nodes = (
"379 0 LINE SMOOTH",
"490 0 OFFCURVE",
"581 103 OFFCURVE",
"581 227 CURVE SMOOTH",
"581 292 OFFCURVE",
"548 334 OFFCURVE",
"482 353 CURVE",
"482 355 LINE",
"554 381 OFFCURVE",
"610 470 OFFCURVE",
"610 559 CURVE SMOOTH",
"610 647 OFFCURVE",
"559 700 OFFCURVE",
"473 700 CURVE SMOOTH",
"185 700 LINE SMOOTH",
"171 700 OFFCURVE",
"156 688 OFFCURVE",
"154 675 CURVE SMOOTH",
"40 26 LINE SMOOTH",
"38 12 OFFCURVE",
"47 0 OFFCURVE",
"61 0 CURVE SMOOTH"
);
},
{
closed = 1;
nodes = (
"144 327 LINE",
"425 327 LINE SMOOTH",
"495 327 OFFCURVE",
"535 290 OFFCURVE",
"535 224 CURVE SMOOTH",
"535 121 OFFCURVE",
"468 46 OFFCURVE",
"376 46 CURVE SMOOTH",
"95 46 LINE"
);
},
{
closed = 1;
nodes = (
"202 654 LINE",
"463 654 LINE SMOOTH",
"528 654 OFFCURVE",
"564 618 OFFCURVE",
"564 553 CURVE SMOOTH",
"564 458 OFFCURVE",
"493 374 OFFCURVE",
"413 374 CURVE SMOOTH",
"152 374 LINE"
);
}
);
width = 645;
}
);
leftKerningGroup = B;
note = B;
rightKerningGroup = B;
unicode = 0042;
},
{
glyphname = C;
lastChange = "2018-07-08 10:09:19 +0000";
layers = (
{
anchors = (
{
name = bottom;
position = "{340, 0}";
},
{
name = top;
position = "{340, 700}";
}
);
background = {
paths = (
{
closed = 1;
nodes = (
"477 -9 OFFCURVE",
"607 62 OFFCURVE",
"629 180 CURVE SMOOTH",
"639 231 OFFCURVE",
"604 251 OFFCURVE",
"573 251 CURVE",
"574 240 OFFCURVE",
"574 230 OFFCURVE",
"574 221 CURVE SMOOTH",
"574 125 OFFCURVE",
"479 44 OFFCURVE",
"356 44 CURVE SMOOTH",
"235 44 OFFCURVE",
"140 125 OFFCURVE",
"140 221 CURVE SMOOTH",
"140 481 LINE SMOOTH",
"140 576 OFFCURVE",
"235 656 OFFCURVE",
"356 656 CURVE SMOOTH",
"479 656 OFFCURVE",
"574 576 OFFCURVE",
"574 481 CURVE SMOOTH",
"574 472 OFFCURVE",
"574 461 OFFCURVE",
"573 451 CURVE",
"604 451 OFFCURVE",
"641 470 OFFCURVE",
"629 523 CURVE SMOOTH",
"600 649 OFFCURVE",
"473 709 OFFCURVE",
"356 709 CURVE SMOOTH",
"224 709 OFFCURVE",
"81 621 OFFCURVE",
"81 481 CURVE SMOOTH",
"81 221 LINE SMOOTH",
"81 75 OFFCURVE",
"228 -9 OFFCURVE",
"356 -9 CURVE SMOOTH"
);
}
);
};
layerId = "671CEF0C-3804-4AAB-8F09-7652EF8CF253";
paths = (
{
closed = 1;
nodes = (
"526 -9 OFFCURVE",
"651 75 OFFCURVE",
"651 195 CURVE SMOOTH",
"651 263 OFFCURVE",
"590 296 OFFCURVE",
"503 275 CURVE",
"505 265 OFFCURVE",
"506 246 OFFCURVE",
"506 227 CURVE SMOOTH",
"506 163 OFFCURVE",
"440 119 OFFCURVE",
"346 119 CURVE SMOOTH",
"249 119 OFFCURVE",
"182 179 OFFCURVE",
"182 266 CURVE SMOOTH",
"182 436 LINE SMOOTH",
"182 522 OFFCURVE",
"247 581 OFFCURVE",
"340 581 CURVE SMOOTH",
"435 581 OFFCURVE",
"501 536 OFFCURVE",
"501 472 CURVE SMOOTH",
"501 456 OFFCURVE",
"500 435 OFFCURVE",
"498 421 CURVE",
"585 399 OFFCURVE",
"646 431 OFFCURVE",
"646 499 CURVE SMOOTH",
"646 623 OFFCURVE",
"521 709 OFFCURVE",
"340 709 CURVE SMOOTH",
"160 709 OFFCURVE",
"35 597 OFFCURVE",
"35 436 CURVE SMOOTH",
"35 266 LINE SMOOTH",
"35 104 OFFCURVE",
"163 -9 OFFCURVE",
"346 -9 CURVE SMOOTH"
);
}
);
width = 686;
},
{
anchors = (
{
name = bottom;
position = "{344, 0}";
},
{
name = top;
position = "{344, 700}";
}
);
layerId = "467B800A-9F0B-4EDA-B6B6-3D16CD953827";
paths = (
{
closed = 1;
nodes = (
"520 -9 OFFCURVE",
"639 74 OFFCURVE",
"639 193 CURVE SMOOTH",
"639 242 OFFCURVE",
"600 270 OFFCURVE",
"545 261 CURVE",
"546 250 OFFCURVE",
"547 235 OFFCURVE",
"547 223 CURVE SMOOTH",
"547 135 OFFCURVE",
"466 74 OFFCURVE",
"349 74 CURVE SMOOTH",
"234 74 OFFCURVE",
"154 142 OFFCURVE",
"154 239 CURVE SMOOTH",
"154 463 LINE SMOOTH",
"154 559 OFFCURVE",
"233 626 OFFCURVE",
"347 626 CURVE SMOOTH",
"462 626 OFFCURVE",
"542 565 OFFCURVE",
"542 477 CURVE SMOOTH",
"542 461 OFFCURVE",
"541 445 OFFCURVE",
"540 439 CURVE",
"595 430 OFFCURVE",
"634 455 OFFCURVE",
"634 501 CURVE SMOOTH",
"634 624 OFFCURVE",
"516 709 OFFCURVE",
"347 709 CURVE SMOOTH",
"178 709 OFFCURVE",
"60 608 OFFCURVE",
"60 463 CURVE SMOOTH",
"60 239 LINE SMOOTH",
"60 93 OFFCURVE",
"178 -9 OFFCURVE",
"349 -9 CURVE SMOOTH"
);
}
);
width = 684;
},
{
anchors = (
{
name = bottom;
position = "{337, 0}";
},
{
name = top;
position = "{337, 700}";
}
);
background = {
paths = (
{
closed = 1;
nodes = (
"466 -9 OFFCURVE",
"596 62 OFFCURVE",
"618 180 CURVE SMOOTH",
"628 231 OFFCURVE",
"593 251 OFFCURVE",
"562 251 CURVE",
"563 240 OFFCURVE",
"563 230 OFFCURVE",
"563 221 CURVE SMOOTH",
"563 125 OFFCURVE",
"468 44 OFFCURVE",
"345 44 CURVE SMOOTH",
"224 44 OFFCURVE",
"129 125 OFFCURVE",
"129 221 CURVE SMOOTH",
"129 481 LINE SMOOTH",
"129 576 OFFCURVE",
"224 656 OFFCURVE",
"345 656 CURVE SMOOTH",
"468 656 OFFCURVE",
"563 576 OFFCURVE",
"563 481 CURVE SMOOTH",
"563 472 OFFCURVE",
"563 461 OFFCURVE",
"562 451 CURVE",
"593 451 OFFCURVE",
"630 470 OFFCURVE",
"618 523 CURVE SMOOTH",
"589 649 OFFCURVE",
"462 709 OFFCURVE",
"345 709 CURVE SMOOTH",
"213 709 OFFCURVE",
"70 621 OFFCURVE",
"70 481 CURVE SMOOTH",
"70 221 LINE SMOOTH",
"70 75 OFFCURVE",
"217 -9 OFFCURVE",
"345 -9 CURVE SMOOTH"
);
}
);
};
layerId = "D810D4E0-5EEA-4CB0-897C-7C2F2D158137";
paths = (
{
closed = 1;
nodes = (
"505 -9 OFFCURVE",
"619 73 OFFCURVE",
"619 191 CURVE SMOOTH",
"619 223 OFFCURVE",
"599 247 OFFCURVE",
"570 249 CURVE",
"571 244 OFFCURVE",
"571 233 OFFCURVE",
"571 221 CURVE SMOOTH",
"571 112 OFFCURVE",
"477 37 OFFCURVE",
"342 37 CURVE SMOOTH",
"212 37 OFFCURVE",
"121 111 OFFCURVE",
"121 217 CURVE SMOOTH",
"121 485 LINE SMOOTH",
"121 590 OFFCURVE",
"212 663 OFFCURVE",
"342 663 CURVE SMOOTH",
"474 663 OFFCURVE",
"566 589 OFFCURVE",
"566 482 CURVE SMOOTH",
"566 469 OFFCURVE",
"566 458 OFFCURVE",
"565 454 CURVE",
"594 457 OFFCURVE",
"614 477 OFFCURVE",
"614 503 CURVE SMOOTH",
"614 625 OFFCURVE",
"502 709 OFFCURVE",
"342 709 CURVE SMOOTH",
"182 709 OFFCURVE",
"70 617 OFFCURVE",
"70 485 CURVE SMOOTH",
"70 217 LINE SMOOTH",
"70 84 OFFCURVE",
"182 -9 OFFCURVE",
"342 -9 CURVE SMOOTH"
);
}
);
width = 674;
},
{
anchors = (
{
name = bottom;
position = "{296, 0}";
},
{
name = top;
position = "{420, 700}";
}
);
background = {
paths = (
{
closed = 1;
nodes = (
"477 -9 OFFCURVE",
"607 62 OFFCURVE",
"629 180 CURVE SMOOTH",
"639 231 OFFCURVE",
"604 251 OFFCURVE",
"573 251 CURVE",
"574 240 OFFCURVE",
"574 230 OFFCURVE",
"574 221 CURVE SMOOTH",
"574 125 OFFCURVE",
"479 44 OFFCURVE",
"356 44 CURVE SMOOTH",
"235 44 OFFCURVE",
"140 125 OFFCURVE",
"140 221 CURVE SMOOTH",
"140 481 LINE SMOOTH",
"140 576 OFFCURVE",
"235 656 OFFCURVE",
"356 656 CURVE SMOOTH",
"479 656 OFFCURVE",
"574 576 OFFCURVE",
"574 481 CURVE SMOOTH",
"574 472 OFFCURVE",
"574 461 OFFCURVE",
"573 451 CURVE",
"604 451 OFFCURVE",
"641 470 OFFCURVE",
"629 523 CURVE SMOOTH",
"600 649 OFFCURVE",
"473 709 OFFCURVE",
"356 709 CURVE SMOOTH",
"224 709 OFFCURVE",
"81 621 OFFCURVE",
"81 481 CURVE SMOOTH",
"81 221 LINE SMOOTH",
"81 75 OFFCURVE",
"228 -9 OFFCURVE",
"356 -9 CURVE SMOOTH"
);
}
);
};
layerId = "FBA9A202-A695-4A56-B536-8E03A4D5E61C";
paths = (
{
closed = 1;
nodes = (
"501 -9 OFFCURVE",
"641 81 OFFCURVE",
"641 211 CURVE SMOOTH",
"641 249 OFFCURVE",
"586 275 OFFCURVE",
"506 275 CURVE",
"506 275 OFFCURVE",
"506 274 OFFCURVE",
"506 274 CURVE SMOOTH",
"506 183 OFFCURVE",
"431 119 OFFCURVE",
"322 119 CURVE SMOOTH",
"225 119 OFFCURVE",
"169 179 OFFCURVE",
"184 266 CURVE SMOOTH",
"214 436 LINE SMOOTH",
"229 522 OFFCURVE",
"305 581 OFFCURVE",
"398 581 CURVE SMOOTH",
"482 581 OFFCURVE",
"540 543 OFFCURVE",
"540 488 CURVE SMOOTH",
"540 473 OFFCURVE",
"534 446 OFFCURVE",
"526 421 CURVE",
"623 421 OFFCURVE",
"691 464 OFFCURVE",
"691 526 CURVE SMOOTH",
"691 634 OFFCURVE",
"580 709 OFFCURVE",
"420 709 CURVE SMOOTH",
"217 709 OFFCURVE",
"95 597 OFFCURVE",
"67 436 CURVE SMOOTH",
"37 266 LINE SMOOTH",
"8 104 OFFCURVE",
"116 -9 OFFCURVE",
"300 -9 CURVE SMOOTH"
);
}
);
width = 686;
},
{
anchors = (
{
name = bottom;
position = "{300, 0}";
},
{
name = top;
position = "{423, 700}";
}
);
layerId = "92CE152A-AC33-4332-A899-C7DC9B2DD026";
paths = (
{
closed = 1;
nodes = (
"495 -9 OFFCURVE",
"629 90 OFFCURVE",
"629 208 CURVE SMOOTH",
"629 239 OFFCURVE",
"595 261 OFFCURVE",
"546 261 CURVE",
"546 255 OFFCURVE",
"543 239 OFFCURVE",
"541 222 CURVE SMOOTH",
"527 125 OFFCURVE",
"435 74 OFFCURVE",
"318 74 CURVE SMOOTH",
"203 74 OFFCURVE",
"135 142 OFFCURVE",
"152 239 CURVE SMOOTH",
"191 463 LINE SMOOTH",
"208 559 OFFCURVE",
"299 626 OFFCURVE",
"413 626 CURVE SMOOTH",
"513 626 OFFCURVE",
"583 576 OFFCURVE",
"583 503 CURVE SMOOTH",
"583 484 OFFCURVE",
"578 457 OFFCURVE",
"572 439 CURVE",
"636 439 OFFCURVE",
"680 476 OFFCURVE",
"680 529 CURVE SMOOTH",
"680 635 OFFCURVE",
"577 709 OFFCURVE",
"428 709 CURVE SMOOTH",
"258 709 OFFCURVE",
"122 608 OFFCURVE",
"97 463 CURVE SMOOTH",
"58 239 LINE SMOOTH",
"32 93 OFFCURVE",
"133 -9 OFFCURVE",
"303 -9 CURVE SMOOTH"
);
}
);
width = 684;
},
{
anchors = (
{
name = bottom;
position = "{293, 0}";
},
{
name = top;
position = "{416, 700}";
}
);
background = {
paths = (
{
closed = 1;
nodes = (
"466 -9 OFFCURVE",
"596 62 OFFCURVE",
"618 180 CURVE SMOOTH",
"628 231 OFFCURVE",
"593 251 OFFCURVE",
"562 251 CURVE",
"563 240 OFFCURVE",
"563 230 OFFCURVE",
"563 221 CURVE SMOOTH",
"563 125 OFFCURVE",
"468 44 OFFCURVE",
"345 44 CURVE SMOOTH",
"224 44 OFFCURVE",
"129 125 OFFCURVE",
"129 221 CURVE SMOOTH",
"129 481 LINE SMOOTH",
"129 576 OFFCURVE",
"224 656 OFFCURVE",
"345 656 CURVE SMOOTH",
"468 656 OFFCURVE",
"563 576 OFFCURVE",
"563 481 CURVE SMOOTH",
"563 472 OFFCURVE",
"563 461 OFFCURVE",
"562 451 CURVE",
"593 451 OFFCURVE",
"630 470 OFFCURVE",
"618 523 CURVE SMOOTH",
"589 649 OFFCURVE",
"462 709 OFFCURVE",
"345 709 CURVE SMOOTH",
"213 709 OFFCURVE",
"70 621 OFFCURVE",
"70 481 CURVE SMOOTH",
"70 221 LINE SMOOTH",
"70 75 OFFCURVE",
"217 -9 OFFCURVE",
"345 -9 CURVE SMOOTH"
);
}
);
};
layerId = "8FB96992-DBAA-412F-B62D-2E73CBD2FD04";
paths = (
{
closed = 1;
nodes = (
"480 -9 OFFCURVE",
"608 93 OFFCURVE",
"608 205 CURVE SMOOTH",
"608 229 OFFCURVE",
"592 247 OFFCURVE",
"568 249 CURVE",
"568 240 OFFCURVE",
"565 228 OFFCURVE",
"564 221 CURVE SMOOTH",
"537 92 OFFCURVE",
"431 37 OFFCURVE",
"304 37 CURVE SMOOTH",
"174 37 OFFCURVE",
"96 111 OFFCURVE",
"115 217 CURVE SMOOTH",
"162 485 LINE SMOOTH",
"181 590 OFFCURVE",
"284 663 OFFCURVE",
"415 663 CURVE SMOOTH",
"529 663 OFFCURVE",
"608 602 OFFCURVE",
"608 515 CURVE SMOOTH",
"608 500 OFFCURVE",
"604 475 OFFCURVE",
"599 454 CURVE",
"634 458 OFFCURVE",
"659 490 OFFCURVE",
"659 532 CURVE SMOOTH",
"659 636 OFFCURVE",
"562 709 OFFCURVE",
"423 709 CURVE SMOOTH",
"262 709 OFFCURVE",
"134 617 OFFCURVE",
"111 485 CURVE SMOOTH",
"64 217 LINE SMOOTH",
"41 84 OFFCURVE",
"136 -9 OFFCURVE",
"296 -9 CURVE SMOOTH"
);
}
);
width = 674;
}
);
leftKerningGroup = C;
note = C;
rightKerningGroup = C;
unicode = 0043;
},
{
glyphname = D;
lastChange = "2018-07-08 08:32:23 +0000";
layers = (
{
anchors = (
{
name = bottom;
position = "{320, 0}";
},
{
name = center;
position = "{370, 350}";
},
{
name = top;
position = "{320, 700}";
}
);
background = {
paths = (
{
closed = 1;
nodes = (
"375 0 LINE SMOOTH",
"508 0 OFFCURVE",
"651 90 OFFCURVE",
"651 230 CURVE SMOOTH",
"651 472 LINE SMOOTH",
"651 618 OFFCURVE",
"503 700 OFFCURVE",
"375 700 CURVE SMOOTH",
"129 700 LINE SMOOTH",
"111 700 OFFCURVE",
"99 688 OFFCURVE",
"99 671 CURVE SMOOTH",
"99 29 LINE SMOOTH",
"99 13 OFFCURVE",
"111 0 OFFCURVE",
"129 0 CURVE SMOOTH"
);
},
{
closed = 1;
nodes = (
"158 647 LINE",
"203 647 OFFCURVE",
"375 647 OFFCURVE",
"375 647 CURVE",
"494 647 OFFCURVE",
"593 567 OFFCURVE",
"593 472 CURVE SMOOTH",
"593 230 LINE SMOOTH",
"593 134 OFFCURVE",
"494 53 OFFCURVE",
"375 53 CURVE SMOOTH",
"375 53 OFFCURVE",
"203 53 OFFCURVE",
"158 53 CURVE"
);
}
);
};
layerId = "671CEF0C-3804-4AAB-8F09-7652EF8CF253";
paths = (
{
closed = 1;
nodes = (
"347 0 LINE SMOOTH",
"527 0 OFFCURVE",
"652 114 OFFCURVE",
"652 278 CURVE SMOOTH",
"652 424 LINE SMOOTH",
"652 588 OFFCURVE",
"529 700 OFFCURVE",
"347 700 CURVE SMOOTH",
"129 700 LINE SMOOTH",
"87 700 OFFCURVE",
"55 671 OFFCURVE",
"55 633 CURVE SMOOTH",
"55 67 LINE SMOOTH",
"55 29 OFFCURVE",
"87 0 OFFCURVE",
"129 0 CURVE SMOOTH"
);
},
{
closed = 1;
nodes = (
"202 574 LINE",
"337 574 LINE SMOOTH",
"448 574 OFFCURVE",
"505 524 OFFCURVE",
"505 426 CURVE SMOOTH",
"505 276 LINE SMOOTH",
"505 177 OFFCURVE",
"448 126 OFFCURVE",
"337 126 CURVE SMOOTH",
"202 126 LINE"
);
}
);
width = 687;
},
{
anchors = (
{
name = bottom;
position = "{329, 0}";
},
{
name = center;
position = "{349, 350}";
},
{
name = top;
position = "{329, 700}";
}
);
layerId = "467B800A-9F0B-4EDA-B6B6-3D16CD953827";
paths = (
{
closed = 1;
nodes = (
"352 0 LINE SMOOTH",
"522 0 OFFCURVE",
"640 105 OFFCURVE",
"640 255 CURVE SMOOTH",
"640 447 LINE SMOOTH",
"640 597 OFFCURVE",
"523 700 OFFCURVE",
"352 700 CURVE SMOOTH",
"118 700 LINE SMOOTH",
"90 700 OFFCURVE",
"70 681 OFFCURVE",
"70 656 CURVE SMOOTH",
"70 44 LINE SMOOTH",
"70 19 OFFCURVE",
"91 0 OFFCURVE",
"118 0 CURVE SMOOTH"
);
},
{
closed = 1;
nodes = (
"164 618 LINE",
"342 618 LINE SMOOTH",
"470 618 OFFCURVE",
"546 555 OFFCURVE",
"546 448 CURVE SMOOTH",
"546 254 LINE SMOOTH",
"546 146 OFFCURVE",
"470 82 OFFCURVE",
"342 82 CURVE SMOOTH",
"164 82 LINE"
);
}
);
width = 700;
},
{
anchors = (
{
name = bottom;
position = "{321, 0}";
},
{
name = center;
position = "{317, 350}";
},
{
name = top;
position = "{321, 700}";
}
);
background = {
paths = (
{
closed = 1;
nodes = (
"356 0 LINE SMOOTH",
"489 0 OFFCURVE",
"632 90 OFFCURVE",
"632 230 CURVE SMOOTH",
"632 472 LINE SMOOTH",
"632 618 OFFCURVE",
"484 700 OFFCURVE",
"356 700 CURVE SMOOTH",
"110 700 LINE SMOOTH",
"92 700 OFFCURVE",
"80 688 OFFCURVE",
"80 671 CURVE SMOOTH",
"80 29 LINE SMOOTH",
"80 13 OFFCURVE",
"92 0 OFFCURVE",
"110 0 CURVE SMOOTH"
);
},
{
closed = 1;
nodes = (
"139 647 LINE",
"184 647 OFFCURVE",
"356 647 OFFCURVE",
"356 647 CURVE",
"475 647 OFFCURVE",
"574 567 OFFCURVE",
"574 472 CURVE SMOOTH",
"574 230 LINE SMOOTH",
"574 134 OFFCURVE",
"475 53 OFFCURVE",
"356 53 CURVE SMOOTH",
"356 53 OFFCURVE",
"184 53 OFFCURVE",
"139 53 CURVE"
);
}
);
};
layerId = "D810D4E0-5EEA-4CB0-897C-7C2F2D158137";
paths = (
{
closed = 1;
nodes = (
"355 0 LINE SMOOTH",
"515 0 OFFCURVE",
"628 98 OFFCURVE",
"628 237 CURVE SMOOTH",
"628 466 LINE SMOOTH",
"628 604 OFFCURVE",
"517 700 OFFCURVE",
"355 700 CURVE SMOOTH",
"106 700 LINE SMOOTH",
"91 700 OFFCURVE",
"80 690 OFFCURVE",
"80 675 CURVE SMOOTH",
"80 26 LINE SMOOTH",
"80 11 OFFCURVE",
"91 0 OFFCURVE",
"106 0 CURVE SMOOTH"
);
},
{
closed = 1;
nodes = (
"131 654 LINE",
"345 654 LINE SMOOTH",
"486 654 OFFCURVE",
"578 580 OFFCURVE",
"578 465 CURVE SMOOTH",
"578 237 LINE SMOOTH",
"578 121 OFFCURVE",
"486 46 OFFCURVE",
"345 46 CURVE SMOOTH",
"131 46 LINE"
);
}
);
width = 698;
},
{
anchors = (
{
name = bottom;
position = "{276, 0}";
},
{
name = center;
position = "{388, 350}";
},
{
name = top;
position = "{400, 700}";
}
);
background = {
paths = (
{
closed = 1;
nodes = (
"375 0 LINE SMOOTH",
"508 0 OFFCURVE",
"651 90 OFFCURVE",
"651 230 CURVE SMOOTH",
"651 472 LINE SMOOTH",
"651 618 OFFCURVE",
"503 700 OFFCURVE",
"375 700 CURVE SMOOTH",
"129 700 LINE SMOOTH",
"111 700 OFFCURVE",
"99 688 OFFCURVE",
"99 671 CURVE SMOOTH",
"99 29 LINE SMOOTH",
"99 13 OFFCURVE",
"111 0 OFFCURVE",
"129 0 CURVE SMOOTH"
);
},
{
closed = 1;
nodes = (
"158 647 LINE",
"203 647 OFFCURVE",
"375 647 OFFCURVE",
"375 647 CURVE",
"494 647 OFFCURVE",
"593 567 OFFCURVE",
"593 472 CURVE SMOOTH",
"593 230 LINE SMOOTH",
"593 134 OFFCURVE",
"494 53 OFFCURVE",
"375 53 CURVE SMOOTH",
"375 53 OFFCURVE",
"203 53 OFFCURVE",
"158 53 CURVE"
);
}
);
};
layerId = "FBA9A202-A695-4A56-B536-8E03A4D5E61C";
paths = (
{
closed = 1;
nodes = (
"302 0 LINE SMOOTH",
"503 0 OFFCURVE",
"623 95 OFFCURVE",
"656 278 CURVE SMOOTH",
"682 424 LINE SMOOTH",
"709 578 OFFCURVE",
"596 700 OFFCURVE",
"426 700 CURVE SMOOTH",
"208 700 LINE SMOOTH",
"166 700 OFFCURVE",
"129 671 OFFCURVE",
"122 633 CURVE SMOOTH",
"22 67 LINE SMOOTH",
"15 29 OFFCURVE",
"42 0 OFFCURVE",
"84 0 CURVE SMOOTH"
);
},
{
closed = 1;
nodes = (
"258 574 LINE",
"393 574 LINE SMOOTH",
"504 574 OFFCURVE",
"552 523 OFFCURVE",
"535 426 CURVE SMOOTH",
"509 276 LINE SMOOTH",
"492 177 OFFCURVE",
"425 126 OFFCURVE",
"314 126 CURVE SMOOTH",
"179 126 LINE"
);
}
);
width = 687;
},
{
anchors = (
{
name = bottom;
position = "{285, 0}";
},
{
name = center;
position = "{367, 350}";
},
{
name = top;
position = "{409, 700}";
}
);
layerId = "92CE152A-AC33-4332-A899-C7DC9B2DD026";
paths = (
{
closed = 1;
nodes = (
"307 0 LINE SMOOTH",
"488 0 OFFCURVE",
"612 95 OFFCURVE",
"640 255 CURVE SMOOTH",
"674 447 LINE SMOOTH",
"700 591 OFFCURVE",
"595 700 OFFCURVE",
"431 700 CURVE SMOOTH",
"197 700 LINE SMOOTH",
"169 700 OFFCURVE",
"145 681 OFFCURVE",
"141 656 CURVE SMOOTH",
"33 44 LINE SMOOTH",
"28 18 OFFCURVE",
"46 0 OFFCURVE",
"73 0 CURVE SMOOTH"
);
},
{
closed = 1;
nodes = (
"228 618 LINE",
"406 618 LINE SMOOTH",
"539 618 OFFCURVE",
"599 559 OFFCURVE",
"580 448 CURVE SMOOTH",
"546 254 LINE SMOOTH",
"527 143 OFFCURVE",
"443 82 OFFCURVE",
"312 82 CURVE SMOOTH",
"134 82 LINE"
);
}
);
width = 700;
},
{
anchors = (
{
name = bottom;
position = "{277, 0}";
},
{
name = center;
position = "{335, 350}";
},
{
name = top;
position = "{401, 700}";
}
);
background = {
paths = (
{
closed = 1;
nodes = (
"356 0 LINE SMOOTH",
"489 0 OFFCURVE",
"632 90 OFFCURVE",
"632 230 CURVE SMOOTH",
"632 472 LINE SMOOTH",
"632 618 OFFCURVE",
"484 700 OFFCURVE",
"356 700 CURVE SMOOTH",
"110 700 LINE SMOOTH",
"92 700 OFFCURVE",
"80 688 OFFCURVE",
"80 671 CURVE SMOOTH",
"80 29 LINE SMOOTH",
"80 13 OFFCURVE",
"92 0 OFFCURVE",
"110 0 CURVE SMOOTH"
);
},
{
closed = 1;
nodes = (
"139 647 LINE",
"184 647 OFFCURVE",
"356 647 OFFCURVE",
"356 647 CURVE",
"475 647 OFFCURVE",
"574 567 OFFCURVE",
"574 472 CURVE SMOOTH",
"574 230 LINE SMOOTH",
"574 134 OFFCURVE",
"475 53 OFFCURVE",
"356 53 CURVE SMOOTH",
"356 53 OFFCURVE",
"184 53 OFFCURVE",
"139 53 CURVE"
);
}
);
};
layerId = "8FB96992-DBAA-412F-B62D-2E73CBD2FD04";
paths = (
{
closed = 1;
nodes = (
"309 0 LINE SMOOTH",
"481 0 OFFCURVE",
"597 87 OFFCURVE",
"624 237 CURVE SMOOTH",
"665 466 LINE SMOOTH",
"690 604 OFFCURVE",
"594 700 OFFCURVE",
"433 700 CURVE SMOOTH",
"185 700 LINE SMOOTH",
"170 700 OFFCURVE",
"156 689 OFFCURVE",
"154 675 CURVE SMOOTH",
"40 26 LINE SMOOTH",
"37 11 OFFCURVE",
"46 0 OFFCURVE",
"61 0 CURVE SMOOTH"
);
},
{
closed = 1;
nodes = (
"202 654 LINE",
"415 654 LINE SMOOTH",
"567 654 OFFCURVE",
"636 588 OFFCURVE",
"614 465 CURVE SMOOTH",
"574 237 LINE SMOOTH",
"552 114 OFFCURVE",
"457 46 OFFCURVE",
"308 46 CURVE SMOOTH",
"95 46 LINE"
);
}
);
width = 698;
}
);
note = D;
rightKerningGroup = D;
unicode = 0044;
},
{
glyphname = Eth;
lastChange = "2018-07-08 08:32:23 +0000";
layers = (
{
components = (
{
name = D;
transform = "{1, 0, 0, 1, 62, 0}";
}
);
layerId = "671CEF0C-3804-4AAB-8F09-7652EF8CF253";
paths = (
{
closed = 1;
nodes = (
"363 290 LINE SMOOTH",
"398 290 OFFCURVE",
"423 328 OFFCURVE",
"423 383 CURVE",
"95 383 LINE SMOOTH",
"60 383 OFFCURVE",
"35 346 OFFCURVE",
"35 290 CURVE"
);
}
);
width = 764;
},
{
components = (
{
alignment = -1;
name = D;
transform = "{1, 0, 0, 1, 60, 0}";
}
);
layerId = "467B800A-9F0B-4EDA-B6B6-3D16CD953827";
paths = (
{
closed = 1;
nodes = (
"355 302 LINE SMOOTH",
"390 302 OFFCURVE",
"409 328 OFFCURVE",
"409 371 CURVE",
"99 371 LINE SMOOTH",
"64 371 OFFCURVE",
"45 346 OFFCURVE",
"45 302 CURVE"
);
}
);
width = 760;
},
{
components = (
{
name = D;
transform = "{1, 0, 0, 1, 60, 0}";
}
);
layerId = "D810D4E0-5EEA-4CB0-897C-7C2F2D158137";
paths = (
{
closed = 1;
nodes = (
"350 312 LINE SMOOTH",
"381 312 OFFCURVE",
"399 324 OFFCURVE",
"399 361 CURVE",
"104 361 LINE SMOOTH",
"74 361 OFFCURVE",
"55 350 OFFCURVE",
"55 312 CURVE"
);
}
);
width = 743;
},
{
components = (
{
name = D;
transform = "{1, 0, 0, 1, 62, 0}";
}
);
layerId = "FBA9A202-A695-4A56-B536-8E03A4D5E61C";
paths = (
{
closed = 1;
nodes = (
"370 290 LINE SMOOTH",
"404 290 OFFCURVE",
"437 328 OFFCURVE",
"446 383 CURVE",
"117 383 LINE SMOOTH",
"83 383 OFFCURVE",
"51 346 OFFCURVE",
"41 290 CURVE"
);
}
);
width = 764;
},
{
components = (
{
alignment = -1;
name = D;
transform = "{1, 0, 0, 1, 60, 0}";
}
);
layerId = "92CE152A-AC33-4332-A899-C7DC9B2DD026";
paths = (
{
closed = 1;
nodes = (
"364 302 LINE SMOOTH",
"398 302 OFFCURVE",
"423 328 OFFCURVE",
"430 371 CURVE",
"119 371 LINE SMOOTH",
"84 371 OFFCURVE",
"61 346 OFFCURVE",
"53 302 CURVE"
);
}
);
width = 760;
},
{
components = (
{
name = D;
transform = "{1, 0, 0, 1, 60, 0}";
}
);
layerId = "8FB96992-DBAA-412F-B62D-2E73CBD2FD04";
paths = (
{
closed = 1;
nodes = (
"361 312 LINE SMOOTH",
"392 312 OFFCURVE",
"412 324 OFFCURVE",
"419 361 CURVE",
"123 361 LINE SMOOTH",
"93 361 OFFCURVE",
"72 350 OFFCURVE",
"65 312 CURVE"
);
}
);
width = 743;
}
);
note = Eth;
rightKerningGroup = D;
unicode = 00D0;
},
{
glyphname = Dcroat;
lastChange = "2018-07-08 08:32:23 +0000";
layers = (
{
components = (
{
name = D;
transform = "{1, 0, 0, 1, 65, 0}";
}
);
layerId = "671CEF0C-3804-4AAB-8F09-7652EF8CF253";
paths = (
{
closed = 1;
nodes = (
"363 290 LINE SMOOTH",
"398 290 OFFCURVE",
"423 328 OFFCURVE",
"423 383 CURVE",
"95 383 LINE SMOOTH",
"60 383 OFFCURVE",
"35 346 OFFCURVE",
"35 290 CURVE"
);
}
);
width = 767;
},
{
components = (
{
alignment = -1;
name = D;
transform = "{1, 0, 0, 1, 63, 0}";
}
);
layerId = "467B800A-9F0B-4EDA-B6B6-3D16CD953827";
paths = (
{
closed = 1;
nodes = (
"355 302 LINE SMOOTH",
"390 302 OFFCURVE",
"409 328 OFFCURVE",
"409 371 CURVE",
"99 371 LINE SMOOTH",
"64 371 OFFCURVE",
"45 346 OFFCURVE",
"45 302 CURVE"
);
}
);
width = 763;
},
{
components = (
{
name = D;
transform = "{1, 0, 0, 1, 63, 0}";
}
);
layerId = "D810D4E0-5EEA-4CB0-897C-7C2F2D158137";
paths = (
{
closed = 1;
nodes = (
"350 312 LINE SMOOTH",
"381 312 OFFCURVE",
"399 324 OFFCURVE",
"399 361 CURVE",
"104 361 LINE SMOOTH",
"74 361 OFFCURVE",
"55 350 OFFCURVE",
"55 312 CURVE"
);
}
);
width = 767;
},
{
components = (
{
name = D;
transform = "{1, 0, 0, 1, 65, 0}";
}
);
layerId = "FBA9A202-A695-4A56-B536-8E03A4D5E61C";
paths = (
{
closed = 1;
nodes = (
"370 290 LINE SMOOTH",
"404 290 OFFCURVE",
"437 328 OFFCURVE",
"446 383 CURVE",
"118 383 LINE SMOOTH",
"84 383 OFFCURVE",
"52 346 OFFCURVE",
"42 290 CURVE"
);
}
);
width = 767;
},
{
components = (
{
alignment = -1;
name = D;
transform = "{1, 0, 0, 1, 63, 0}";
}
);
layerId = "92CE152A-AC33-4332-A899-C7DC9B2DD026";
paths = (
{
closed = 1;
nodes = (
"364 302 LINE SMOOTH",
"398 302 OFFCURVE",
"423 328 OFFCURVE",
"430 371 CURVE",
"120 371 LINE SMOOTH",
"85 371 OFFCURVE",
"62 346 OFFCURVE",
"54 302 CURVE"
);
}
);
width = 763;
},
{
components = (
{
name = D;
transform = "{1, 0, 0, 1, 63, 0}";
}
);
layerId = "8FB96992-DBAA-412F-B62D-2E73CBD2FD04";
paths = (
{
closed = 1;
nodes = (
"361 312 LINE SMOOTH",
"392 312 OFFCURVE",
"412 324 OFFCURVE",
"419 361 CURVE",
"124 361 LINE SMOOTH",
"94 361 OFFCURVE",
"73 350 OFFCURVE",
"66 312 CURVE"
);
}
);
width = 767;
}
);
note = Dcroat;
rightKerningGroup = D;
unicode = 0110;
},
{
glyphname = E;
lastChange = "2018-07-08 09:51:51 +0000";
layers = (
{
anchors = (
{
name = bottom;
position = "{310, 0}";
},
{
name = ogonek;
position = "{359, 0}";
},
{
name = top;
position = "{310, 700}";
},
{
name = topleft;
position = "{39, 700}";
}
);
background = {
paths = (
{
closed = 1;
nodes = (
"495 -9 OFFCURVE",
"625 62 OFFCURVE",
"647 180 CURVE SMOOTH",
"657 231 OFFCURVE",
"622 251 OFFCURVE",
"591 251 CURVE",
"592 240 OFFCURVE",
"592 230 OFFCURVE",
"592 221 CURVE SMOOTH",
"592 125 OFFCURVE",
"497 44 OFFCURVE",
"374 44 CURVE SMOOTH",
"253 44 OFFCURVE",
"158 125 OFFCURVE",
"158 221 CURVE SMOOTH",
"158 324 LINE",
"396 324 LINE SMOOTH",
"432 324 OFFCURVE",
"450 342 OFFCURVE",
"450 377 CURVE",
"158 377 LINE",
"158 481 LINE SMOOTH",
"158 576 OFFCURVE",
"253 656 OFFCURVE",
"374 656 CURVE SMOOTH",
"497 656 OFFCURVE",
"592 576 OFFCURVE",
"592 481 CURVE SMOOTH",
"592 472 OFFCURVE",
"592 461 OFFCURVE",
"591 451 CURVE",
"622 451 OFFCURVE",
"659 470 OFFCURVE",
"647 523 CURVE SMOOTH",
"618 649 OFFCURVE",
"491 709 OFFCURVE",
"374 709 CURVE SMOOTH",
"242 709 OFFCURVE",
"99 621 OFFCURVE",
"99 481 CURVE SMOOTH",
"99 221 LINE SMOOTH",
"99 75 OFFCURVE",
"246 -9 OFFCURVE",
"374 -9 CURVE SMOOTH"
);
}
);
};
layerId = "671CEF0C-3804-4AAB-8F09-7652EF8CF253";
paths = (
{
closed = 1;
nodes = (
"55 29 OFFCURVE",
"87 0 OFFCURVE",
"129 0 CURVE SMOOTH",
"596 0 LINE",
"596 88 OFFCURVE",
"568 126 OFFCURVE",
"504 126 CURVE SMOOTH",
"202 126 LINE",
"202 290 LINE",
"371 290 LINE SMOOTH",
"436 290 OFFCURVE",
"464 328 OFFCURVE",
"464 416 CURVE",
"202 416 LINE",
"202 574 LINE",
"483 574 LINE SMOOTH",
"548 574 OFFCURVE",
"576 612 OFFCURVE",
"576 700 CURVE",
"129 700 LINE SMOOTH",
"88 700 OFFCURVE",
"55 670 OFFCURVE",
"55 633 CURVE SMOOTH",
"55 67 LINE SMOOTH"
);
}
);
width = 631;
},
{
anchors = (
{
name = bottom;
position = "{311, 0}";
},
{
name = ogonek;
position = "{393, 6}";
},
{
name = top;
position = "{311, 700}";
},
{
name = topleft;
position = "{28, 700}";
}
);
layerId = "467B800A-9F0B-4EDA-B6B6-3D16CD953827";
paths = (
{
closed = 1;
nodes = (
"70 19 OFFCURVE",
"91 0 OFFCURVE",
"118 0 CURVE SMOOTH",
"581 0 LINE",
"581 56 OFFCURVE",
"559 82 OFFCURVE",
"512 82 CURVE SMOOTH",
"164 82 LINE",
"164 312 LINE",
"375 312 LINE SMOOTH",
"422 312 OFFCURVE",
"444 338 OFFCURVE",
"444 394 CURVE",
"164 394 LINE",
"164 618 LINE",
"491 618 LINE SMOOTH",
"539 618 OFFCURVE",
"561 644 OFFCURVE",
"561 700 CURVE",
"118 700 LINE SMOOTH",
"91 700 OFFCURVE",
"70 681 OFFCURVE",
"70 656 CURVE SMOOTH",
"70 44 LINE SMOOTH"
);
}
);
width = 626;
},
{
anchors = (
{
name = bottom;
position = "{309, 0}";
},
{
name = ogonek;
position = "{372, 11}";
},
{
name = top;
position = "{309, 700}";
},
{
name = topleft;
position = "{16, 700}";
}
);
background = {
paths = (
{
closed = 1;
nodes = (
"476 -9 OFFCURVE",
"606 62 OFFCURVE",
"628 180 CURVE SMOOTH",
"638 231 OFFCURVE",
"603 251 OFFCURVE",
"572 251 CURVE",
"573 240 OFFCURVE",
"573 230 OFFCURVE",
"573 221 CURVE SMOOTH",
"573 125 OFFCURVE",
"478 44 OFFCURVE",
"355 44 CURVE SMOOTH",
"234 44 OFFCURVE",
"139 125 OFFCURVE",
"139 221 CURVE SMOOTH",
"139 324 LINE",
"377 324 LINE SMOOTH",
"413 324 OFFCURVE",
"431 342 OFFCURVE",
"431 377 CURVE",
"139 377 LINE",
"139 481 LINE SMOOTH",
"139 576 OFFCURVE",
"234 656 OFFCURVE",
"355 656 CURVE SMOOTH",
"478 656 OFFCURVE",
"573 576 OFFCURVE",
"573 481 CURVE SMOOTH",
"573 472 OFFCURVE",
"573 461 OFFCURVE",
"572 451 CURVE",
"603 451 OFFCURVE",
"640 470 OFFCURVE",
"628 523 CURVE SMOOTH",
"599 649 OFFCURVE",
"472 709 OFFCURVE",
"355 709 CURVE SMOOTH",
"223 709 OFFCURVE",
"80 621 OFFCURVE",
"80 481 CURVE SMOOTH",
"80 221 LINE SMOOTH",
"80 75 OFFCURVE",
"227 -9 OFFCURVE",
"355 -9 CURVE SMOOTH"
);
}
);
};
layerId = "D810D4E0-5EEA-4CB0-897C-7C2F2D158137";
paths = (
{
closed = 1;
nodes = (
"80 11 OFFCURVE",
"91 0 OFFCURVE",
"106 0 CURVE SMOOTH",
"566 0 LINE",
"566 30 OFFCURVE",
"549 46 OFFCURVE",
"517 46 CURVE SMOOTH",
"131 46 LINE",
"131 329 LINE",
"375 329 LINE SMOOTH",
"408 329 OFFCURVE",
"426 345 OFFCURVE",
"426 376 CURVE",
"131 376 LINE",
"131 654 LINE",
"496 654 LINE SMOOTH",
"529 654 OFFCURVE",
"546 670 OFFCURVE",
"546 700 CURVE",
"106 700 LINE SMOOTH",
"92 700 OFFCURVE",
"80 689 OFFCURVE",
"80 675 CURVE SMOOTH",
"80 26 LINE SMOOTH"
);
}
);
width = 621;
},
{
anchors = (
{
name = bottom;
position = "{266, 0}";
},
{
name = ogonek;
position = "{319, 0}";
},
{
name = top;
position = "{390, 700}";
},
{
name = topleft;
position = "{119, 700}";
}
);
background = {
paths = (
{
closed = 1;
nodes = (
"495 -9 OFFCURVE",
"625 62 OFFCURVE",
"647 180 CURVE SMOOTH",
"657 231 OFFCURVE",
"622 251 OFFCURVE",
"591 251 CURVE",
"592 240 OFFCURVE",
"592 230 OFFCURVE",
"592 221 CURVE SMOOTH",
"592 125 OFFCURVE",
"497 44 OFFCURVE",
"374 44 CURVE SMOOTH",
"253 44 OFFCURVE",
"158 125 OFFCURVE",
"158 221 CURVE SMOOTH",
"158 324 LINE",
"396 324 LINE SMOOTH",
"432 324 OFFCURVE",
"450 342 OFFCURVE",
"450 377 CURVE",
"158 377 LINE",
"158 481 LINE SMOOTH",
"158 576 OFFCURVE",
"253 656 OFFCURVE",
"374 656 CURVE SMOOTH",
"497 656 OFFCURVE",
"592 576 OFFCURVE",
"592 481 CURVE SMOOTH",
"592 472 OFFCURVE",
"592 461 OFFCURVE",
"591 451 CURVE",
"622 451 OFFCURVE",
"659 470 OFFCURVE",
"647 523 CURVE SMOOTH",
"618 649 OFFCURVE",
"491 709 OFFCURVE",
"374 709 CURVE SMOOTH",
"242 709 OFFCURVE",
"99 621 OFFCURVE",
"99 481 CURVE SMOOTH",
"99 221 LINE SMOOTH",
"99 75 OFFCURVE",
"246 -9 OFFCURVE",
"374 -9 CURVE SMOOTH"
);
}
);
};
layerId = "FBA9A202-A695-4A56-B536-8E03A4D5E61C";
paths = (
{
closed = 1;
nodes = (
"15 29 OFFCURVE",
"42 0 OFFCURVE",
"84 0 CURVE SMOOTH",
"551 0 LINE",
"567 88 OFFCURVE",
"545 126 OFFCURVE",
"481 126 CURVE SMOOTH",
"179 126 LINE",
"208 290 LINE",
"377 290 LINE SMOOTH",
"442 290 OFFCURVE",
"478 329 OFFCURVE",
"493 416 CURVE",
"231 416 LINE",
"258 574 LINE",
"539 574 LINE SMOOTH",
"604 574 OFFCURVE",
"640 613 OFFCURVE",
"655 700 CURVE",
"208 700 LINE SMOOTH",
"167 700 OFFCURVE",
"129 670 OFFCURVE",
"122 633 CURVE SMOOTH",
"22 67 LINE SMOOTH"
);
}
);
width = 631;
},
{
anchors = (
{
name = bottom;
position = "{267, 0}";
},
{
name = ogonek;
position = "{352, 6}";
},
{
name = top;
position = "{391, 700}";
},
{
name = topleft;
position = "{108, 700}";
}
);
layerId = "92CE152A-AC33-4332-A899-C7DC9B2DD026";
paths = (
{
closed = 1;
nodes = (
"29 18 OFFCURVE",
"46 0 OFFCURVE",
"73 0 CURVE SMOOTH",
"536 0 LINE",
"546 56 OFFCURVE",
"529 82 OFFCURVE",
"482 82 CURVE SMOOTH",
"134 82 LINE",
"174 312 LINE",
"385 312 LINE SMOOTH",
"432 312 OFFCURVE",
"458 338 OFFCURVE",
"469 394 CURVE",
"189 394 LINE",
"228 618 LINE",
"555 618 LINE SMOOTH",
"603 618 OFFCURVE",
"629 643 OFFCURVE",
"640 700 CURVE",
"197 700 LINE SMOOTH",
"170 700 OFFCURVE",
"145 681 OFFCURVE",
"141 656 CURVE SMOOTH",
"33 44 LINE SMOOTH"
);
}
);
width = 626;
},
{
anchors = (
{
name = bottom;
position = "{265, 0}";
},
{
name = ogonek;
position = "{322, 11}";
},
{
name = top;
position = "{389, 700}";
},
{
name = topleft;
position = "{96, 700}";
}
);
background = {
paths = (
{
closed = 1;
nodes = (
"476 -9 OFFCURVE",
"606 62 OFFCURVE",
"628 180 CURVE SMOOTH",
"638 231 OFFCURVE",
"603 251 OFFCURVE",
"572 251 CURVE",
"573 240 OFFCURVE",
"573 230 OFFCURVE",
"573 221 CURVE SMOOTH",
"573 125 OFFCURVE",
"478 44 OFFCURVE",
"355 44 CURVE SMOOTH",
"234 44 OFFCURVE",
"139 125 OFFCURVE",
"139 221 CURVE SMOOTH",
"139 324 LINE",
"377 324 LINE SMOOTH",
"413 324 OFFCURVE",
"431 342 OFFCURVE",
"431 377 CURVE",
"139 377 LINE",
"139 481 LINE SMOOTH",
"139 576 OFFCURVE",
"234 656 OFFCURVE",
"355 656 CURVE SMOOTH",
"478 656 OFFCURVE",
"573 576 OFFCURVE",
"573 481 CURVE SMOOTH",
"573 472 OFFCURVE",
"573 461 OFFCURVE",
"572 451 CURVE",
"603 451 OFFCURVE",
"640 470 OFFCURVE",
"628 523 CURVE SMOOTH",
"599 649 OFFCURVE",
"472 709 OFFCURVE",
"355 709 CURVE SMOOTH",
"223 709 OFFCURVE",
"80 621 OFFCURVE",
"80 481 CURVE SMOOTH",
"80 221 LINE SMOOTH",
"80 75 OFFCURVE",
"227 -9 OFFCURVE",
"355 -9 CURVE SMOOTH"
);
}
);
};
layerId = "8FB96992-DBAA-412F-B62D-2E73CBD2FD04";
paths = (
{
closed = 1;
nodes = (
"38 11 OFFCURVE",
"46 0 OFFCURVE",
"61 0 CURVE SMOOTH",
"521 0 LINE",
"527 30 OFFCURVE",
"512 46 OFFCURVE",
"481 46 CURVE SMOOTH",
"95 46 LINE",
"144 329 LINE",
"388 329 LINE SMOOTH",
"421 329 OFFCURVE",
"442 345 OFFCURVE",
"448 376 CURVE",
"153 376 LINE",
"202 654 LINE",
"567 654 LINE SMOOTH",
"600 654 OFFCURVE",
"619 670 OFFCURVE",
"625 700 CURVE",
"185 700 LINE SMOOTH",
"171 700 OFFCURVE",
"156 688 OFFCURVE",
"154 675 CURVE SMOOTH",
"40 26 LINE SMOOTH"
);
}
);
width = 621;
}
);
note = E;
rightKerningGroup = E;
unicode = 0045;
},
{
glyphname = Eacute;
lastChange = "2018-07-08 09:50:23 +0000";
layers = (
{
background = {
paths = (
{
closed = 1;
nodes = (
"554 0 LINE",
"571 179 LINE",
"544 179 LINE",
"538 124 OFFCURVE",
"520 40 OFFCURVE",
"456 40 CURVE SMOOTH",
"201 40 LINE",
"201 659 LINE",
"441 659 LINE SMOOTH",
"516 659 OFFCURVE",
"525 567 OFFCURVE",
"528 527 CURVE",
"555 527 LINE",
"555 700 LINE",
"16 700 LINE",
"16 673 LINE",
"44 673 LINE SMOOTH",
"83 673 OFFCURVE",
"103 662 OFFCURVE",
"103 637 CURVE SMOOTH",
"103 62 LINE SMOOTH",
"103 37 OFFCURVE",
"83 26 OFFCURVE",
"44 26 CURVE SMOOTH",
"16 26 LINE",
"16 0 LINE"
);
},
{
closed = 1;
nodes = (
"455 251 LINE",
"455 485 LINE",
"431 485 LINE",
"427 436 OFFCURVE",
"424 388 OFFCURVE",
"379 388 CURVE SMOOTH",
"162 388 LINE",
"162 348 LINE",
"379 348 LINE SMOOTH",
"424 348 OFFCURVE",
"427 300 OFFCURVE",
"431 251 CURVE"
);
},
{
closed = 1;
nodes = (
"398 865 LINE SMOOTH",
"420 877 OFFCURVE",
"432 890 OFFCURVE",
"432 907 CURVE SMOOTH",
"432 922 OFFCURVE",
"420 937 OFFCURVE",
"398 937 CURVE SMOOTH",
"377 937 OFFCURVE",
"362 921 OFFCURVE",
"354 914 CURVE SMOOTH",
"239 807 LINE",
"256 782 LINE"
);
}
);
};
components = (
{
name = E;
},
{
name = acutecomb;
transform = "{1, 0, 0, 1, 215, 230}";
}
);
layerId = "671CEF0C-3804-4AAB-8F09-7652EF8CF253";
width = 631;
},
{
components = (
{
name = E;
},
{
name = acutecomb;
transform = "{1, 0, 0, 1, 231, 230}";
}
);
layerId = "467B800A-9F0B-4EDA-B6B6-3D16CD953827";
width = 626;
},
{
background = {
paths = (
{
closed = 1;
nodes = (
"554 0 LINE",
"571 179 LINE",
"544 179 LINE",
"538 124 OFFCURVE",
"520 40 OFFCURVE",
"456 40 CURVE SMOOTH",
"201 40 LINE",
"201 659 LINE",
"441 659 LINE SMOOTH",
"516 659 OFFCURVE",
"525 567 OFFCURVE",
"528 527 CURVE",
"555 527 LINE",
"555 700 LINE",
"16 700 LINE",
"16 673 LINE",
"44 673 LINE SMOOTH",
"83 673 OFFCURVE",
"103 662 OFFCURVE",
"103 637 CURVE SMOOTH",
"103 62 LINE SMOOTH",
"103 37 OFFCURVE",
"83 26 OFFCURVE",
"44 26 CURVE SMOOTH",
"16 26 LINE",
"16 0 LINE"
);
},
{
closed = 1;
nodes = (
"455 251 LINE",
"455 485 LINE",
"431 485 LINE",
"427 436 OFFCURVE",
"424 388 OFFCURVE",
"379 388 CURVE SMOOTH",
"162 388 LINE",
"162 348 LINE",
"379 348 LINE SMOOTH",
"424 348 OFFCURVE",
"427 300 OFFCURVE",
"431 251 CURVE"
);
},
{
closed = 1;
nodes = (
"398 865 LINE SMOOTH",
"420 877 OFFCURVE",
"432 890 OFFCURVE",
"432 907 CURVE SMOOTH",
"432 922 OFFCURVE",
"420 937 OFFCURVE",
"398 937 CURVE SMOOTH",
"377 937 OFFCURVE",
"362 921 OFFCURVE",
"354 914 CURVE SMOOTH",
"239 807 LINE",
"256 782 LINE"
);
}
);
};
components = (
{
name = E;
},
{
name = acutecomb;
transform = "{1, 0, 0, 1, 209, 230}";
}
);
layerId = "D810D4E0-5EEA-4CB0-897C-7C2F2D158137";
width = 621;
},
{
background = {
paths = (
{
closed = 1;
nodes = (
"554 0 LINE",
"571 179 LINE",
"544 179 LINE",
"538 124 OFFCURVE",
"520 40 OFFCURVE",
"456 40 CURVE SMOOTH",
"201 40 LINE",
"201 659 LINE",
"441 659 LINE SMOOTH",
"516 659 OFFCURVE",
"525 567 OFFCURVE",
"528 527 CURVE",
"555 527 LINE",
"555 700 LINE",
"16 700 LINE",
"16 673 LINE",
"44 673 LINE SMOOTH",
"83 673 OFFCURVE",
"103 662 OFFCURVE",
"103 637 CURVE SMOOTH",
"103 62 LINE SMOOTH",
"103 37 OFFCURVE",
"83 26 OFFCURVE",
"44 26 CURVE SMOOTH",
"16 26 LINE",
"16 0 LINE"
);
},
{
closed = 1;
nodes = (
"455 251 LINE",
"455 485 LINE",
"431 485 LINE",
"427 436 OFFCURVE",
"424 388 OFFCURVE",
"379 388 CURVE SMOOTH",
"162 388 LINE",
"162 348 LINE",
"379 348 LINE SMOOTH",
"424 348 OFFCURVE",
"427 300 OFFCURVE",
"431 251 CURVE"
);
},
{
closed = 1;
nodes = (
"398 865 LINE SMOOTH",
"420 877 OFFCURVE",
"432 890 OFFCURVE",
"432 907 CURVE SMOOTH",
"432 922 OFFCURVE",
"420 937 OFFCURVE",
"398 937 CURVE SMOOTH",
"377 937 OFFCURVE",
"362 921 OFFCURVE",
"354 914 CURVE SMOOTH",
"239 807 LINE",
"256 782 LINE"
);
}
);
};
components = (
{
name = E;
},
{
name = acutecomb;
transform = "{1, 0, 0, 1, 248, 230}";
}
);
layerId = "FBA9A202-A695-4A56-B536-8E03A4D5E61C";
width = 631;
},
{
components = (
{
name = E;
},
{
name = acutecomb;
transform = "{1, 0, 0, 1, 252, 230}";
}
);
layerId = "92CE152A-AC33-4332-A899-C7DC9B2DD026";
width = 626;
},
{
background = {
paths = (
{
closed = 1;
nodes = (
"554 0 LINE",
"571 179 LINE",
"544 179 LINE",
"538 124 OFFCURVE",
"520 40 OFFCURVE",
"456 40 CURVE SMOOTH",
"201 40 LINE",
"201 659 LINE",
"441 659 LINE SMOOTH",
"516 659 OFFCURVE",
"525 567 OFFCURVE",
"528 527 CURVE",
"555 527 LINE",
"555 700 LINE",
"16 700 LINE",
"16 673 LINE",
"44 673 LINE SMOOTH",
"83 673 OFFCURVE",
"103 662 OFFCURVE",
"103 637 CURVE SMOOTH",
"103 62 LINE SMOOTH",
"103 37 OFFCURVE",
"83 26 OFFCURVE",
"44 26 CURVE SMOOTH",
"16 26 LINE",
"16 0 LINE"
);
},
{
closed = 1;
nodes = (
"455 251 LINE",
"455 485 LINE",
"431 485 LINE",
"427 436 OFFCURVE",
"424 388 OFFCURVE",
"379 388 CURVE SMOOTH",
"162 388 LINE",
"162 348 LINE",
"379 348 LINE SMOOTH",
"424 348 OFFCURVE",
"427 300 OFFCURVE",
"431 251 CURVE"
);
},
{
closed = 1;
nodes = (
"398 865 LINE SMOOTH",
"420 877 OFFCURVE",
"432 890 OFFCURVE",
"432 907 CURVE SMOOTH",
"432 922 OFFCURVE",
"420 937 OFFCURVE",
"398 937 CURVE SMOOTH",
"377 937 OFFCURVE",
"362 921 OFFCURVE",
"354 914 CURVE SMOOTH",
"239 807 LINE",
"256 782 LINE"
);
}
);
};
components = (
{
name = E;
},
{
name = acutecomb;
transform = "{1, 0, 0, 1, 240, 230}";
}
);
layerId = "8FB96992-DBAA-412F-B62D-2E73CBD2FD04";
width = 621;
}
);
note = Eacute;
rightKerningGroup = E;
unicode = 00C9;
},
{
glyphname = Ebreve;
lastChange = "2018-07-08 13:30:42 +0000";
layers = (
{
background = {
paths = (
{
closed = 1;
nodes = (
"554 0 LINE",
"571 179 LINE",
"544 179 LINE",
"538 124 OFFCURVE",
"520 40 OFFCURVE",
"456 40 CURVE SMOOTH",
"201 40 LINE",
"201 659 LINE",
"441 659 LINE SMOOTH",
"516 659 OFFCURVE",
"525 567 OFFCURVE",
"528 527 CURVE",
"555 527 LINE",
"555 700 LINE",
"16 700 LINE",
"16 673 LINE",
"44 673 LINE SMOOTH",
"83 673 OFFCURVE",
"103 662 OFFCURVE",
"103 637 CURVE SMOOTH",
"103 62 LINE SMOOTH",
"103 37 OFFCURVE",
"83 26 OFFCURVE",
"44 26 CURVE SMOOTH",
"16 26 LINE",
"16 0 LINE"
);
},
{
closed = 1;
nodes = (
"455 251 LINE",
"455 485 LINE",
"431 485 LINE",
"427 436 OFFCURVE",
"424 388 OFFCURVE",
"379 388 CURVE SMOOTH",
"162 388 LINE",
"162 348 LINE",
"379 348 LINE SMOOTH",
"424 348 OFFCURVE",
"427 300 OFFCURVE",
"431 251 CURVE"
);
},
{
closed = 1;
nodes = (
"432 776 OFFCURVE",
"474 832 OFFCURVE",
"478 907 CURVE",
"445 907 LINE",
"439 848 OFFCURVE",
"397 822 OFFCURVE",
"333 822 CURVE SMOOTH",
"269 822 OFFCURVE",
"226 848 OFFCURVE",
"219 907 CURVE",
"186 907 LINE",
"190 829 OFFCURVE",
"232 776 OFFCURVE",
"333 776 CURVE SMOOTH"
);
}
);
};
components = (
{
name = E;
},
{
name = brevecomb;
transform = "{1, 0, 0, 1, 310, 230}";
}
);
layerId = "671CEF0C-3804-4AAB-8F09-7652EF8CF253";
width = 631;
},
{
components = (
{
name = E;
},
{
name = brevecomb;
transform = "{1, 0, 0, 1, 311, 230}";
}
);
layerId = "467B800A-9F0B-4EDA-B6B6-3D16CD953827";
width = 626;
},
{
background = {
paths = (
{
closed = 1;
nodes = (
"554 0 LINE",
"571 179 LINE",
"544 179 LINE",
"538 124 OFFCURVE",
"520 40 OFFCURVE",
"456 40 CURVE SMOOTH",
"201 40 LINE",
"201 659 LINE",
"441 659 LINE SMOOTH",
"516 659 OFFCURVE",
"525 567 OFFCURVE",
"528 527 CURVE",
"555 527 LINE",
"555 700 LINE",
"16 700 LINE",
"16 673 LINE",
"44 673 LINE SMOOTH",
"83 673 OFFCURVE",
"103 662 OFFCURVE",
"103 637 CURVE SMOOTH",
"103 62 LINE SMOOTH",
"103 37 OFFCURVE",
"83 26 OFFCURVE",
"44 26 CURVE SMOOTH",
"16 26 LINE",
"16 0 LINE"
);
},
{
closed = 1;
nodes = (
"455 251 LINE",
"455 485 LINE",
"431 485 LINE",
"427 436 OFFCURVE",
"424 388 OFFCURVE",
"379 388 CURVE SMOOTH",
"162 388 LINE",
"162 348 LINE",
"379 348 LINE SMOOTH",
"424 348 OFFCURVE",
"427 300 OFFCURVE",
"431 251 CURVE"
);
},
{
closed = 1;
nodes = (
"432 776 OFFCURVE",
"474 832 OFFCURVE",
"478 907 CURVE",
"445 907 LINE",
"439 848 OFFCURVE",
"397 822 OFFCURVE",
"333 822 CURVE SMOOTH",
"269 822 OFFCURVE",
"226 848 OFFCURVE",
"219 907 CURVE",
"186 907 LINE",
"190 829 OFFCURVE",
"232 776 OFFCURVE",
"333 776 CURVE SMOOTH"
);
}
);
};
components = (
{
name = E;
},
{
name = brevecomb;
transform = "{1, 0, 0, 1, 309, 230}";
}
);
layerId = "D810D4E0-5EEA-4CB0-897C-7C2F2D158137";
width = 621;
},
{
background = {
paths = (
{
closed = 1;
nodes = (
"554 0 LINE",
"571 179 LINE",
"544 179 LINE",
"538 124 OFFCURVE",
"520 40 OFFCURVE",
"456 40 CURVE SMOOTH",
"201 40 LINE",
"201 659 LINE",
"441 659 LINE SMOOTH",
"516 659 OFFCURVE",
"525 567 OFFCURVE",
"528 527 CURVE",
"555 527 LINE",
"555 700 LINE",
"16 700 LINE",
"16 673 LINE",
"44 673 LINE SMOOTH",
"83 673 OFFCURVE",
"103 662 OFFCURVE",
"103 637 CURVE SMOOTH",
"103 62 LINE SMOOTH",
"103 37 OFFCURVE",
"83 26 OFFCURVE",
"44 26 CURVE SMOOTH",
"16 26 LINE",
"16 0 LINE"
);
},
{
closed = 1;
nodes = (
"455 251 LINE",
"455 485 LINE",
"431 485 LINE",
"427 436 OFFCURVE",
"424 388 OFFCURVE",
"379 388 CURVE SMOOTH",
"162 388 LINE",
"162 348 LINE",
"379 348 LINE SMOOTH",
"424 348 OFFCURVE",
"427 300 OFFCURVE",
"431 251 CURVE"
);
},
{
closed = 1;
nodes = (
"432 776 OFFCURVE",
"474 832 OFFCURVE",
"478 907 CURVE",
"445 907 LINE",
"439 848 OFFCURVE",
"397 822 OFFCURVE",
"333 822 CURVE SMOOTH",
"269 822 OFFCURVE",
"226 848 OFFCURVE",
"219 907 CURVE",
"186 907 LINE",
"190 829 OFFCURVE",
"232 776 OFFCURVE",
"333 776 CURVE SMOOTH"
);
}
);
};
components = (
{
name = E;
},
{
name = brevecomb;
transform = "{1, 0, 0, 1, 351, 230}";
}
);
layerId = "FBA9A202-A695-4A56-B536-8E03A4D5E61C";
width = 631;
},
{
components = (
{
name = E;
},
{
name = brevecomb;
transform = "{1, 0, 0, 1, 352, 230}";
}
);
layerId = "92CE152A-AC33-4332-A899-C7DC9B2DD026";
width = 626;
},
{
background = {
paths = (
{
closed = 1;
nodes = (
"554 0 LINE",
"571 179 LINE",
"544 179 LINE",
"538 124 OFFCURVE",
"520 40 OFFCURVE",
"456 40 CURVE SMOOTH",
"201 40 LINE",
"201 659 LINE",
"441 659 LINE SMOOTH",
"516 659 OFFCURVE",
"525 567 OFFCURVE",
"528 527 CURVE",
"555 527 LINE",
"555 700 LINE",
"16 700 LINE",
"16 673 LINE",
"44 673 LINE SMOOTH",
"83 673 OFFCURVE",
"103 662 OFFCURVE",
"103 637 CURVE SMOOTH",
"103 62 LINE SMOOTH",
"103 37 OFFCURVE",
"83 26 OFFCURVE",
"44 26 CURVE SMOOTH",
"16 26 LINE",
"16 0 LINE"
);
},
{
closed = 1;
nodes = (
"455 251 LINE",
"455 485 LINE",
"431 485 LINE",
"427 436 OFFCURVE",
"424 388 OFFCURVE",
"379 388 CURVE SMOOTH",
"162 388 LINE",
"162 348 LINE",
"379 348 LINE SMOOTH",
"424 348 OFFCURVE",
"427 300 OFFCURVE",
"431 251 CURVE"
);
},
{
closed = 1;
nodes = (
"432 776 OFFCURVE",
"474 832 OFFCURVE",
"478 907 CURVE",
"445 907 LINE",
"439 848 OFFCURVE",
"397 822 OFFCURVE",
"333 822 CURVE SMOOTH",
"269 822 OFFCURVE",
"226 848 OFFCURVE",
"219 907 CURVE",
"186 907 LINE",
"190 829 OFFCURVE",
"232 776 OFFCURVE",
"333 776 CURVE SMOOTH"
);
}
);
};
components = (
{
name = E;
},
{
name = brevecomb;
transform = "{1, 0, 0, 1, 350, 230}";
}
);
layerId = "8FB96992-DBAA-412F-B62D-2E73CBD2FD04";
width = 621;
}
);
note = Ebreve;
rightKerningGroup = E;
unicode = 0114;
},
{
glyphname = Ecaron;
lastChange = "2018-07-08 13:47:22 +0000";
layers = (
{
background = {
paths = (
{
closed = 1;
nodes = (
"554 0 LINE",
"571 179 LINE",
"544 179 LINE",
"538 124 OFFCURVE",
"520 40 OFFCURVE",
"456 40 CURVE SMOOTH",
"201 40 LINE",
"201 659 LINE",
"441 659 LINE SMOOTH",
"516 659 OFFCURVE",
"525 567 OFFCURVE",
"528 527 CURVE",
"555 527 LINE",
"555 700 LINE",
"16 700 LINE",
"16 673 LINE",
"44 673 LINE SMOOTH",
"83 673 OFFCURVE",
"103 662 OFFCURVE",
"103 637 CURVE SMOOTH",
"103 62 LINE SMOOTH",
"103 37 OFFCURVE",
"83 26 OFFCURVE",
"44 26 CURVE SMOOTH",
"16 26 LINE",
"16 0 LINE"
);
},
{
closed = 1;
nodes = (
"455 251 LINE",
"455 485 LINE",
"431 485 LINE",
"427 436 OFFCURVE",
"424 388 OFFCURVE",
"379 388 CURVE SMOOTH",
"162 388 LINE",
"162 348 LINE",
"379 348 LINE SMOOTH",
"424 348 OFFCURVE",
"427 300 OFFCURVE",
"431 251 CURVE"
);
},
{
closed = 1;
nodes = (
"357 782 LINE",
"481 911 LINE",
"462 932 LINE",
"354 847 LINE",
"346 840 OFFCURVE",
"337 836 OFFCURVE",
"331 836 CURVE SMOOTH",
"325 836 OFFCURVE",
"317 840 OFFCURVE",
"307 847 CURVE",
"199 932 LINE",
"180 911 LINE",
"304 782 LINE"
);
}
);
};
components = (
{
name = E;
},
{
name = caroncomb;
transform = "{1, 0, 0, 1, 310, 230}";
}
);
layerId = "671CEF0C-3804-4AAB-8F09-7652EF8CF253";
width = 631;
},
{
components = (
{
name = E;
},
{
name = caroncomb;
transform = "{1, 0, 0, 1, 311, 230}";
}
);
layerId = "467B800A-9F0B-4EDA-B6B6-3D16CD953827";
width = 626;
},
{
background = {
paths = (
{
closed = 1;
nodes = (
"554 0 LINE",
"571 179 LINE",
"544 179 LINE",
"538 124 OFFCURVE",
"520 40 OFFCURVE",
"456 40 CURVE SMOOTH",
"201 40 LINE",
"201 659 LINE",
"441 659 LINE SMOOTH",
"516 659 OFFCURVE",
"525 567 OFFCURVE",
"528 527 CURVE",
"555 527 LINE",
"555 700 LINE",
"16 700 LINE",
"16 673 LINE",
"44 673 LINE SMOOTH",
"83 673 OFFCURVE",
"103 662 OFFCURVE",
"103 637 CURVE SMOOTH",
"103 62 LINE SMOOTH",
"103 37 OFFCURVE",
"83 26 OFFCURVE",
"44 26 CURVE SMOOTH",
"16 26 LINE",
"16 0 LINE"
);
},
{
closed = 1;
nodes = (
"455 251 LINE",
"455 485 LINE",
"431 485 LINE",
"427 436 OFFCURVE",
"424 388 OFFCURVE",
"379 388 CURVE SMOOTH",
"162 388 LINE",
"162 348 LINE",
"379 348 LINE SMOOTH",
"424 348 OFFCURVE",
"427 300 OFFCURVE",
"431 251 CURVE"
);
},
{
closed = 1;
nodes = (
"357 782 LINE",
"481 911 LINE",
"462 932 LINE",
"354 847 LINE",
"346 840 OFFCURVE",
"337 836 OFFCURVE",
"331 836 CURVE SMOOTH",
"325 836 OFFCURVE",
"317 840 OFFCURVE",
"307 847 CURVE",
"199 932 LINE",
"180 911 LINE",
"304 782 LINE"
);
}
);
};
components = (
{
name = E;
},
{
name = caroncomb;
transform = "{1, 0, 0, 1, 309, 230}";
}
);
layerId = "D810D4E0-5EEA-4CB0-897C-7C2F2D158137";
width = 621;
},
{
background = {
paths = (
{
closed = 1;
nodes = (
"554 0 LINE",
"571 179 LINE",
"544 179 LINE",
"538 124 OFFCURVE",
"520 40 OFFCURVE",
"456 40 CURVE SMOOTH",
"201 40 LINE",
"201 659 LINE",
"441 659 LINE SMOOTH",
"516 659 OFFCURVE",
"525 567 OFFCURVE",
"528 527 CURVE",
"555 527 LINE",
"555 700 LINE",
"16 700 LINE",
"16 673 LINE",
"44 673 LINE SMOOTH",
"83 673 OFFCURVE",
"103 662 OFFCURVE",
"103 637 CURVE SMOOTH",
"103 62 LINE SMOOTH",
"103 37 OFFCURVE",
"83 26 OFFCURVE",
"44 26 CURVE SMOOTH",
"16 26 LINE",
"16 0 LINE"
);
},
{
closed = 1;
nodes = (
"455 251 LINE",
"455 485 LINE",
"431 485 LINE",
"427 436 OFFCURVE",
"424 388 OFFCURVE",
"379 388 CURVE SMOOTH",
"162 388 LINE",
"162 348 LINE",
"379 348 LINE SMOOTH",
"424 348 OFFCURVE",
"427 300 OFFCURVE",
"431 251 CURVE"
);
},
{
closed = 1;
nodes = (
"357 782 LINE",
"481 911 LINE",
"462 932 LINE",
"354 847 LINE",
"346 840 OFFCURVE",
"337 836 OFFCURVE",
"331 836 CURVE SMOOTH",
"325 836 OFFCURVE",
"317 840 OFFCURVE",
"307 847 CURVE",
"199 932 LINE",
"180 911 LINE",
"304 782 LINE"
);
}
);
};
components = (
{
name = E;
},
{
name = caroncomb;
transform = "{1, 0, 0, 1, 351, 230}";
}
);
layerId = "FBA9A202-A695-4A56-B536-8E03A4D5E61C";
width = 631;
},
{
components = (
{
name = E;
},
{
name = caroncomb;
transform = "{1, 0, 0, 1, 352, 230}";
}
);
layerId = "92CE152A-AC33-4332-A899-C7DC9B2DD026";
width = 626;
},
{
background = {
paths = (
{
closed = 1;
nodes = (
"554 0 LINE",
"571 179 LINE",
"544 179 LINE",
"538 124 OFFCURVE",
"520 40 OFFCURVE",
"456 40 CURVE SMOOTH",
"201 40 LINE",
"201 659 LINE",
"441 659 LINE SMOOTH",
"516 659 OFFCURVE",
"525 567 OFFCURVE",
"528 527 CURVE",
"555 527 LINE",
"555 700 LINE",
"16 700 LINE",
"16 673 LINE",
"44 673 LINE SMOOTH",
"83 673 OFFCURVE",
"103 662 OFFCURVE",
"103 637 CURVE SMOOTH",
"103 62 LINE SMOOTH",
"103 37 OFFCURVE",
"83 26 OFFCURVE",
"44 26 CURVE SMOOTH",
"16 26 LINE",
"16 0 LINE"
);
},
{
closed = 1;
nodes = (
"455 251 LINE",
"455 485 LINE",
"431 485 LINE",
"427 436 OFFCURVE",
"424 388 OFFCURVE",
"379 388 CURVE SMOOTH",
"162 388 LINE",
"162 348 LINE",
"379 348 LINE SMOOTH",
"424 348 OFFCURVE",
"427 300 OFFCURVE",
"431 251 CURVE"
);
},
{
closed = 1;
nodes = (
"357 782 LINE",
"481 911 LINE",
"462 932 LINE",
"354 847 LINE",
"346 840 OFFCURVE",
"337 836 OFFCURVE",
"331 836 CURVE SMOOTH",
"325 836 OFFCURVE",
"317 840 OFFCURVE",
"307 847 CURVE",
"199 932 LINE",
"180 911 LINE",
"304 782 LINE"
);
}
);
};
components = (
{
name = E;
},
{
name = caroncomb;
transform = "{1, 0, 0, 1, 350, 230}";
}
);
layerId = "8FB96992-DBAA-412F-B62D-2E73CBD2FD04";
width = 621;
}
);
note = Ecaron;
rightKerningGroup = E;
unicode = 011A;
},
{
glyphname = Ecircumflex;
lastChange = "2018-07-08 13:47:22 +0000";
layers = (
{
background = {
paths = (
{
closed = 1;
nodes = (
"554 0 LINE",
"571 179 LINE",
"544 179 LINE",
"538 124 OFFCURVE",
"520 40 OFFCURVE",
"456 40 CURVE SMOOTH",
"201 40 LINE",
"201 659 LINE",
"441 659 LINE SMOOTH",
"516 659 OFFCURVE",
"525 567 OFFCURVE",
"528 527 CURVE",
"555 527 LINE",
"555 700 LINE",
"16 700 LINE",
"16 673 LINE",
"44 673 LINE SMOOTH",
"83 673 OFFCURVE",
"103 662 OFFCURVE",
"103 637 CURVE SMOOTH",
"103 62 LINE SMOOTH",
"103 37 OFFCURVE",
"83 26 OFFCURVE",
"44 26 CURVE SMOOTH",
"16 26 LINE",
"16 0 LINE"
);
},
{
closed = 1;
nodes = (
"455 251 LINE",
"455 485 LINE",
"431 485 LINE",
"427 436 OFFCURVE",
"424 388 OFFCURVE",
"379 388 CURVE SMOOTH",
"162 388 LINE",
"162 348 LINE",
"379 348 LINE SMOOTH",
"424 348 OFFCURVE",
"427 300 OFFCURVE",
"431 251 CURVE"
);
},
{
closed = 1;
nodes = (
"304 868 LINE SMOOTH",
"312 874 OFFCURVE",
"322 879 OFFCURVE",
"328 879 CURVE SMOOTH",
"334 879 OFFCURVE",
"342 874 OFFCURVE",
"351 868 CURVE",
"459 782 LINE",
"478 803 LINE",
"354 932 LINE",
"301 932 LINE",
"177 803 LINE",
"196 782 LINE"
);
}
);
};
components = (
{
name = E;
},
{
name = circumflexcomb;
transform = "{1, 0, 0, 1, 310, 230}";
}
);
layerId = "671CEF0C-3804-4AAB-8F09-7652EF8CF253";
width = 631;
},
{
components = (
{
name = E;
},
{
name = circumflexcomb;
transform = "{1, 0, 0, 1, 311, 230}";
}
);
layerId = "467B800A-9F0B-4EDA-B6B6-3D16CD953827";
width = 626;
},
{
background = {
paths = (
{
closed = 1;
nodes = (
"554 0 LINE",
"571 179 LINE",
"544 179 LINE",
"538 124 OFFCURVE",
"520 40 OFFCURVE",
"456 40 CURVE SMOOTH",
"201 40 LINE",
"201 659 LINE",
"441 659 LINE SMOOTH",
"516 659 OFFCURVE",
"525 567 OFFCURVE",
"528 527 CURVE",
"555 527 LINE",
"555 700 LINE",
"16 700 LINE",
"16 673 LINE",
"44 673 LINE SMOOTH",
"83 673 OFFCURVE",
"103 662 OFFCURVE",
"103 637 CURVE SMOOTH",
"103 62 LINE SMOOTH",
"103 37 OFFCURVE",
"83 26 OFFCURVE",
"44 26 CURVE SMOOTH",
"16 26 LINE",
"16 0 LINE"
);
},
{
closed = 1;
nodes = (
"455 251 LINE",
"455 485 LINE",
"431 485 LINE",
"427 436 OFFCURVE",
"424 388 OFFCURVE",
"379 388 CURVE SMOOTH",
"162 388 LINE",
"162 348 LINE",
"379 348 LINE SMOOTH",
"424 348 OFFCURVE",
"427 300 OFFCURVE",
"431 251 CURVE"
);
},
{
closed = 1;
nodes = (
"304 868 LINE SMOOTH",
"312 874 OFFCURVE",
"322 879 OFFCURVE",
"328 879 CURVE SMOOTH",
"334 879 OFFCURVE",
"342 874 OFFCURVE",
"351 868 CURVE",
"459 782 LINE",
"478 803 LINE",
"354 932 LINE",
"301 932 LINE",
"177 803 LINE",
"196 782 LINE"
);
}
);
};
components = (
{
name = E;
},
{
name = circumflexcomb;
transform = "{1, 0, 0, 1, 309, 230}";
}
);
layerId = "D810D4E0-5EEA-4CB0-897C-7C2F2D158137";
width = 621;
},
{
background = {
paths = (
{
closed = 1;
nodes = (
"554 0 LINE",
"571 179 LINE",
"544 179 LINE",
"538 124 OFFCURVE",
"520 40 OFFCURVE",
"456 40 CURVE SMOOTH",
"201 40 LINE",
"201 659 LINE",
"441 659 LINE SMOOTH",
"516 659 OFFCURVE",
"525 567 OFFCURVE",
"528 527 CURVE",
"555 527 LINE",
"555 700 LINE",
"16 700 LINE",
"16 673 LINE",
"44 673 LINE SMOOTH",
"83 673 OFFCURVE",
"103 662 OFFCURVE",
"103 637 CURVE SMOOTH",
"103 62 LINE SMOOTH",
"103 37 OFFCURVE",
"83 26 OFFCURVE",
"44 26 CURVE SMOOTH",
"16 26 LINE",
"16 0 LINE"
);
},
{
closed = 1;
nodes = (
"455 251 LINE",
"455 485 LINE",
"431 485 LINE",
"427 436 OFFCURVE",
"424 388 OFFCURVE",
"379 388 CURVE SMOOTH",
"162 388 LINE",
"162 348 LINE",
"379 348 LINE SMOOTH",
"424 348 OFFCURVE",
"427 300 OFFCURVE",
"431 251 CURVE"
);
},
{
closed = 1;
nodes = (
"304 868 LINE SMOOTH",
"312 874 OFFCURVE",
"322 879 OFFCURVE",
"328 879 CURVE SMOOTH",
"334 879 OFFCURVE",
"342 874 OFFCURVE",
"351 868 CURVE",
"459 782 LINE",
"478 803 LINE",
"354 932 LINE",
"301 932 LINE",
"177 803 LINE",
"196 782 LINE"
);
}
);
};
components = (
{
name = E;
},
{
name = circumflexcomb;
transform = "{1, 0, 0, 1, 351, 230}";
}
);
layerId = "FBA9A202-A695-4A56-B536-8E03A4D5E61C";
width = 631;
},
{
components = (
{
name = E;
},
{
name = circumflexcomb;
transform = "{1, 0, 0, 1, 352, 230}";
}
);
layerId = "92CE152A-AC33-4332-A899-C7DC9B2DD026";
width = 626;
},
{
background = {
paths = (
{
closed = 1;
nodes = (
"554 0 LINE",
"571 179 LINE",
"544 179 LINE",
"538 124 OFFCURVE",
"520 40 OFFCURVE",
"456 40 CURVE SMOOTH",
"201 40 LINE",
"201 659 LINE",
"441 659 LINE SMOOTH",
"516 659 OFFCURVE",
"525 567 OFFCURVE",
"528 527 CURVE",
"555 527 LINE",
"555 700 LINE",
"16 700 LINE",
"16 673 LINE",
"44 673 LINE SMOOTH",
"83 673 OFFCURVE",
"103 662 OFFCURVE",
"103 637 CURVE SMOOTH",
"103 62 LINE SMOOTH",
"103 37 OFFCURVE",
"83 26 OFFCURVE",
"44 26 CURVE SMOOTH",
"16 26 LINE",
"16 0 LINE"
);
},
{
closed = 1;
nodes = (
"455 251 LINE",
"455 485 LINE",
"431 485 LINE",
"427 436 OFFCURVE",
"424 388 OFFCURVE",
"379 388 CURVE SMOOTH",
"162 388 LINE",
"162 348 LINE",
"379 348 LINE SMOOTH",
"424 348 OFFCURVE",
"427 300 OFFCURVE",
"431 251 CURVE"
);
},
{
closed = 1;
nodes = (
"304 868 LINE SMOOTH",
"312 874 OFFCURVE",
"322 879 OFFCURVE",
"328 879 CURVE SMOOTH",
"334 879 OFFCURVE",
"342 874 OFFCURVE",
"351 868 CURVE",
"459 782 LINE",
"478 803 LINE",
"354 932 LINE",
"301 932 LINE",
"177 803 LINE",
"196 782 LINE"
);
}
);
};
components = (
{
name = E;
},
{
name = circumflexcomb;
transform = "{1, 0, 0, 1, 350, 230}";
}
);
layerId = "8FB96992-DBAA-412F-B62D-2E73CBD2FD04";
width = 621;
}
);
note = Ecircumflex;
rightKerningGroup = E;
unicode = 00CA;
},
{
glyphname = Ecircumflexacute;
lastChange = "2018-07-08 08:32:23 +0000";
layers = (
{
background = {
paths = (
{
closed = 1;
nodes = (
"554 0 LINE",
"571 179 LINE",
"544 179 LINE",
"538 124 OFFCURVE",
"520 40 OFFCURVE",
"456 40 CURVE SMOOTH",
"201 40 LINE",
"201 659 LINE",
"441 659 LINE SMOOTH",
"516 659 OFFCURVE",
"525 567 OFFCURVE",
"528 527 CURVE",
"555 527 LINE",
"555 700 LINE",
"16 700 LINE",
"16 673 LINE",
"44 673 LINE SMOOTH",
"83 673 OFFCURVE",
"103 662 OFFCURVE",
"103 637 CURVE SMOOTH",
"103 62 LINE SMOOTH",
"103 37 OFFCURVE",
"83 26 OFFCURVE",
"44 26 CURVE SMOOTH",
"16 26 LINE",
"16 0 LINE"
);
},
{
closed = 1;
nodes = (
"455 251 LINE",
"455 485 LINE",
"431 485 LINE",
"427 436 OFFCURVE",
"424 388 OFFCURVE",
"379 388 CURVE SMOOTH",
"162 388 LINE",
"162 348 LINE",
"379 348 LINE SMOOTH",
"424 348 OFFCURVE",
"427 300 OFFCURVE",
"431 251 CURVE"
);
},
{
closed = 1;
nodes = (
"290 862 LINE SMOOTH",
"300 870 OFFCURVE",
"310 878 OFFCURVE",
"318 878 CURVE SMOOTH",
"324 878 OFFCURVE",
"332 873 OFFCURVE",
"341 867 CURVE",
"447 781 LINE",
"466 803 LINE",
"344 932 LINE",
"293 932 LINE",
"171 803 LINE",
"189 781 LINE"
);
},
{
closed = 1;
nodes = (
"555 960 LINE SMOOTH",
"578 972 OFFCURVE",
"591 988 OFFCURVE",
"591 1003 CURVE SMOOTH",
"591 1017 OFFCURVE",
"580 1034 OFFCURVE",
"557 1034 CURVE SMOOTH",
"538 1034 OFFCURVE",
"521 1018 OFFCURVE",
"511 1008 CURVE SMOOTH",
"415 915 LINE",
"433 893 LINE"
);
}
);
};
components = (
{
name = E;
},
{
name = circumflex_acute;
transform = "{1, 0, 0, 1, 69, 230}";
}
);
layerId = "671CEF0C-3804-4AAB-8F09-7652EF8CF253";
width = 631;
},
{
components = (
{
name = E;
},
{
name = circumflex_acute;
transform = "{1, 0, 0, 1, 95, 230}";
}
);
layerId = "467B800A-9F0B-4EDA-B6B6-3D16CD953827";
width = 626;
},
{
background = {
paths = (
{
closed = 1;
nodes = (
"554 0 LINE",
"571 179 LINE",
"544 179 LINE",
"538 124 OFFCURVE",
"520 40 OFFCURVE",
"456 40 CURVE SMOOTH",
"201 40 LINE",
"201 659 LINE",
"441 659 LINE SMOOTH",
"516 659 OFFCURVE",
"525 567 OFFCURVE",
"528 527 CURVE",
"555 527 LINE",
"555 700 LINE",
"16 700 LINE",
"16 673 LINE",
"44 673 LINE SMOOTH",
"83 673 OFFCURVE",
"103 662 OFFCURVE",
"103 637 CURVE SMOOTH",
"103 62 LINE SMOOTH",
"103 37 OFFCURVE",
"83 26 OFFCURVE",
"44 26 CURVE SMOOTH",
"16 26 LINE",
"16 0 LINE"
);
},
{
closed = 1;
nodes = (
"455 251 LINE",
"455 485 LINE",
"431 485 LINE",
"427 436 OFFCURVE",
"424 388 OFFCURVE",
"379 388 CURVE SMOOTH",
"162 388 LINE",
"162 348 LINE",
"379 348 LINE SMOOTH",
"424 348 OFFCURVE",
"427 300 OFFCURVE",
"431 251 CURVE"
);
},
{
closed = 1;
nodes = (
"290 862 LINE SMOOTH",
"300 870 OFFCURVE",
"310 878 OFFCURVE",
"318 878 CURVE SMOOTH",
"324 878 OFFCURVE",
"332 873 OFFCURVE",
"341 867 CURVE",
"447 781 LINE",
"466 803 LINE",
"344 932 LINE",
"293 932 LINE",
"171 803 LINE",
"189 781 LINE"
);
},
{
closed = 1;
nodes = (
"555 960 LINE SMOOTH",
"578 972 OFFCURVE",
"591 988 OFFCURVE",
"591 1003 CURVE SMOOTH",
"591 1017 OFFCURVE",
"580 1034 OFFCURVE",
"557 1034 CURVE SMOOTH",
"538 1034 OFFCURVE",
"521 1018 OFFCURVE",
"511 1008 CURVE SMOOTH",
"415 915 LINE",
"433 893 LINE"
);
}
);
};
components = (
{
name = E;
},
{
name = circumflex_acute;
transform = "{1, 0, 0, 1, 111, 230}";
}
);
layerId = "D810D4E0-5EEA-4CB0-897C-7C2F2D158137";
width = 621;
},
{
background = {
paths = (
{
closed = 1;
nodes = (
"554 0 LINE",
"571 179 LINE",
"544 179 LINE",
"538 124 OFFCURVE",
"520 40 OFFCURVE",
"456 40 CURVE SMOOTH",
"201 40 LINE",
"201 659 LINE",
"441 659 LINE SMOOTH",
"516 659 OFFCURVE",
"525 567 OFFCURVE",
"528 527 CURVE",
"555 527 LINE",
"555 700 LINE",
"16 700 LINE",
"16 673 LINE",
"44 673 LINE SMOOTH",
"83 673 OFFCURVE",
"103 662 OFFCURVE",
"103 637 CURVE SMOOTH",
"103 62 LINE SMOOTH",
"103 37 OFFCURVE",
"83 26 OFFCURVE",
"44 26 CURVE SMOOTH",
"16 26 LINE",
"16 0 LINE"
);
},
{
closed = 1;
nodes = (
"455 251 LINE",
"455 485 LINE",
"431 485 LINE",
"427 436 OFFCURVE",
"424 388 OFFCURVE",
"379 388 CURVE SMOOTH",
"162 388 LINE",
"162 348 LINE",
"379 348 LINE SMOOTH",
"424 348 OFFCURVE",
"427 300 OFFCURVE",
"431 251 CURVE"
);
},
{
closed = 1;
nodes = (
"290 862 LINE SMOOTH",
"300 870 OFFCURVE",
"310 878 OFFCURVE",
"318 878 CURVE SMOOTH",
"324 878 OFFCURVE",
"332 873 OFFCURVE",
"341 867 CURVE",
"447 781 LINE",
"466 803 LINE",
"344 932 LINE",
"293 932 LINE",
"171 803 LINE",
"189 781 LINE"
);
},
{
closed = 1;
nodes = (
"555 960 LINE SMOOTH",
"578 972 OFFCURVE",
"591 988 OFFCURVE",
"591 1003 CURVE SMOOTH",
"591 1017 OFFCURVE",
"580 1034 OFFCURVE",
"557 1034 CURVE SMOOTH",
"538 1034 OFFCURVE",
"521 1018 OFFCURVE",
"511 1008 CURVE SMOOTH",
"415 915 LINE",
"433 893 LINE"
);
}
);
};
components = (
{
name = E;
},
{
name = circumflex_acute;
transform = "{1, 0, 0, 1, 110, 230}";
}
);
layerId = "FBA9A202-A695-4A56-B536-8E03A4D5E61C";
width = 631;
},
{
components = (
{
name = E;
},
{
name = circumflex_acute;
transform = "{1, 0, 0, 1, 136, 230}";
}
);
layerId = "92CE152A-AC33-4332-A899-C7DC9B2DD026";
width = 626;
},
{
background = {
paths = (
{
closed = 1;
nodes = (
"554 0 LINE",
"571 179 LINE",
"544 179 LINE",
"538 124 OFFCURVE",
"520 40 OFFCURVE",
"456 40 CURVE SMOOTH",
"201 40 LINE",
"201 659 LINE",
"441 659 LINE SMOOTH",
"516 659 OFFCURVE",
"525 567 OFFCURVE",
"528 527 CURVE",
"555 527 LINE",
"555 700 LINE",
"16 700 LINE",
"16 673 LINE",
"44 673 LINE SMOOTH",
"83 673 OFFCURVE",
"103 662 OFFCURVE",
"103 637 CURVE SMOOTH",
"103 62 LINE SMOOTH",
"103 37 OFFCURVE",
"83 26 OFFCURVE",
"44 26 CURVE SMOOTH",
"16 26 LINE",
"16 0 LINE"
);
},
{
closed = 1;
nodes = (
"455 251 LINE",
"455 485 LINE",
"431 485 LINE",
"427 436 OFFCURVE",
"424 388 OFFCURVE",
"379 388 CURVE SMOOTH",
"162 388 LINE",
"162 348 LINE",
"379 348 LINE SMOOTH",
"424 348 OFFCURVE",
"427 300 OFFCURVE",
"431 251 CURVE"
);
},
{
closed = 1;
nodes = (
"290 862 LINE SMOOTH",
"300 870 OFFCURVE",
"310 878 OFFCURVE",
"318 878 CURVE SMOOTH",
"324 878 OFFCURVE",
"332 873 OFFCURVE",
"341 867 CURVE",
"447 781 LINE",
"466 803 LINE",
"344 932 LINE",
"293 932 LINE",
"171 803 LINE",
"189 781 LINE"
);
},
{
closed = 1;
nodes = (
"555 960 LINE SMOOTH",
"578 972 OFFCURVE",
"591 988 OFFCURVE",
"591 1003 CURVE SMOOTH",
"591 1017 OFFCURVE",
"580 1034 OFFCURVE",
"557 1034 CURVE SMOOTH",
"538 1034 OFFCURVE",
"521 1018 OFFCURVE",
"511 1008 CURVE SMOOTH",
"415 915 LINE",
"433 893 LINE"
);
}
);
};
components = (
{
name = E;
},
{
name = circumflex_acute;
transform = "{1, 0, 0, 1, 152, 230}";
}
);
layerId = "8FB96992-DBAA-412F-B62D-2E73CBD2FD04";
width = 621;
}
);
note = Ecircumflexacute;
rightKerningGroup = E;
unicode = 1EBE;
},
{
glyphname = Ecircumflexdotbelow;
lastChange = "2018-07-08 13:47:22 +0000";
layers = (
{
background = {
paths = (
{
closed = 1;
nodes = (
"554 0 LINE",
"571 179 LINE",
"544 179 LINE",
"538 124 OFFCURVE",
"520 40 OFFCURVE",
"456 40 CURVE SMOOTH",
"201 40 LINE",
"201 659 LINE",
"441 659 LINE SMOOTH",
"516 659 OFFCURVE",
"525 567 OFFCURVE",
"528 527 CURVE",
"555 527 LINE",
"555 700 LINE",
"16 700 LINE",
"16 673 LINE",
"44 673 LINE SMOOTH",
"83 673 OFFCURVE",
"103 662 OFFCURVE",
"103 637 CURVE SMOOTH",
"103 62 LINE SMOOTH",
"103 37 OFFCURVE",
"83 26 OFFCURVE",
"44 26 CURVE SMOOTH",
"16 26 LINE",
"16 0 LINE"
);
},
{
closed = 1;
nodes = (
"350 -159 OFFCURVE",
"368 -140 OFFCURVE",
"368 -112 CURVE SMOOTH",
"368 -84 OFFCURVE",
"350 -64 OFFCURVE",
"322 -64 CURVE SMOOTH",
"294 -64 OFFCURVE",
"275 -84 OFFCURVE",
"275 -112 CURVE SMOOTH",
"275 -140 OFFCURVE",
"294 -159 OFFCURVE",
"322 -159 CURVE SMOOTH"
);
},
{
closed = 1;
nodes = (
"455 251 LINE",
"455 485 LINE",
"431 485 LINE",
"427 436 OFFCURVE",
"424 388 OFFCURVE",
"379 388 CURVE SMOOTH",
"162 388 LINE",
"162 348 LINE",
"379 348 LINE SMOOTH",
"424 348 OFFCURVE",
"427 300 OFFCURVE",
"431 251 CURVE"
);
},
{
closed = 1;
nodes = (
"294 868 LINE SMOOTH",
"302 874 OFFCURVE",
"312 879 OFFCURVE",
"318 879 CURVE SMOOTH",
"324 879 OFFCURVE",
"332 874 OFFCURVE",
"341 868 CURVE",
"449 782 LINE",
"468 803 LINE",
"344 932 LINE",
"291 932 LINE",
"167 803 LINE",
"186 782 LINE"
);
}
);
};
components = (
{
name = E;
},
{
name = dotbelowcomb;
transform = "{1, 0, 0, 1, 200, 0}";
},
{
name = circumflexcomb;
transform = "{1, 0, 0, 1, 310, 230}";
}
);
layerId = "671CEF0C-3804-4AAB-8F09-7652EF8CF253";
width = 631;
},
{
components = (
{
name = E;
},
{
name = dotbelowcomb;
transform = "{1, 0, 0, 1, 210, 0}";
},
{
name = circumflexcomb;
transform = "{1, 0, 0, 1, 311, 230}";
}
);
layerId = "467B800A-9F0B-4EDA-B6B6-3D16CD953827";
width = 626;
},
{
background = {
paths = (
{
closed = 1;
nodes = (
"554 0 LINE",
"571 179 LINE",
"544 179 LINE",
"538 124 OFFCURVE",
"520 40 OFFCURVE",
"456 40 CURVE SMOOTH",
"201 40 LINE",
"201 659 LINE",
"441 659 LINE SMOOTH",
"516 659 OFFCURVE",
"525 567 OFFCURVE",
"528 527 CURVE",
"555 527 LINE",
"555 700 LINE",
"16 700 LINE",
"16 673 LINE",
"44 673 LINE SMOOTH",
"83 673 OFFCURVE",
"103 662 OFFCURVE",
"103 637 CURVE SMOOTH",
"103 62 LINE SMOOTH",
"103 37 OFFCURVE",
"83 26 OFFCURVE",
"44 26 CURVE SMOOTH",
"16 26 LINE",
"16 0 LINE"
);
},
{
closed = 1;
nodes = (
"350 -159 OFFCURVE",
"368 -140 OFFCURVE",
"368 -112 CURVE SMOOTH",
"368 -84 OFFCURVE",
"350 -64 OFFCURVE",
"322 -64 CURVE SMOOTH",
"294 -64 OFFCURVE",
"275 -84 OFFCURVE",
"275 -112 CURVE SMOOTH",
"275 -140 OFFCURVE",
"294 -159 OFFCURVE",
"322 -159 CURVE SMOOTH"
);
},
{
closed = 1;
nodes = (
"455 251 LINE",
"455 485 LINE",
"431 485 LINE",
"427 436 OFFCURVE",
"424 388 OFFCURVE",
"379 388 CURVE SMOOTH",
"162 388 LINE",
"162 348 LINE",
"379 348 LINE SMOOTH",
"424 348 OFFCURVE",
"427 300 OFFCURVE",
"431 251 CURVE"
);
},
{
closed = 1;
nodes = (
"294 868 LINE SMOOTH",
"302 874 OFFCURVE",
"312 879 OFFCURVE",
"318 879 CURVE SMOOTH",
"324 879 OFFCURVE",
"332 874 OFFCURVE",
"341 868 CURVE",
"449 782 LINE",
"468 803 LINE",
"344 932 LINE",
"291 932 LINE",
"167 803 LINE",
"186 782 LINE"
);
}
);
};
components = (
{
name = E;
},
{
name = dotbelowcomb;
transform = "{1, 0, 0, 1, 215, 0}";
},
{
name = circumflexcomb;
transform = "{1, 0, 0, 1, 309, 230}";
}
);
layerId = "D810D4E0-5EEA-4CB0-897C-7C2F2D158137";
width = 621;
},
{
background = {
paths = (
{
closed = 1;
nodes = (
"554 0 LINE",
"571 179 LINE",
"544 179 LINE",
"538 124 OFFCURVE",
"520 40 OFFCURVE",
"456 40 CURVE SMOOTH",
"201 40 LINE",
"201 659 LINE",
"441 659 LINE SMOOTH",
"516 659 OFFCURVE",
"525 567 OFFCURVE",
"528 527 CURVE",
"555 527 LINE",
"555 700 LINE",
"16 700 LINE",
"16 673 LINE",
"44 673 LINE SMOOTH",
"83 673 OFFCURVE",
"103 662 OFFCURVE",
"103 637 CURVE SMOOTH",
"103 62 LINE SMOOTH",
"103 37 OFFCURVE",
"83 26 OFFCURVE",
"44 26 CURVE SMOOTH",
"16 26 LINE",
"16 0 LINE"
);
},
{
closed = 1;
nodes = (
"350 -159 OFFCURVE",
"368 -140 OFFCURVE",
"368 -112 CURVE SMOOTH",
"368 -84 OFFCURVE",
"350 -64 OFFCURVE",
"322 -64 CURVE SMOOTH",
"294 -64 OFFCURVE",
"275 -84 OFFCURVE",
"275 -112 CURVE SMOOTH",
"275 -140 OFFCURVE",
"294 -159 OFFCURVE",
"322 -159 CURVE SMOOTH"
);
},
{
closed = 1;
nodes = (
"455 251 LINE",
"455 485 LINE",
"431 485 LINE",
"427 436 OFFCURVE",
"424 388 OFFCURVE",
"379 388 CURVE SMOOTH",
"162 388 LINE",
"162 348 LINE",
"379 348 LINE SMOOTH",
"424 348 OFFCURVE",
"427 300 OFFCURVE",
"431 251 CURVE"
);
},
{
closed = 1;
nodes = (
"294 868 LINE SMOOTH",
"302 874 OFFCURVE",
"312 879 OFFCURVE",
"318 879 CURVE SMOOTH",
"324 879 OFFCURVE",
"332 874 OFFCURVE",
"341 868 CURVE",
"449 782 LINE",
"468 803 LINE",
"344 932 LINE",
"291 932 LINE",
"167 803 LINE",
"186 782 LINE"
);
}
);
};
components = (
{
name = E;
},
{
name = dotbelowcomb;
transform = "{1, 0, 0, 1, 200, 0}";
},
{
name = circumflexcomb;
transform = "{1, 0, 0, 1, 351, 230}";
}
);
layerId = "FBA9A202-A695-4A56-B536-8E03A4D5E61C";
width = 631;
},
{
components = (
{
name = E;
},
{
name = dotbelowcomb;
transform = "{1, 0, 0, 1, 210, 0}";
},
{
name = circumflexcomb;
transform = "{1, 0, 0, 1, 352, 230}";
}
);
layerId = "92CE152A-AC33-4332-A899-C7DC9B2DD026";
width = 626;
},
{
background = {
paths = (
{
closed = 1;
nodes = (
"554 0 LINE",
"571 179 LINE",
"544 179 LINE",
"538 124 OFFCURVE",
"520 40 OFFCURVE",
"456 40 CURVE SMOOTH",
"201 40 LINE",
"201 659 LINE",
"441 659 LINE SMOOTH",
"516 659 OFFCURVE",
"525 567 OFFCURVE",
"528 527 CURVE",
"555 527 LINE",
"555 700 LINE",
"16 700 LINE",
"16 673 LINE",
"44 673 LINE SMOOTH",
"83 673 OFFCURVE",
"103 662 OFFCURVE",
"103 637 CURVE SMOOTH",
"103 62 LINE SMOOTH",
"103 37 OFFCURVE",
"83 26 OFFCURVE",
"44 26 CURVE SMOOTH",
"16 26 LINE",
"16 0 LINE"
);
},
{
closed = 1;
nodes = (
"350 -159 OFFCURVE",
"368 -140 OFFCURVE",
"368 -112 CURVE SMOOTH",
"368 -84 OFFCURVE",
"350 -64 OFFCURVE",
"322 -64 CURVE SMOOTH",
"294 -64 OFFCURVE",
"275 -84 OFFCURVE",
"275 -112 CURVE SMOOTH",
"275 -140 OFFCURVE",
"294 -159 OFFCURVE",
"322 -159 CURVE SMOOTH"
);
},
{
closed = 1;
nodes = (
"455 251 LINE",
"455 485 LINE",
"431 485 LINE",
"427 436 OFFCURVE",
"424 388 OFFCURVE",
"379 388 CURVE SMOOTH",
"162 388 LINE",
"162 348 LINE",
"379 348 LINE SMOOTH",
"424 348 OFFCURVE",
"427 300 OFFCURVE",
"431 251 CURVE"
);
},
{
closed = 1;
nodes = (
"294 868 LINE SMOOTH",
"302 874 OFFCURVE",
"312 879 OFFCURVE",
"318 879 CURVE SMOOTH",
"324 879 OFFCURVE",
"332 874 OFFCURVE",
"341 868 CURVE",
"449 782 LINE",
"468 803 LINE",
"344 932 LINE",
"291 932 LINE",
"167 803 LINE",
"186 782 LINE"
);
}
);
};
components = (
{
name = E;
},
{
name = dotbelowcomb;
transform = "{1, 0, 0, 1, 215, 0}";
},
{
name = circumflexcomb;
transform = "{1, 0, 0, 1, 350, 230}";
}
);
layerId = "8FB96992-DBAA-412F-B62D-2E73CBD2FD04";
width = 621;
}
);
note = Ecircumflexdotbelow;
rightKerningGroup = E;
unicode = 1EC6;
},
{
glyphname = Ecircumflexgrave;
lastChange = "2018-07-08 08:32:23 +0000";
layers = (
{
background = {
paths = (
{
closed = 1;
nodes = (
"554 0 LINE",
"571 179 LINE",
"544 179 LINE",
"538 124 OFFCURVE",
"520 40 OFFCURVE",
"456 40 CURVE SMOOTH",
"201 40 LINE",
"201 659 LINE",
"441 659 LINE SMOOTH",
"516 659 OFFCURVE",
"525 567 OFFCURVE",
"528 527 CURVE",
"555 527 LINE",
"555 700 LINE",
"16 700 LINE",
"16 673 LINE",
"44 673 LINE SMOOTH",
"83 673 OFFCURVE",
"103 662 OFFCURVE",
"103 637 CURVE SMOOTH",
"103 62 LINE SMOOTH",
"103 37 OFFCURVE",
"83 26 OFFCURVE",
"44 26 CURVE SMOOTH",
"16 26 LINE",
"16 0 LINE"
);
},
{
closed = 1;
nodes = (
"455 251 LINE",
"455 485 LINE",
"431 485 LINE",
"427 436 OFFCURVE",
"424 388 OFFCURVE",
"379 388 CURVE SMOOTH",
"162 388 LINE",
"162 348 LINE",
"379 348 LINE SMOOTH",
"424 348 OFFCURVE",
"427 300 OFFCURVE",
"431 251 CURVE"
);
},
{
closed = 1;
nodes = (
"227 915 LINE",
"132 1008 LINE SMOOTH",
"122 1018 OFFCURVE",
"105 1034 OFFCURVE",
"85 1034 CURVE SMOOTH",
"63 1034 OFFCURVE",
"52 1017 OFFCURVE",
"52 1003 CURVE SMOOTH",
"52 988 OFFCURVE",
"65 972 OFFCURVE",
"88 960 CURVE SMOOTH",
"210 893 LINE"
);
},
{
closed = 1;
nodes = (
"290 862 LINE SMOOTH",
"300 870 OFFCURVE",
"310 878 OFFCURVE",
"318 878 CURVE SMOOTH",
"324 878 OFFCURVE",
"332 873 OFFCURVE",
"341 867 CURVE",
"447 781 LINE",
"466 803 LINE",
"344 932 LINE",
"293 932 LINE",
"171 803 LINE",
"189 781 LINE"
);
}
);
};
components = (
{
name = E;
},
{
name = circumflex_grave;
transform = "{1, 0, 0, 1, 69, 230}";
}
);
layerId = "671CEF0C-3804-4AAB-8F09-7652EF8CF253";
width = 631;
},
{
components = (
{
name = E;
},
{
name = circumflex_grave;
transform = "{1, 0, 0, 1, 95, 230}";
}
);
layerId = "467B800A-9F0B-4EDA-B6B6-3D16CD953827";
width = 626;
},
{
background = {
paths = (
{
closed = 1;
nodes = (
"554 0 LINE",
"571 179 LINE",
"544 179 LINE",
"538 124 OFFCURVE",
"520 40 OFFCURVE",
"456 40 CURVE SMOOTH",
"201 40 LINE",
"201 659 LINE",
"441 659 LINE SMOOTH",
"516 659 OFFCURVE",
"525 567 OFFCURVE",
"528 527 CURVE",
"555 527 LINE",
"555 700 LINE",
"16 700 LINE",
"16 673 LINE",
"44 673 LINE SMOOTH",
"83 673 OFFCURVE",
"103 662 OFFCURVE",
"103 637 CURVE SMOOTH",
"103 62 LINE SMOOTH",
"103 37 OFFCURVE",
"83 26 OFFCURVE",
"44 26 CURVE SMOOTH",
"16 26 LINE",
"16 0 LINE"
);
},
{
closed = 1;
nodes = (
"455 251 LINE",
"455 485 LINE",
"431 485 LINE",
"427 436 OFFCURVE",
"424 388 OFFCURVE",
"379 388 CURVE SMOOTH",
"162 388 LINE",
"162 348 LINE",
"379 348 LINE SMOOTH",
"424 348 OFFCURVE",
"427 300 OFFCURVE",
"431 251 CURVE"
);
},
{
closed = 1;
nodes = (
"227 915 LINE",
"132 1008 LINE SMOOTH",
"122 1018 OFFCURVE",
"105 1034 OFFCURVE",
"85 1034 CURVE SMOOTH",
"63 1034 OFFCURVE",
"52 1017 OFFCURVE",
"52 1003 CURVE SMOOTH",
"52 988 OFFCURVE",
"65 972 OFFCURVE",
"88 960 CURVE SMOOTH",
"210 893 LINE"
);
},
{
closed = 1;
nodes = (
"290 862 LINE SMOOTH",
"300 870 OFFCURVE",
"310 878 OFFCURVE",
"318 878 CURVE SMOOTH",
"324 878 OFFCURVE",
"332 873 OFFCURVE",
"341 867 CURVE",
"447 781 LINE",
"466 803 LINE",
"344 932 LINE",
"293 932 LINE",
"171 803 LINE",
"189 781 LINE"
);
}
);
};
components = (
{
name = E;
},
{
name = circumflex_grave;
transform = "{1, 0, 0, 1, 111, 230}";
}
);
layerId = "D810D4E0-5EEA-4CB0-897C-7C2F2D158137";
width = 621;
},
{
background = {
paths = (
{
closed = 1;
nodes = (
"554 0 LINE",
"571 179 LINE",
"544 179 LINE",
"538 124 OFFCURVE",
"520 40 OFFCURVE",
"456 40 CURVE SMOOTH",
"201 40 LINE",
"201 659 LINE",
"441 659 LINE SMOOTH",
"516 659 OFFCURVE",
"525 567 OFFCURVE",
"528 527 CURVE",
"555 527 LINE",
"555 700 LINE",
"16 700 LINE",
"16 673 LINE",
"44 673 LINE SMOOTH",
"83 673 OFFCURVE",
"103 662 OFFCURVE",
"103 637 CURVE SMOOTH",
"103 62 LINE SMOOTH",
"103 37 OFFCURVE",
"83 26 OFFCURVE",
"44 26 CURVE SMOOTH",
"16 26 LINE",
"16 0 LINE"
);
},
{
closed = 1;
nodes = (
"455 251 LINE",
"455 485 LINE",
"431 485 LINE",
"427 436 OFFCURVE",
"424 388 OFFCURVE",
"379 388 CURVE SMOOTH",
"162 388 LINE",
"162 348 LINE",
"379 348 LINE SMOOTH",
"424 348 OFFCURVE",
"427 300 OFFCURVE",
"431 251 CURVE"
);
},
{
closed = 1;
nodes = (
"227 915 LINE",
"132 1008 LINE SMOOTH",
"122 1018 OFFCURVE",
"105 1034 OFFCURVE",
"85 1034 CURVE SMOOTH",
"63 1034 OFFCURVE",
"52 1017 OFFCURVE",
"52 1003 CURVE SMOOTH",
"52 988 OFFCURVE",
"65 972 OFFCURVE",
"88 960 CURVE SMOOTH",
"210 893 LINE"
);
},
{
closed = 1;
nodes = (
"290 862 LINE SMOOTH",
"300 870 OFFCURVE",
"310 878 OFFCURVE",
"318 878 CURVE SMOOTH",
"324 878 OFFCURVE",
"332 873 OFFCURVE",
"341 867 CURVE",
"447 781 LINE",
"466 803 LINE",
"344 932 LINE",
"293 932 LINE",
"171 803 LINE",
"189 781 LINE"
);
}
);
};
components = (
{
name = E;
},
{
name = circumflex_grave;
transform = "{1, 0, 0, 1, 111, 230}";
}
);
layerId = "FBA9A202-A695-4A56-B536-8E03A4D5E61C";
width = 631;
},
{
components = (
{
name = E;
},
{
name = circumflex_grave;
transform = "{1, 0, 0, 1, 137, 230}";
}
);
layerId = "92CE152A-AC33-4332-A899-C7DC9B2DD026";
width = 626;
},
{
background = {
paths = (
{
closed = 1;
nodes = (
"554 0 LINE",
"571 179 LINE",
"544 179 LINE",
"538 124 OFFCURVE",
"520 40 OFFCURVE",
"456 40 CURVE SMOOTH",
"201 40 LINE",
"201 659 LINE",
"441 659 LINE SMOOTH",
"516 659 OFFCURVE",
"525 567 OFFCURVE",
"528 527 CURVE",
"555 527 LINE",
"555 700 LINE",
"16 700 LINE",
"16 673 LINE",
"44 673 LINE SMOOTH",
"83 673 OFFCURVE",
"103 662 OFFCURVE",
"103 637 CURVE SMOOTH",
"103 62 LINE SMOOTH",
"103 37 OFFCURVE",
"83 26 OFFCURVE",
"44 26 CURVE SMOOTH",
"16 26 LINE",
"16 0 LINE"
);
},
{
closed = 1;
nodes = (
"455 251 LINE",
"455 485 LINE",
"431 485 LINE",
"427 436 OFFCURVE",
"424 388 OFFCURVE",
"379 388 CURVE SMOOTH",
"162 388 LINE",
"162 348 LINE",
"379 348 LINE SMOOTH",
"424 348 OFFCURVE",
"427 300 OFFCURVE",
"431 251 CURVE"
);
},
{
closed = 1;
nodes = (
"227 915 LINE",
"132 1008 LINE SMOOTH",
"122 1018 OFFCURVE",
"105 1034 OFFCURVE",
"85 1034 CURVE SMOOTH",
"63 1034 OFFCURVE",
"52 1017 OFFCURVE",
"52 1003 CURVE SMOOTH",
"52 988 OFFCURVE",
"65 972 OFFCURVE",
"88 960 CURVE SMOOTH",
"210 893 LINE"
);
},
{
closed = 1;
nodes = (
"290 862 LINE SMOOTH",
"300 870 OFFCURVE",
"310 878 OFFCURVE",
"318 878 CURVE SMOOTH",
"324 878 OFFCURVE",
"332 873 OFFCURVE",
"341 867 CURVE",
"447 781 LINE",
"466 803 LINE",
"344 932 LINE",
"293 932 LINE",
"171 803 LINE",
"189 781 LINE"
);
}
);
};
components = (
{
name = E;
},
{
name = circumflex_grave;
transform = "{1, 0, 0, 1, 153, 230}";
}
);
layerId = "8FB96992-DBAA-412F-B62D-2E73CBD2FD04";
width = 621;
}
);
note = Ecircumflexgrave;
rightKerningGroup = E;
unicode = 1EC0;
},
{
glyphname = Ecircumflexhookabove;
lastChange = "2018-07-08 08:32:23 +0000";
layers = (
{
background = {
paths = (
{
closed = 1;
nodes = (
"554 0 LINE",
"571 179 LINE",
"544 179 LINE",
"538 124 OFFCURVE",
"520 40 OFFCURVE",
"456 40 CURVE SMOOTH",
"201 40 LINE",
"201 659 LINE",
"441 659 LINE SMOOTH",
"516 659 OFFCURVE",
"525 567 OFFCURVE",
"528 527 CURVE",
"555 527 LINE",
"555 700 LINE",
"16 700 LINE",
"16 673 LINE",
"44 673 LINE SMOOTH",
"83 673 OFFCURVE",
"103 662 OFFCURVE",
"103 637 CURVE SMOOTH",
"103 62 LINE SMOOTH",
"103 37 OFFCURVE",
"83 26 OFFCURVE",
"44 26 CURVE SMOOTH",
"16 26 LINE",
"16 0 LINE"
);
},
{
closed = 1;
nodes = (
"455 251 LINE",
"455 485 LINE",
"431 485 LINE",
"427 436 OFFCURVE",
"424 388 OFFCURVE",
"379 388 CURVE SMOOTH",
"162 388 LINE",
"162 348 LINE",
"379 348 LINE SMOOTH",
"424 348 OFFCURVE",
"427 300 OFFCURVE",
"431 251 CURVE"
);
},
{
closed = 1;
nodes = (
"286 858 LINE",
"297 868 OFFCURVE",
"309 878 OFFCURVE",
"318 878 CURVE SMOOTH",
"324 878 OFFCURVE",
"332 873 OFFCURVE",
"341 867 CURVE",
"447 781 LINE",
"466 803 LINE",
"344 932 LINE",
"293 932 LINE",
"171 803 LINE",
"189 781 LINE"
);
},
{
closed = 1;
nodes = (
"493 898 LINE",
"474 905 OFFCURVE",
"464 912 OFFCURVE",
"464 926 CURVE SMOOTH",
"464 954 OFFCURVE",
"544 965 OFFCURVE",
"544 1010 CURVE SMOOTH",
"544 1047 OFFCURVE",
"502 1063 OFFCURVE",
"460 1063 CURVE SMOOTH",
"429 1063 OFFCURVE",
"384 1053 OFFCURVE",
"384 1022 CURVE SMOOTH",
"384 1010 OFFCURVE",
"395 1001 OFFCURVE",
"405 1001 CURVE SMOOTH",
"434 1001 OFFCURVE",
"421 1040 OFFCURVE",
"464 1040 CURVE SMOOTH",
"483 1040 OFFCURVE",
"494 1028 OFFCURVE",
"494 1013 CURVE SMOOTH",
"494 973 OFFCURVE",
"421 965 OFFCURVE",
"421 925 CURVE SMOOTH",
"421 901 OFFCURVE",
"437 880 OFFCURVE",
"484 880 CURVE"
);
}
);
};
components = (
{
name = E;
},
{
name = circumflex_hookabove;
transform = "{1, 0, 0, 1, 69, 230}";
}
);
layerId = "671CEF0C-3804-4AAB-8F09-7652EF8CF253";
width = 631;
},
{
components = (
{
name = E;
},
{
name = circumflex_hookabove;
transform = "{1, 0, 0, 1, 95, 230}";
}
);
layerId = "467B800A-9F0B-4EDA-B6B6-3D16CD953827";
width = 626;
},
{
background = {
paths = (
{
closed = 1;
nodes = (
"554 0 LINE",
"571 179 LINE",
"544 179 LINE",
"538 124 OFFCURVE",
"520 40 OFFCURVE",
"456 40 CURVE SMOOTH",
"201 40 LINE",
"201 659 LINE",
"441 659 LINE SMOOTH",
"516 659 OFFCURVE",
"525 567 OFFCURVE",
"528 527 CURVE",
"555 527 LINE",
"555 700 LINE",
"16 700 LINE",
"16 673 LINE",
"44 673 LINE SMOOTH",
"83 673 OFFCURVE",
"103 662 OFFCURVE",
"103 637 CURVE SMOOTH",
"103 62 LINE SMOOTH",
"103 37 OFFCURVE",
"83 26 OFFCURVE",
"44 26 CURVE SMOOTH",
"16 26 LINE",
"16 0 LINE"
);
},
{
closed = 1;
nodes = (
"455 251 LINE",
"455 485 LINE",
"431 485 LINE",
"427 436 OFFCURVE",
"424 388 OFFCURVE",
"379 388 CURVE SMOOTH",
"162 388 LINE",
"162 348 LINE",
"379 348 LINE SMOOTH",
"424 348 OFFCURVE",
"427 300 OFFCURVE",
"431 251 CURVE"
);
},
{
closed = 1;
nodes = (
"286 858 LINE",
"297 868 OFFCURVE",
"309 878 OFFCURVE",
"318 878 CURVE SMOOTH",
"324 878 OFFCURVE",
"332 873 OFFCURVE",
"341 867 CURVE",
"447 781 LINE",
"466 803 LINE",
"344 932 LINE",
"293 932 LINE",
"171 803 LINE",
"189 781 LINE"
);
},
{
closed = 1;
nodes = (
"493 898 LINE",
"474 905 OFFCURVE",
"464 912 OFFCURVE",
"464 926 CURVE SMOOTH",
"464 954 OFFCURVE",
"544 965 OFFCURVE",
"544 1010 CURVE SMOOTH",
"544 1047 OFFCURVE",
"502 1063 OFFCURVE",
"460 1063 CURVE SMOOTH",
"429 1063 OFFCURVE",
"384 1053 OFFCURVE",
"384 1022 CURVE SMOOTH",
"384 1010 OFFCURVE",
"395 1001 OFFCURVE",
"405 1001 CURVE SMOOTH",
"434 1001 OFFCURVE",
"421 1040 OFFCURVE",
"464 1040 CURVE SMOOTH",
"483 1040 OFFCURVE",
"494 1028 OFFCURVE",
"494 1013 CURVE SMOOTH",
"494 973 OFFCURVE",
"421 965 OFFCURVE",
"421 925 CURVE SMOOTH",
"421 901 OFFCURVE",
"437 880 OFFCURVE",
"484 880 CURVE"
);
}
);
};
components = (
{
name = E;
},
{
name = circumflex_hookabove;
transform = "{1, 0, 0, 1, 111, 230}";
}
);
layerId = "D810D4E0-5EEA-4CB0-897C-7C2F2D158137";
width = 621;
},
{
background = {
paths = (
{
closed = 1;
nodes = (
"554 0 LINE",
"571 179 LINE",
"544 179 LINE",
"538 124 OFFCURVE",
"520 40 OFFCURVE",
"456 40 CURVE SMOOTH",
"201 40 LINE",
"201 659 LINE",
"441 659 LINE SMOOTH",
"516 659 OFFCURVE",
"525 567 OFFCURVE",
"528 527 CURVE",
"555 527 LINE",
"555 700 LINE",
"16 700 LINE",
"16 673 LINE",
"44 673 LINE SMOOTH",
"83 673 OFFCURVE",
"103 662 OFFCURVE",
"103 637 CURVE SMOOTH",
"103 62 LINE SMOOTH",
"103 37 OFFCURVE",
"83 26 OFFCURVE",
"44 26 CURVE SMOOTH",
"16 26 LINE",
"16 0 LINE"
);
},
{
closed = 1;
nodes = (
"455 251 LINE",
"455 485 LINE",
"431 485 LINE",
"427 436 OFFCURVE",
"424 388 OFFCURVE",
"379 388 CURVE SMOOTH",
"162 388 LINE",
"162 348 LINE",
"379 348 LINE SMOOTH",
"424 348 OFFCURVE",
"427 300 OFFCURVE",
"431 251 CURVE"
);
},
{
closed = 1;
nodes = (
"286 858 LINE",
"297 868 OFFCURVE",
"309 878 OFFCURVE",
"318 878 CURVE SMOOTH",
"324 878 OFFCURVE",
"332 873 OFFCURVE",
"341 867 CURVE",
"447 781 LINE",
"466 803 LINE",
"344 932 LINE",
"293 932 LINE",
"171 803 LINE",
"189 781 LINE"
);
},
{
closed = 1;
nodes = (
"493 898 LINE",
"474 905 OFFCURVE",
"464 912 OFFCURVE",
"464 926 CURVE SMOOTH",
"464 954 OFFCURVE",
"544 965 OFFCURVE",
"544 1010 CURVE SMOOTH",
"544 1047 OFFCURVE",
"502 1063 OFFCURVE",
"460 1063 CURVE SMOOTH",
"429 1063 OFFCURVE",
"384 1053 OFFCURVE",
"384 1022 CURVE SMOOTH",
"384 1010 OFFCURVE",
"395 1001 OFFCURVE",
"405 1001 CURVE SMOOTH",
"434 1001 OFFCURVE",
"421 1040 OFFCURVE",
"464 1040 CURVE SMOOTH",
"483 1040 OFFCURVE",
"494 1028 OFFCURVE",
"494 1013 CURVE SMOOTH",
"494 973 OFFCURVE",
"421 965 OFFCURVE",
"421 925 CURVE SMOOTH",
"421 901 OFFCURVE",
"437 880 OFFCURVE",
"484 880 CURVE"
);
}
);
};
components = (
{
name = E;
},
{
name = circumflex_hookabove;
transform = "{1, 0, 0, 1, 111, 230}";
}
);
layerId = "FBA9A202-A695-4A56-B536-8E03A4D5E61C";
width = 631;
},
{
components = (
{
name = E;
},
{
name = circumflex_hookabove;
transform = "{1, 0, 0, 1, 137, 230}";
}
);
layerId = "92CE152A-AC33-4332-A899-C7DC9B2DD026";
width = 626;
},
{
background = {
paths = (
{
closed = 1;
nodes = (
"554 0 LINE",
"571 179 LINE",
"544 179 LINE",
"538 124 OFFCURVE",
"520 40 OFFCURVE",
"456 40 CURVE SMOOTH",
"201 40 LINE",
"201 659 LINE",
"441 659 LINE SMOOTH",
"516 659 OFFCURVE",
"525 567 OFFCURVE",
"528 527 CURVE",
"555 527 LINE",
"555 700 LINE",
"16 700 LINE",
"16 673 LINE",
"44 673 LINE SMOOTH",
"83 673 OFFCURVE",
"103 662 OFFCURVE",
"103 637 CURVE SMOOTH",
"103 62 LINE SMOOTH",
"103 37 OFFCURVE",
"83 26 OFFCURVE",
"44 26 CURVE SMOOTH",
"16 26 LINE",
"16 0 LINE"
);
},
{
closed = 1;
nodes = (
"455 251 LINE",
"455 485 LINE",
"431 485 LINE",
"427 436 OFFCURVE",
"424 388 OFFCURVE",
"379 388 CURVE SMOOTH",
"162 388 LINE",
"162 348 LINE",
"379 348 LINE SMOOTH",
"424 348 OFFCURVE",
"427 300 OFFCURVE",
"431 251 CURVE"
);
},
{
closed = 1;
nodes = (
"286 858 LINE",
"297 868 OFFCURVE",
"309 878 OFFCURVE",
"318 878 CURVE SMOOTH",
"324 878 OFFCURVE",
"332 873 OFFCURVE",
"341 867 CURVE",
"447 781 LINE",
"466 803 LINE",
"344 932 LINE",
"293 932 LINE",
"171 803 LINE",
"189 781 LINE"
);
},
{
closed = 1;
nodes = (
"493 898 LINE",
"474 905 OFFCURVE",
"464 912 OFFCURVE",
"464 926 CURVE SMOOTH",
"464 954 OFFCURVE",
"544 965 OFFCURVE",
"544 1010 CURVE SMOOTH",
"544 1047 OFFCURVE",
"502 1063 OFFCURVE",
"460 1063 CURVE SMOOTH",
"429 1063 OFFCURVE",
"384 1053 OFFCURVE",
"384 1022 CURVE SMOOTH",
"384 1010 OFFCURVE",
"395 1001 OFFCURVE",
"405 1001 CURVE SMOOTH",
"434 1001 OFFCURVE",
"421 1040 OFFCURVE",
"464 1040 CURVE SMOOTH",
"483 1040 OFFCURVE",
"494 1028 OFFCURVE",
"494 1013 CURVE SMOOTH",
"494 973 OFFCURVE",
"421 965 OFFCURVE",
"421 925 CURVE SMOOTH",
"421 901 OFFCURVE",
"437 880 OFFCURVE",
"484 880 CURVE"
);
}
);
};
components = (
{
name = E;
},
{
name = circumflex_hookabove;
transform = "{1, 0, 0, 1, 153, 230}";
}
);
layerId = "8FB96992-DBAA-412F-B62D-2E73CBD2FD04";
width = 621;
}
);
note = Ecircumflexhookabove;
rightKerningGroup = E;
unicode = 1EC2;
},
{
glyphname = Ecircumflextilde;
lastChange = "2018-07-08 08:32:23 +0000";
layers = (
{
background = {
paths = (
{
closed = 1;
nodes = (
"554 0 LINE",
"571 179 LINE",
"544 179 LINE",
"538 124 OFFCURVE",
"520 40 OFFCURVE",
"456 40 CURVE SMOOTH",
"201 40 LINE",
"201 659 LINE",
"441 659 LINE SMOOTH",
"516 659 OFFCURVE",
"525 567 OFFCURVE",
"528 527 CURVE",
"555 527 LINE",
"555 700 LINE",
"16 700 LINE",
"16 673 LINE",
"44 673 LINE SMOOTH",
"83 673 OFFCURVE",
"103 662 OFFCURVE",
"103 637 CURVE SMOOTH",
"103 62 LINE SMOOTH",
"103 37 OFFCURVE",
"83 26 OFFCURVE",
"44 26 CURVE SMOOTH",
"16 26 LINE",
"16 0 LINE"
);
},
{
closed = 1;
nodes = (
"455 251 LINE",
"455 485 LINE",
"431 485 LINE",
"427 436 OFFCURVE",
"424 388 OFFCURVE",
"379 388 CURVE SMOOTH",
"162 388 LINE",
"162 348 LINE",
"379 348 LINE SMOOTH",
"424 348 OFFCURVE",
"427 300 OFFCURVE",
"431 251 CURVE"
);
},
{
closed = 1;
nodes = (
"290 862 LINE SMOOTH",
"300 870 OFFCURVE",
"310 878 OFFCURVE",
"318 878 CURVE SMOOTH",
"324 878 OFFCURVE",
"332 873 OFFCURVE",
"341 867 CURVE",
"447 781 LINE",
"466 803 LINE",
"344 932 LINE",
"293 932 LINE",
"171 803 LINE",
"189 781 LINE"
);
},
{
closed = 1;
nodes = (
"193 997 OFFCURVE",
"211 1018 OFFCURVE",
"242 1018 CURVE SMOOTH",
"291 1018 OFFCURVE",
"338 964 OFFCURVE",
"387 964 CURVE SMOOTH",
"440 964 OFFCURVE",
"469 1012 OFFCURVE",
"481 1063 CURVE",
"460 1075 LINE",
"447 1035 OFFCURVE",
"431 1012 OFFCURVE",
"398 1012 CURVE SMOOTH",
"351 1012 OFFCURVE",
"302 1065 OFFCURVE",
"253 1065 CURVE SMOOTH",
"202 1065 OFFCURVE",
"170 1021 OFFCURVE",
"160 970 CURVE",
"180 958 LINE"
);
}
);
};
components = (
{
name = E;
},
{
name = circumflex_tilde;
transform = "{1, 0, 0, 1, 69, 230}";
}
);
layerId = "671CEF0C-3804-4AAB-8F09-7652EF8CF253";
width = 631;
},
{
components = (
{
name = E;
},
{
name = circumflex_tilde;
transform = "{1, 0, 0, 1, 95, 230}";
}
);
layerId = "467B800A-9F0B-4EDA-B6B6-3D16CD953827";
width = 626;
},
{
background = {
paths = (
{
closed = 1;
nodes = (
"554 0 LINE",
"571 179 LINE",
"544 179 LINE",
"538 124 OFFCURVE",
"520 40 OFFCURVE",
"456 40 CURVE SMOOTH",
"201 40 LINE",
"201 659 LINE",
"441 659 LINE SMOOTH",
"516 659 OFFCURVE",
"525 567 OFFCURVE",
"528 527 CURVE",
"555 527 LINE",
"555 700 LINE",
"16 700 LINE",
"16 673 LINE",
"44 673 LINE SMOOTH",
"83 673 OFFCURVE",
"103 662 OFFCURVE",
"103 637 CURVE SMOOTH",
"103 62 LINE SMOOTH",
"103 37 OFFCURVE",
"83 26 OFFCURVE",
"44 26 CURVE SMOOTH",
"16 26 LINE",
"16 0 LINE"
);
},
{
closed = 1;
nodes = (
"455 251 LINE",
"455 485 LINE",
"431 485 LINE",
"427 436 OFFCURVE",
"424 388 OFFCURVE",
"379 388 CURVE SMOOTH",
"162 388 LINE",
"162 348 LINE",
"379 348 LINE SMOOTH",
"424 348 OFFCURVE",
"427 300 OFFCURVE",
"431 251 CURVE"
);
},
{
closed = 1;
nodes = (
"290 862 LINE SMOOTH",
"300 870 OFFCURVE",
"310 878 OFFCURVE",
"318 878 CURVE SMOOTH",
"324 878 OFFCURVE",
"332 873 OFFCURVE",
"341 867 CURVE",
"447 781 LINE",
"466 803 LINE",
"344 932 LINE",
"293 932 LINE",
"171 803 LINE",
"189 781 LINE"
);
},
{
closed = 1;
nodes = (
"193 997 OFFCURVE",
"211 1018 OFFCURVE",
"242 1018 CURVE SMOOTH",
"291 1018 OFFCURVE",
"338 964 OFFCURVE",
"387 964 CURVE SMOOTH",
"440 964 OFFCURVE",
"469 1012 OFFCURVE",
"481 1063 CURVE",
"460 1075 LINE",
"447 1035 OFFCURVE",
"431 1012 OFFCURVE",
"398 1012 CURVE SMOOTH",
"351 1012 OFFCURVE",
"302 1065 OFFCURVE",
"253 1065 CURVE SMOOTH",
"202 1065 OFFCURVE",
"170 1021 OFFCURVE",
"160 970 CURVE",
"180 958 LINE"
);
}
);
};
components = (
{
name = E;
},
{
name = circumflex_tilde;
transform = "{1, 0, 0, 1, 111, 230}";
}
);
layerId = "D810D4E0-5EEA-4CB0-897C-7C2F2D158137";
width = 621;
},
{
background = {
paths = (
{
closed = 1;
nodes = (
"554 0 LINE",
"571 179 LINE",
"544 179 LINE",
"538 124 OFFCURVE",
"520 40 OFFCURVE",
"456 40 CURVE SMOOTH",
"201 40 LINE",
"201 659 LINE",
"441 659 LINE SMOOTH",
"516 659 OFFCURVE",
"525 567 OFFCURVE",
"528 527 CURVE",
"555 527 LINE",
"555 700 LINE",
"16 700 LINE",
"16 673 LINE",
"44 673 LINE SMOOTH",
"83 673 OFFCURVE",
"103 662 OFFCURVE",
"103 637 CURVE SMOOTH",
"103 62 LINE SMOOTH",
"103 37 OFFCURVE",
"83 26 OFFCURVE",
"44 26 CURVE SMOOTH",
"16 26 LINE",
"16 0 LINE"
);
},
{
closed = 1;
nodes = (
"455 251 LINE",
"455 485 LINE",
"431 485 LINE",
"427 436 OFFCURVE",
"424 388 OFFCURVE",
"379 388 CURVE SMOOTH",
"162 388 LINE",
"162 348 LINE",
"379 348 LINE SMOOTH",
"424 348 OFFCURVE",
"427 300 OFFCURVE",
"431 251 CURVE"
);
},
{
closed = 1;
nodes = (
"290 862 LINE SMOOTH",
"300 870 OFFCURVE",
"310 878 OFFCURVE",
"318 878 CURVE SMOOTH",
"324 878 OFFCURVE",
"332 873 OFFCURVE",
"341 867 CURVE",
"447 781 LINE",
"466 803 LINE",
"344 932 LINE",
"293 932 LINE",
"171 803 LINE",
"189 781 LINE"
);
},
{
closed = 1;
nodes = (
"193 997 OFFCURVE",
"211 1018 OFFCURVE",
"242 1018 CURVE SMOOTH",
"291 1018 OFFCURVE",
"338 964 OFFCURVE",
"387 964 CURVE SMOOTH",
"440 964 OFFCURVE",
"469 1012 OFFCURVE",
"481 1063 CURVE",
"460 1075 LINE",
"447 1035 OFFCURVE",
"431 1012 OFFCURVE",
"398 1012 CURVE SMOOTH",
"351 1012 OFFCURVE",
"302 1065 OFFCURVE",
"253 1065 CURVE SMOOTH",
"202 1065 OFFCURVE",
"170 1021 OFFCURVE",
"160 970 CURVE",
"180 958 LINE"
);
}
);
};
components = (
{
name = E;
},
{
name = circumflex_tilde;
transform = "{1, 0, 0, 1, 111, 230}";
}
);
layerId = "FBA9A202-A695-4A56-B536-8E03A4D5E61C";
width = 631;
},
{
components = (
{
name = E;
},
{
name = circumflex_tilde;
transform = "{1, 0, 0, 1, 137, 230}";
}
);
layerId = "92CE152A-AC33-4332-A899-C7DC9B2DD026";
width = 626;
},
{
background = {
paths = (
{
closed = 1;
nodes = (
"554 0 LINE",
"571 179 LINE",
"544 179 LINE",
"538 124 OFFCURVE",
"520 40 OFFCURVE",
"456 40 CURVE SMOOTH",
"201 40 LINE",
"201 659 LINE",
"441 659 LINE SMOOTH",
"516 659 OFFCURVE",
"525 567 OFFCURVE",
"528 527 CURVE",
"555 527 LINE",
"555 700 LINE",
"16 700 LINE",
"16 673 LINE",
"44 673 LINE SMOOTH",
"83 673 OFFCURVE",
"103 662 OFFCURVE",
"103 637 CURVE SMOOTH",
"103 62 LINE SMOOTH",
"103 37 OFFCURVE",
"83 26 OFFCURVE",
"44 26 CURVE SMOOTH",
"16 26 LINE",
"16 0 LINE"
);
},
{
closed = 1;
nodes = (
"455 251 LINE",
"455 485 LINE",
"431 485 LINE",
"427 436 OFFCURVE",
"424 388 OFFCURVE",
"379 388 CURVE SMOOTH",
"162 388 LINE",
"162 348 LINE",
"379 348 LINE SMOOTH",
"424 348 OFFCURVE",
"427 300 OFFCURVE",
"431 251 CURVE"
);
},
{
closed = 1;
nodes = (
"290 862 LINE SMOOTH",
"300 870 OFFCURVE",
"310 878 OFFCURVE",
"318 878 CURVE SMOOTH",
"324 878 OFFCURVE",
"332 873 OFFCURVE",
"341 867 CURVE",
"447 781 LINE",
"466 803 LINE",
"344 932 LINE",
"293 932 LINE",
"171 803 LINE",
"189 781 LINE"
);
},
{
closed = 1;
nodes = (
"193 997 OFFCURVE",
"211 1018 OFFCURVE",
"242 1018 CURVE SMOOTH",
"291 1018 OFFCURVE",
"338 964 OFFCURVE",
"387 964 CURVE SMOOTH",
"440 964 OFFCURVE",
"469 1012 OFFCURVE",
"481 1063 CURVE",
"460 1075 LINE",
"447 1035 OFFCURVE",
"431 1012 OFFCURVE",
"398 1012 CURVE SMOOTH",
"351 1012 OFFCURVE",
"302 1065 OFFCURVE",
"253 1065 CURVE SMOOTH",
"202 1065 OFFCURVE",
"170 1021 OFFCURVE",
"160 970 CURVE",
"180 958 LINE"
);
}
);
};
components = (
{
name = E;
},
{
name = circumflex_tilde;
transform = "{1, 0, 0, 1, 153, 230}";
}
);
layerId = "8FB96992-DBAA-412F-B62D-2E73CBD2FD04";
width = 621;
}
);
note = Ecircumflextilde;
rightKerningGroup = E;
unicode = 1EC4;
},
{
glyphname = Edieresis;
lastChange = "2018-07-08 13:47:22 +0000";
layers = (
{
background = {
paths = (
{
closed = 1;
nodes = (
"554 0 LINE",
"571 179 LINE",
"544 179 LINE",
"538 124 OFFCURVE",
"520 40 OFFCURVE",
"456 40 CURVE SMOOTH",
"201 40 LINE",
"201 659 LINE",
"441 659 LINE SMOOTH",
"516 659 OFFCURVE",
"525 567 OFFCURVE",
"528 527 CURVE",
"555 527 LINE",
"555 700 LINE",
"16 700 LINE",
"16 673 LINE",
"44 673 LINE SMOOTH",
"83 673 OFFCURVE",
"103 662 OFFCURVE",
"103 637 CURVE SMOOTH",
"103 62 LINE SMOOTH",
"103 37 OFFCURVE",
"83 26 OFFCURVE",
"44 26 CURVE SMOOTH",
"16 26 LINE",
"16 0 LINE"
);
},
{
closed = 1;
nodes = (
"455 251 LINE",
"455 485 LINE",
"431 485 LINE",
"427 436 OFFCURVE",
"424 388 OFFCURVE",
"379 388 CURVE SMOOTH",
"162 388 LINE",
"162 348 LINE",
"379 348 LINE SMOOTH",
"424 348 OFFCURVE",
"427 300 OFFCURVE",
"431 251 CURVE"
);
},
{
closed = 1;
nodes = (
"254 781 OFFCURVE",
"272 800 OFFCURVE",
"272 827 CURVE SMOOTH",
"272 855 OFFCURVE",
"254 875 OFFCURVE",
"225 875 CURVE SMOOTH",
"197 875 OFFCURVE",
"179 855 OFFCURVE",
"179 827 CURVE SMOOTH",
"179 800 OFFCURVE",
"197 781 OFFCURVE",
"225 781 CURVE SMOOTH"
);
},
{
closed = 1;
nodes = (
"470 781 OFFCURVE",
"488 800 OFFCURVE",
"488 827 CURVE SMOOTH",
"488 855 OFFCURVE",
"470 875 OFFCURVE",
"441 875 CURVE SMOOTH",
"412 875 OFFCURVE",
"394 855 OFFCURVE",
"394 827 CURVE SMOOTH",
"394 800 OFFCURVE",
"412 781 OFFCURVE",
"441 781 CURVE SMOOTH"
);
}
);
};
components = (
{
name = E;
},
{
name = dieresiscomb;
transform = "{1, 0, 0, 1, 310, 230}";
}
);
layerId = "671CEF0C-3804-4AAB-8F09-7652EF8CF253";
width = 631;
},
{
components = (
{
name = E;
},
{
name = dieresiscomb;
transform = "{1, 0, 0, 1, 311, 230}";
}
);
layerId = "467B800A-9F0B-4EDA-B6B6-3D16CD953827";
width = 626;
},
{
background = {
paths = (
{
closed = 1;
nodes = (
"554 0 LINE",
"571 179 LINE",
"544 179 LINE",
"538 124 OFFCURVE",
"520 40 OFFCURVE",
"456 40 CURVE SMOOTH",
"201 40 LINE",
"201 659 LINE",
"441 659 LINE SMOOTH",
"516 659 OFFCURVE",
"525 567 OFFCURVE",
"528 527 CURVE",
"555 527 LINE",
"555 700 LINE",
"16 700 LINE",
"16 673 LINE",
"44 673 LINE SMOOTH",
"83 673 OFFCURVE",
"103 662 OFFCURVE",
"103 637 CURVE SMOOTH",
"103 62 LINE SMOOTH",
"103 37 OFFCURVE",
"83 26 OFFCURVE",
"44 26 CURVE SMOOTH",
"16 26 LINE",
"16 0 LINE"
);
},
{
closed = 1;
nodes = (
"455 251 LINE",
"455 485 LINE",
"431 485 LINE",
"427 436 OFFCURVE",
"424 388 OFFCURVE",
"379 388 CURVE SMOOTH",
"162 388 LINE",
"162 348 LINE",
"379 348 LINE SMOOTH",
"424 348 OFFCURVE",
"427 300 OFFCURVE",
"431 251 CURVE"
);
},
{
closed = 1;
nodes = (
"254 781 OFFCURVE",
"272 800 OFFCURVE",
"272 827 CURVE SMOOTH",
"272 855 OFFCURVE",
"254 875 OFFCURVE",
"225 875 CURVE SMOOTH",
"197 875 OFFCURVE",
"179 855 OFFCURVE",
"179 827 CURVE SMOOTH",
"179 800 OFFCURVE",
"197 781 OFFCURVE",
"225 781 CURVE SMOOTH"
);
},
{
closed = 1;
nodes = (
"470 781 OFFCURVE",
"488 800 OFFCURVE",
"488 827 CURVE SMOOTH",
"488 855 OFFCURVE",
"470 875 OFFCURVE",
"441 875 CURVE SMOOTH",
"412 875 OFFCURVE",
"394 855 OFFCURVE",
"394 827 CURVE SMOOTH",
"394 800 OFFCURVE",
"412 781 OFFCURVE",
"441 781 CURVE SMOOTH"
);
}
);
};
components = (
{
name = E;
},
{
name = dieresiscomb;
transform = "{1, 0, 0, 1, 309, 230}";
}
);
layerId = "D810D4E0-5EEA-4CB0-897C-7C2F2D158137";
width = 621;
},
{
background = {
paths = (
{
closed = 1;
nodes = (
"554 0 LINE",
"571 179 LINE",
"544 179 LINE",
"538 124 OFFCURVE",
"520 40 OFFCURVE",
"456 40 CURVE SMOOTH",
"201 40 LINE",
"201 659 LINE",
"441 659 LINE SMOOTH",
"516 659 OFFCURVE",
"525 567 OFFCURVE",
"528 527 CURVE",
"555 527 LINE",
"555 700 LINE",
"16 700 LINE",
"16 673 LINE",
"44 673 LINE SMOOTH",
"83 673 OFFCURVE",
"103 662 OFFCURVE",
"103 637 CURVE SMOOTH",
"103 62 LINE SMOOTH",
"103 37 OFFCURVE",
"83 26 OFFCURVE",
"44 26 CURVE SMOOTH",
"16 26 LINE",
"16 0 LINE"
);
},
{
closed = 1;
nodes = (
"455 251 LINE",
"455 485 LINE",
"431 485 LINE",
"427 436 OFFCURVE",
"424 388 OFFCURVE",
"379 388 CURVE SMOOTH",
"162 388 LINE",
"162 348 LINE",
"379 348 LINE SMOOTH",
"424 348 OFFCURVE",
"427 300 OFFCURVE",
"431 251 CURVE"
);
},
{
closed = 1;
nodes = (
"254 781 OFFCURVE",
"272 800 OFFCURVE",
"272 827 CURVE SMOOTH",
"272 855 OFFCURVE",
"254 875 OFFCURVE",
"225 875 CURVE SMOOTH",
"197 875 OFFCURVE",
"179 855 OFFCURVE",
"179 827 CURVE SMOOTH",
"179 800 OFFCURVE",
"197 781 OFFCURVE",
"225 781 CURVE SMOOTH"
);
},
{
closed = 1;
nodes = (
"470 781 OFFCURVE",
"488 800 OFFCURVE",
"488 827 CURVE SMOOTH",
"488 855 OFFCURVE",
"470 875 OFFCURVE",
"441 875 CURVE SMOOTH",
"412 875 OFFCURVE",
"394 855 OFFCURVE",
"394 827 CURVE SMOOTH",
"394 800 OFFCURVE",
"412 781 OFFCURVE",
"441 781 CURVE SMOOTH"
);
}
);
};
components = (
{
name = E;
},
{
name = dieresiscomb;
transform = "{1, 0, 0, 1, 351, 230}";
}
);
layerId = "FBA9A202-A695-4A56-B536-8E03A4D5E61C";
width = 631;
},
{
components = (
{
name = E;
},
{
name = dieresiscomb;
transform = "{1, 0, 0, 1, 352, 230}";
}
);
layerId = "92CE152A-AC33-4332-A899-C7DC9B2DD026";
width = 626;
},
{
background = {
paths = (
{
closed = 1;
nodes = (
"554 0 LINE",
"571 179 LINE",
"544 179 LINE",
"538 124 OFFCURVE",
"520 40 OFFCURVE",
"456 40 CURVE SMOOTH",
"201 40 LINE",
"201 659 LINE",
"441 659 LINE SMOOTH",
"516 659 OFFCURVE",
"525 567 OFFCURVE",
"528 527 CURVE",
"555 527 LINE",
"555 700 LINE",
"16 700 LINE",
"16 673 LINE",
"44 673 LINE SMOOTH",
"83 673 OFFCURVE",
"103 662 OFFCURVE",
"103 637 CURVE SMOOTH",
"103 62 LINE SMOOTH",
"103 37 OFFCURVE",
"83 26 OFFCURVE",
"44 26 CURVE SMOOTH",
"16 26 LINE",
"16 0 LINE"
);
},
{
closed = 1;
nodes = (
"455 251 LINE",
"455 485 LINE",
"431 485 LINE",
"427 436 OFFCURVE",
"424 388 OFFCURVE",
"379 388 CURVE SMOOTH",
"162 388 LINE",
"162 348 LINE",
"379 348 LINE SMOOTH",
"424 348 OFFCURVE",
"427 300 OFFCURVE",
"431 251 CURVE"
);
},
{
closed = 1;
nodes = (
"254 781 OFFCURVE",
"272 800 OFFCURVE",
"272 827 CURVE SMOOTH",
"272 855 OFFCURVE",
"254 875 OFFCURVE",
"225 875 CURVE SMOOTH",
"197 875 OFFCURVE",
"179 855 OFFCURVE",
"179 827 CURVE SMOOTH",
"179 800 OFFCURVE",
"197 781 OFFCURVE",
"225 781 CURVE SMOOTH"
);
},
{
closed = 1;
nodes = (
"470 781 OFFCURVE",
"488 800 OFFCURVE",
"488 827 CURVE SMOOTH",
"488 855 OFFCURVE",
"470 875 OFFCURVE",
"441 875 CURVE SMOOTH",
"412 875 OFFCURVE",
"394 855 OFFCURVE",
"394 827 CURVE SMOOTH",
"394 800 OFFCURVE",
"412 781 OFFCURVE",
"441 781 CURVE SMOOTH"
);
}
);
};
components = (
{
name = E;
},
{
name = dieresiscomb;
transform = "{1, 0, 0, 1, 350, 230}";
}
);
layerId = "8FB96992-DBAA-412F-B62D-2E73CBD2FD04";
width = 621;
}
);
note = Edieresis;
rightKerningGroup = E;
unicode = 00CB;
},
{
glyphname = Edotaccent;
lastChange = "2018-07-08 13:47:22 +0000";
layers = (
{
background = {
paths = (
{
closed = 1;
nodes = (
"554 0 LINE",
"571 179 LINE",
"544 179 LINE",
"538 124 OFFCURVE",
"520 40 OFFCURVE",
"456 40 CURVE SMOOTH",
"201 40 LINE",
"201 659 LINE",
"441 659 LINE SMOOTH",
"516 659 OFFCURVE",
"525 567 OFFCURVE",
"528 527 CURVE",
"555 527 LINE",
"555 700 LINE",
"16 700 LINE",
"16 673 LINE",
"44 673 LINE SMOOTH",
"83 673 OFFCURVE",
"103 662 OFFCURVE",
"103 637 CURVE SMOOTH",
"103 62 LINE SMOOTH",
"103 37 OFFCURVE",
"83 26 OFFCURVE",
"44 26 CURVE SMOOTH",
"16 26 LINE",
"16 0 LINE"
);
},
{
closed = 1;
nodes = (
"455 251 LINE",
"455 485 LINE",
"431 485 LINE",
"427 436 OFFCURVE",
"424 388 OFFCURVE",
"379 388 CURVE SMOOTH",
"162 388 LINE",
"162 348 LINE",
"379 348 LINE SMOOTH",
"424 348 OFFCURVE",
"427 300 OFFCURVE",
"431 251 CURVE"
);
},
{
closed = 1;
nodes = (
"362 765 OFFCURVE",
"380 784 OFFCURVE",
"380 811 CURVE SMOOTH",
"380 839 OFFCURVE",
"362 858 OFFCURVE",
"334 858 CURVE SMOOTH",
"305 858 OFFCURVE",
"287 839 OFFCURVE",
"287 811 CURVE SMOOTH",
"287 784 OFFCURVE",
"305 765 OFFCURVE",
"334 765 CURVE SMOOTH"
);
}
);
};
components = (
{
name = E;
},
{
name = dotaccentcomb;
transform = "{1, 0, 0, 1, 310, 230}";
}
);
layerId = "671CEF0C-3804-4AAB-8F09-7652EF8CF253";
width = 631;
},
{
components = (
{
name = E;
},
{
name = dotaccentcomb;
transform = "{1, 0, 0, 1, 311, 230}";
}
);
layerId = "467B800A-9F0B-4EDA-B6B6-3D16CD953827";
width = 626;
},
{
background = {
paths = (
{
closed = 1;
nodes = (
"554 0 LINE",
"571 179 LINE",
"544 179 LINE",
"538 124 OFFCURVE",
"520 40 OFFCURVE",
"456 40 CURVE SMOOTH",
"201 40 LINE",
"201 659 LINE",
"441 659 LINE SMOOTH",
"516 659 OFFCURVE",
"525 567 OFFCURVE",
"528 527 CURVE",
"555 527 LINE",
"555 700 LINE",
"16 700 LINE",
"16 673 LINE",
"44 673 LINE SMOOTH",
"83 673 OFFCURVE",
"103 662 OFFCURVE",
"103 637 CURVE SMOOTH",
"103 62 LINE SMOOTH",
"103 37 OFFCURVE",
"83 26 OFFCURVE",
"44 26 CURVE SMOOTH",
"16 26 LINE",
"16 0 LINE"
);
},
{
closed = 1;
nodes = (
"455 251 LINE",
"455 485 LINE",
"431 485 LINE",
"427 436 OFFCURVE",
"424 388 OFFCURVE",
"379 388 CURVE SMOOTH",
"162 388 LINE",
"162 348 LINE",
"379 348 LINE SMOOTH",
"424 348 OFFCURVE",
"427 300 OFFCURVE",
"431 251 CURVE"
);
},
{
closed = 1;
nodes = (
"362 765 OFFCURVE",
"380 784 OFFCURVE",
"380 811 CURVE SMOOTH",
"380 839 OFFCURVE",
"362 858 OFFCURVE",
"334 858 CURVE SMOOTH",
"305 858 OFFCURVE",
"287 839 OFFCURVE",
"287 811 CURVE SMOOTH",
"287 784 OFFCURVE",
"305 765 OFFCURVE",
"334 765 CURVE SMOOTH"
);
}
);
};
components = (
{
name = E;
},
{
name = dotaccentcomb;
transform = "{1, 0, 0, 1, 309, 230}";
}
);
layerId = "D810D4E0-5EEA-4CB0-897C-7C2F2D158137";
width = 621;
},
{
background = {
paths = (
{
closed = 1;
nodes = (
"554 0 LINE",
"571 179 LINE",
"544 179 LINE",
"538 124 OFFCURVE",
"520 40 OFFCURVE",
"456 40 CURVE SMOOTH",
"201 40 LINE",
"201 659 LINE",
"441 659 LINE SMOOTH",
"516 659 OFFCURVE",
"525 567 OFFCURVE",
"528 527 CURVE",
"555 527 LINE",
"555 700 LINE",
"16 700 LINE",
"16 673 LINE",
"44 673 LINE SMOOTH",
"83 673 OFFCURVE",
"103 662 OFFCURVE",
"103 637 CURVE SMOOTH",
"103 62 LINE SMOOTH",
"103 37 OFFCURVE",
"83 26 OFFCURVE",
"44 26 CURVE SMOOTH",
"16 26 LINE",
"16 0 LINE"
);
},
{
closed = 1;
nodes = (
"455 251 LINE",
"455 485 LINE",
"431 485 LINE",
"427 436 OFFCURVE",
"424 388 OFFCURVE",
"379 388 CURVE SMOOTH",
"162 388 LINE",
"162 348 LINE",
"379 348 LINE SMOOTH",
"424 348 OFFCURVE",
"427 300 OFFCURVE",
"431 251 CURVE"
);
},
{
closed = 1;
nodes = (
"362 765 OFFCURVE",
"380 784 OFFCURVE",
"380 811 CURVE SMOOTH",
"380 839 OFFCURVE",
"362 858 OFFCURVE",
"334 858 CURVE SMOOTH",
"305 858 OFFCURVE",
"287 839 OFFCURVE",
"287 811 CURVE SMOOTH",
"287 784 OFFCURVE",
"305 765 OFFCURVE",
"334 765 CURVE SMOOTH"
);
}
);
};
components = (
{
name = E;
},
{
name = dotaccentcomb;
transform = "{1, 0, 0, 1, 351, 230}";
}
);
layerId = "FBA9A202-A695-4A56-B536-8E03A4D5E61C";
width = 631;
},
{
components = (
{
name = E;
},
{
name = dotaccentcomb;
transform = "{1, 0, 0, 1, 352, 230}";
}
);
layerId = "92CE152A-AC33-4332-A899-C7DC9B2DD026";
width = 626;
},
{
background = {
paths = (
{
closed = 1;
nodes = (
"554 0 LINE",
"571 179 LINE",
"544 179 LINE",
"538 124 OFFCURVE",
"520 40 OFFCURVE",
"456 40 CURVE SMOOTH",
"201 40 LINE",
"201 659 LINE",
"441 659 LINE SMOOTH",
"516 659 OFFCURVE",
"525 567 OFFCURVE",
"528 527 CURVE",
"555 527 LINE",
"555 700 LINE",
"16 700 LINE",
"16 673 LINE",
"44 673 LINE SMOOTH",
"83 673 OFFCURVE",
"103 662 OFFCURVE",
"103 637 CURVE SMOOTH",
"103 62 LINE SMOOTH",
"103 37 OFFCURVE",
"83 26 OFFCURVE",
"44 26 CURVE SMOOTH",
"16 26 LINE",
"16 0 LINE"
);
},
{
closed = 1;
nodes = (
"455 251 LINE",
"455 485 LINE",
"431 485 LINE",
"427 436 OFFCURVE",
"424 388 OFFCURVE",
"379 388 CURVE SMOOTH",
"162 388 LINE",
"162 348 LINE",
"379 348 LINE SMOOTH",
"424 348 OFFCURVE",
"427 300 OFFCURVE",
"431 251 CURVE"
);
},
{
closed = 1;
nodes = (
"362 765 OFFCURVE",
"380 784 OFFCURVE",
"380 811 CURVE SMOOTH",
"380 839 OFFCURVE",
"362 858 OFFCURVE",
"334 858 CURVE SMOOTH",
"305 858 OFFCURVE",
"287 839 OFFCURVE",
"287 811 CURVE SMOOTH",
"287 784 OFFCURVE",
"305 765 OFFCURVE",
"334 765 CURVE SMOOTH"
);
}
);
};
components = (
{
name = E;
},
{
name = dotaccentcomb;
transform = "{1, 0, 0, 1, 350, 230}";
}
);
layerId = "8FB96992-DBAA-412F-B62D-2E73CBD2FD04";
width = 621;
}
);
note = Edotaccent;
rightKerningGroup = E;
unicode = 0116;
},
{
glyphname = Edotbelow;
lastChange = "2018-07-08 08:32:23 +0000";
layers = (
{
background = {
paths = (
{
closed = 1;
nodes = (
"554 0 LINE",
"571 179 LINE",
"544 179 LINE",
"538 124 OFFCURVE",
"520 40 OFFCURVE",
"456 40 CURVE SMOOTH",
"201 40 LINE",
"201 659 LINE",
"441 659 LINE SMOOTH",
"516 659 OFFCURVE",
"525 567 OFFCURVE",
"528 527 CURVE",
"555 527 LINE",
"555 700 LINE",
"16 700 LINE",
"16 673 LINE",
"44 673 LINE SMOOTH",
"83 673 OFFCURVE",
"103 662 OFFCURVE",
"103 637 CURVE SMOOTH",
"103 62 LINE SMOOTH",
"103 37 OFFCURVE",
"83 26 OFFCURVE",
"44 26 CURVE SMOOTH",
"16 26 LINE",
"16 0 LINE"
);
},
{
closed = 1;
nodes = (
"343 -159 OFFCURVE",
"361 -140 OFFCURVE",
"361 -112 CURVE SMOOTH",
"361 -84 OFFCURVE",
"343 -64 OFFCURVE",
"315 -64 CURVE SMOOTH",
"287 -64 OFFCURVE",
"268 -84 OFFCURVE",
"268 -112 CURVE SMOOTH",
"268 -140 OFFCURVE",
"287 -159 OFFCURVE",
"315 -159 CURVE SMOOTH"
);
},
{
closed = 1;
nodes = (
"455 251 LINE",
"455 485 LINE",
"431 485 LINE",
"427 436 OFFCURVE",
"424 388 OFFCURVE",
"379 388 CURVE SMOOTH",
"162 388 LINE",
"162 348 LINE",
"379 348 LINE SMOOTH",
"424 348 OFFCURVE",
"427 300 OFFCURVE",
"431 251 CURVE"
);
}
);
};
components = (
{
name = E;
},
{
name = dotbelowcomb;
transform = "{1, 0, 0, 1, 200, 0}";
}
);
layerId = "671CEF0C-3804-4AAB-8F09-7652EF8CF253";
width = 631;
},
{
components = (
{
name = E;
},
{
name = dotbelowcomb;
transform = "{1, 0, 0, 1, 210, 0}";
}
);
layerId = "467B800A-9F0B-4EDA-B6B6-3D16CD953827";
width = 626;
},
{
background = {
paths = (
{
closed = 1;
nodes = (
"554 0 LINE",
"571 179 LINE",
"544 179 LINE",
"538 124 OFFCURVE",
"520 40 OFFCURVE",
"456 40 CURVE SMOOTH",
"201 40 LINE",
"201 659 LINE",
"441 659 LINE SMOOTH",
"516 659 OFFCURVE",
"525 567 OFFCURVE",
"528 527 CURVE",
"555 527 LINE",
"555 700 LINE",
"16 700 LINE",
"16 673 LINE",
"44 673 LINE SMOOTH",
"83 673 OFFCURVE",
"103 662 OFFCURVE",
"103 637 CURVE SMOOTH",
"103 62 LINE SMOOTH",
"103 37 OFFCURVE",
"83 26 OFFCURVE",
"44 26 CURVE SMOOTH",
"16 26 LINE",
"16 0 LINE"
);
},
{
closed = 1;
nodes = (
"343 -159 OFFCURVE",
"361 -140 OFFCURVE",
"361 -112 CURVE SMOOTH",
"361 -84 OFFCURVE",
"343 -64 OFFCURVE",
"315 -64 CURVE SMOOTH",
"287 -64 OFFCURVE",
"268 -84 OFFCURVE",
"268 -112 CURVE SMOOTH",
"268 -140 OFFCURVE",
"287 -159 OFFCURVE",
"315 -159 CURVE SMOOTH"
);
},
{
closed = 1;
nodes = (
"455 251 LINE",
"455 485 LINE",
"431 485 LINE",
"427 436 OFFCURVE",
"424 388 OFFCURVE",
"379 388 CURVE SMOOTH",
"162 388 LINE",
"162 348 LINE",
"379 348 LINE SMOOTH",
"424 348 OFFCURVE",
"427 300 OFFCURVE",
"431 251 CURVE"
);
}
);
};
components = (
{
name = E;
},
{
name = dotbelowcomb;
transform = "{1, 0, 0, 1, 215, 0}";
}
);
layerId = "D810D4E0-5EEA-4CB0-897C-7C2F2D158137";
width = 621;
},
{
background = {
paths = (
{
closed = 1;
nodes = (
"554 0 LINE",
"571 179 LINE",
"544 179 LINE",
"538 124 OFFCURVE",
"520 40 OFFCURVE",
"456 40 CURVE SMOOTH",
"201 40 LINE",
"201 659 LINE",
"441 659 LINE SMOOTH",
"516 659 OFFCURVE",
"525 567 OFFCURVE",
"528 527 CURVE",
"555 527 LINE",
"555 700 LINE",
"16 700 LINE",
"16 673 LINE",
"44 673 LINE SMOOTH",
"83 673 OFFCURVE",
"103 662 OFFCURVE",
"103 637 CURVE SMOOTH",
"103 62 LINE SMOOTH",
"103 37 OFFCURVE",
"83 26 OFFCURVE",
"44 26 CURVE SMOOTH",
"16 26 LINE",
"16 0 LINE"
);
},
{
closed = 1;
nodes = (
"343 -159 OFFCURVE",
"361 -140 OFFCURVE",
"361 -112 CURVE SMOOTH",
"361 -84 OFFCURVE",
"343 -64 OFFCURVE",
"315 -64 CURVE SMOOTH",
"287 -64 OFFCURVE",
"268 -84 OFFCURVE",
"268 -112 CURVE SMOOTH",
"268 -140 OFFCURVE",
"287 -159 OFFCURVE",
"315 -159 CURVE SMOOTH"
);
},
{
closed = 1;
nodes = (
"455 251 LINE",
"455 485 LINE",
"431 485 LINE",
"427 436 OFFCURVE",
"424 388 OFFCURVE",
"379 388 CURVE SMOOTH",
"162 388 LINE",
"162 348 LINE",
"379 348 LINE SMOOTH",
"424 348 OFFCURVE",
"427 300 OFFCURVE",
"431 251 CURVE"
);
}
);
};
components = (
{
name = E;
},
{
name = dotbelowcomb;
transform = "{1, 0, 0, 1, 200, 0}";
}
);
layerId = "FBA9A202-A695-4A56-B536-8E03A4D5E61C";
width = 631;
},
{
components = (
{
name = E;
},
{
name = dotbelowcomb;
transform = "{1, 0, 0, 1, 210, 0}";
}
);
layerId = "92CE152A-AC33-4332-A899-C7DC9B2DD026";
width = 626;
},
{
background = {
paths = (
{
closed = 1;
nodes = (
"554 0 LINE",
"571 179 LINE",
"544 179 LINE",
"538 124 OFFCURVE",
"520 40 OFFCURVE",
"456 40 CURVE SMOOTH",
"201 40 LINE",
"201 659 LINE",
"441 659 LINE SMOOTH",
"516 659 OFFCURVE",
"525 567 OFFCURVE",
"528 527 CURVE",
"555 527 LINE",
"555 700 LINE",
"16 700 LINE",
"16 673 LINE",
"44 673 LINE SMOOTH",
"83 673 OFFCURVE",
"103 662 OFFCURVE",
"103 637 CURVE SMOOTH",
"103 62 LINE SMOOTH",
"103 37 OFFCURVE",
"83 26 OFFCURVE",
"44 26 CURVE SMOOTH",
"16 26 LINE",
"16 0 LINE"
);
},
{
closed = 1;
nodes = (
"343 -159 OFFCURVE",
"361 -140 OFFCURVE",
"361 -112 CURVE SMOOTH",
"361 -84 OFFCURVE",
"343 -64 OFFCURVE",
"315 -64 CURVE SMOOTH",
"287 -64 OFFCURVE",
"268 -84 OFFCURVE",
"268 -112 CURVE SMOOTH",
"268 -140 OFFCURVE",
"287 -159 OFFCURVE",
"315 -159 CURVE SMOOTH"
);
},
{
closed = 1;
nodes = (
"455 251 LINE",
"455 485 LINE",
"431 485 LINE",
"427 436 OFFCURVE",
"424 388 OFFCURVE",
"379 388 CURVE SMOOTH",
"162 388 LINE",
"162 348 LINE",
"379 348 LINE SMOOTH",
"424 348 OFFCURVE",
"427 300 OFFCURVE",
"431 251 CURVE"
);
}
);
};
components = (
{
name = E;
},
{
name = dotbelowcomb;
transform = "{1, 0, 0, 1, 215, 0}";
}
);
layerId = "8FB96992-DBAA-412F-B62D-2E73CBD2FD04";
width = 621;
}
);
note = Edotbelow;
rightKerningGroup = E;
unicode = 1EB8;
},
{
glyphname = Egrave;
lastChange = "2018-07-08 08:32:23 +0000";
layers = (
{
background = {
paths = (
{
closed = 1;
nodes = (
"554 0 LINE",
"571 179 LINE",
"544 179 LINE",
"538 124 OFFCURVE",
"520 40 OFFCURVE",
"456 40 CURVE SMOOTH",
"201 40 LINE",
"201 659 LINE",
"441 659 LINE SMOOTH",
"516 659 OFFCURVE",
"525 567 OFFCURVE",
"528 527 CURVE",
"555 527 LINE",
"555 700 LINE",
"16 700 LINE",
"16 673 LINE",
"44 673 LINE SMOOTH",
"83 673 OFFCURVE",
"103 662 OFFCURVE",
"103 637 CURVE SMOOTH",
"103 62 LINE SMOOTH",
"103 37 OFFCURVE",
"83 26 OFFCURVE",
"44 26 CURVE SMOOTH",
"16 26 LINE",
"16 0 LINE"
);
},
{
closed = 1;
nodes = (
"455 251 LINE",
"455 485 LINE",
"431 485 LINE",
"427 436 OFFCURVE",
"424 388 OFFCURVE",
"379 388 CURVE SMOOTH",
"162 388 LINE",
"162 348 LINE",
"379 348 LINE SMOOTH",
"424 348 OFFCURVE",
"427 300 OFFCURVE",
"431 251 CURVE"
);
},
{
closed = 1;
nodes = (
"425 807 LINE",
"310 913 LINE",
"301 922 OFFCURVE",
"285 937 OFFCURVE",
"265 937 CURVE SMOOTH",
"245 937 OFFCURVE",
"233 924 OFFCURVE",
"233 908 CURVE SMOOTH",
"233 890 OFFCURVE",
"245 876 OFFCURVE",
"264 865 CURVE SMOOTH",
"407 782 LINE"
);
}
);
};
components = (
{
name = E;
},
{
name = gravecomb;
transform = "{1, 0, 0, 1, 117, 230}";
}
);
layerId = "671CEF0C-3804-4AAB-8F09-7652EF8CF253";
width = 631;
},
{
components = (
{
name = E;
},
{
name = gravecomb;
transform = "{1, 0, 0, 1, 118, 230}";
}
);
layerId = "467B800A-9F0B-4EDA-B6B6-3D16CD953827";
width = 626;
},
{
background = {
paths = (
{
closed = 1;
nodes = (
"554 0 LINE",
"571 179 LINE",
"544 179 LINE",
"538 124 OFFCURVE",
"520 40 OFFCURVE",
"456 40 CURVE SMOOTH",
"201 40 LINE",
"201 659 LINE",
"441 659 LINE SMOOTH",
"516 659 OFFCURVE",
"525 567 OFFCURVE",
"528 527 CURVE",
"555 527 LINE",
"555 700 LINE",
"16 700 LINE",
"16 673 LINE",
"44 673 LINE SMOOTH",
"83 673 OFFCURVE",
"103 662 OFFCURVE",
"103 637 CURVE SMOOTH",
"103 62 LINE SMOOTH",
"103 37 OFFCURVE",
"83 26 OFFCURVE",
"44 26 CURVE SMOOTH",
"16 26 LINE",
"16 0 LINE"
);
},
{
closed = 1;
nodes = (
"455 251 LINE",
"455 485 LINE",
"431 485 LINE",
"427 436 OFFCURVE",
"424 388 OFFCURVE",
"379 388 CURVE SMOOTH",
"162 388 LINE",
"162 348 LINE",
"379 348 LINE SMOOTH",
"424 348 OFFCURVE",
"427 300 OFFCURVE",
"431 251 CURVE"
);
},
{
closed = 1;
nodes = (
"425 807 LINE",
"310 913 LINE",
"301 922 OFFCURVE",
"285 937 OFFCURVE",
"265 937 CURVE SMOOTH",
"245 937 OFFCURVE",
"233 924 OFFCURVE",
"233 908 CURVE SMOOTH",
"233 890 OFFCURVE",
"245 876 OFFCURVE",
"264 865 CURVE SMOOTH",
"407 782 LINE"
);
}
);
};
components = (
{
name = E;
},
{
name = gravecomb;
transform = "{1, 0, 0, 1, 125, 230}";
}
);
layerId = "D810D4E0-5EEA-4CB0-897C-7C2F2D158137";
width = 621;
},
{
background = {
paths = (
{
closed = 1;
nodes = (
"554 0 LINE",
"571 179 LINE",
"544 179 LINE",
"538 124 OFFCURVE",
"520 40 OFFCURVE",
"456 40 CURVE SMOOTH",
"201 40 LINE",
"201 659 LINE",
"441 659 LINE SMOOTH",
"516 659 OFFCURVE",
"525 567 OFFCURVE",
"528 527 CURVE",
"555 527 LINE",
"555 700 LINE",
"16 700 LINE",
"16 673 LINE",
"44 673 LINE SMOOTH",
"83 673 OFFCURVE",
"103 662 OFFCURVE",
"103 637 CURVE SMOOTH",
"103 62 LINE SMOOTH",
"103 37 OFFCURVE",
"83 26 OFFCURVE",
"44 26 CURVE SMOOTH",
"16 26 LINE",
"16 0 LINE"
);
},
{
closed = 1;
nodes = (
"455 251 LINE",
"455 485 LINE",
"431 485 LINE",
"427 436 OFFCURVE",
"424 388 OFFCURVE",
"379 388 CURVE SMOOTH",
"162 388 LINE",
"162 348 LINE",
"379 348 LINE SMOOTH",
"424 348 OFFCURVE",
"427 300 OFFCURVE",
"431 251 CURVE"
);
},
{
closed = 1;
nodes = (
"425 807 LINE",
"310 913 LINE",
"301 922 OFFCURVE",
"285 937 OFFCURVE",
"265 937 CURVE SMOOTH",
"245 937 OFFCURVE",
"233 924 OFFCURVE",
"233 908 CURVE SMOOTH",
"233 890 OFFCURVE",
"245 876 OFFCURVE",
"264 865 CURVE SMOOTH",
"407 782 LINE"
);
}
);
};
components = (
{
name = E;
},
{
name = gravecomb;
transform = "{1, 0, 0, 1, 158, 230}";
}
);
layerId = "FBA9A202-A695-4A56-B536-8E03A4D5E61C";
width = 631;
},
{
components = (
{
name = E;
},
{
name = gravecomb;
transform = "{1, 0, 0, 1, 159, 230}";
}
);
layerId = "92CE152A-AC33-4332-A899-C7DC9B2DD026";
width = 626;
},
{
background = {
paths = (
{
closed = 1;
nodes = (
"554 0 LINE",
"571 179 LINE",
"544 179 LINE",
"538 124 OFFCURVE",
"520 40 OFFCURVE",
"456 40 CURVE SMOOTH",
"201 40 LINE",
"201 659 LINE",
"441 659 LINE SMOOTH",
"516 659 OFFCURVE",
"525 567 OFFCURVE",
"528 527 CURVE",
"555 527 LINE",
"555 700 LINE",
"16 700 LINE",
"16 673 LINE",
"44 673 LINE SMOOTH",
"83 673 OFFCURVE",
"103 662 OFFCURVE",
"103 637 CURVE SMOOTH",
"103 62 LINE SMOOTH",
"103 37 OFFCURVE",
"83 26 OFFCURVE",
"44 26 CURVE SMOOTH",
"16 26 LINE",
"16 0 LINE"
);
},
{
closed = 1;
nodes = (
"455 251 LINE",
"455 485 LINE",
"431 485 LINE",
"427 436 OFFCURVE",
"424 388 OFFCURVE",
"379 388 CURVE SMOOTH",
"162 388 LINE",
"162 348 LINE",
"379 348 LINE SMOOTH",
"424 348 OFFCURVE",
"427 300 OFFCURVE",
"431 251 CURVE"
);
},
{
closed = 1;
nodes = (
"425 807 LINE",
"310 913 LINE",
"301 922 OFFCURVE",
"285 937 OFFCURVE",
"265 937 CURVE SMOOTH",
"245 937 OFFCURVE",
"233 924 OFFCURVE",
"233 908 CURVE SMOOTH",
"233 890 OFFCURVE",
"245 876 OFFCURVE",
"264 865 CURVE SMOOTH",
"407 782 LINE"
);
}
);
};
components = (
{
name = E;
},
{
name = gravecomb;
transform = "{1, 0, 0, 1, 166, 230}";
}
);
layerId = "8FB96992-DBAA-412F-B62D-2E73CBD2FD04";
width = 621;
}
);
note = Egrave;
rightKerningGroup = E;
unicode = 00C8;
},
{
glyphname = Ehookabove;
lastChange = "2018-07-08 08:32:23 +0000";
layers = (
{
background = {
paths = (
{
closed = 1;
nodes = (
"554 0 LINE",
"571 179 LINE",
"544 179 LINE",
"538 124 OFFCURVE",
"520 40 OFFCURVE",
"456 40 CURVE SMOOTH",
"201 40 LINE",
"201 659 LINE",
"441 659 LINE SMOOTH",
"516 659 OFFCURVE",
"525 567 OFFCURVE",
"528 527 CURVE",
"555 527 LINE",
"555 700 LINE",
"16 700 LINE",
"16 673 LINE",
"44 673 LINE SMOOTH",
"83 673 OFFCURVE",
"103 662 OFFCURVE",
"103 637 CURVE SMOOTH",
"103 62 LINE SMOOTH",
"103 37 OFFCURVE",
"83 26 OFFCURVE",
"44 26 CURVE SMOOTH",
"16 26 LINE",
"16 0 LINE"
);
},
{
closed = 1;
nodes = (
"455 251 LINE",
"455 485 LINE",
"431 485 LINE",
"427 436 OFFCURVE",
"424 388 OFFCURVE",
"379 388 CURVE SMOOTH",
"162 388 LINE",
"162 348 LINE",
"379 348 LINE SMOOTH",
"424 348 OFFCURVE",
"427 300 OFFCURVE",
"431 251 CURVE"
);
},
{
closed = 1;
nodes = (
"367 798 LINE",
"348 805 OFFCURVE",
"336 811 OFFCURVE",
"336 828 CURVE SMOOTH",
"336 861 OFFCURVE",
"425 876 OFFCURVE",
"425 927 CURVE SMOOTH",
"425 969 OFFCURVE",
"389 991 OFFCURVE",
"336 991 CURVE SMOOTH",
"289 991 OFFCURVE",
"248 974 OFFCURVE",
"248 940 CURVE SMOOTH",
"248 923 OFFCURVE",
"256 915 OFFCURVE",
"271 915 CURVE SMOOTH",
"294 915 OFFCURVE",
"296 934 OFFCURVE",
"299 942 CURVE SMOOTH",
"304 956 OFFCURVE",
"321 962 OFFCURVE",
"337 962 CURVE SMOOTH",
"358 962 OFFCURVE",
"371 947 OFFCURVE",
"371 930 CURVE SMOOTH",
"371 885 OFFCURVE",
"289 874 OFFCURVE",
"289 828 CURVE SMOOTH",
"289 801 OFFCURVE",
"307 778 OFFCURVE",
"358 778 CURVE"
);
}
);
};
components = (
{
name = E;
},
{
name = hookabovecomb;
transform = "{1, 0, 0, 1, 148, 230}";
}
);
layerId = "671CEF0C-3804-4AAB-8F09-7652EF8CF253";
width = 631;
},
{
components = (
{
name = E;
},
{
name = hookabovecomb;
transform = "{1, 0, 0, 1, 177, 230}";
}
);
layerId = "467B800A-9F0B-4EDA-B6B6-3D16CD953827";
width = 626;
},
{
background = {
paths = (
{
closed = 1;
nodes = (
"554 0 LINE",
"571 179 LINE",
"544 179 LINE",
"538 124 OFFCURVE",
"520 40 OFFCURVE",
"456 40 CURVE SMOOTH",
"201 40 LINE",
"201 659 LINE",
"441 659 LINE SMOOTH",
"516 659 OFFCURVE",
"525 567 OFFCURVE",
"528 527 CURVE",
"555 527 LINE",
"555 700 LINE",
"16 700 LINE",
"16 673 LINE",
"44 673 LINE SMOOTH",
"83 673 OFFCURVE",
"103 662 OFFCURVE",
"103 637 CURVE SMOOTH",
"103 62 LINE SMOOTH",
"103 37 OFFCURVE",
"83 26 OFFCURVE",
"44 26 CURVE SMOOTH",
"16 26 LINE",
"16 0 LINE"
);
},
{
closed = 1;
nodes = (
"455 251 LINE",
"455 485 LINE",
"431 485 LINE",
"427 436 OFFCURVE",
"424 388 OFFCURVE",
"379 388 CURVE SMOOTH",
"162 388 LINE",
"162 348 LINE",
"379 348 LINE SMOOTH",
"424 348 OFFCURVE",
"427 300 OFFCURVE",
"431 251 CURVE"
);
},
{
closed = 1;
nodes = (
"367 798 LINE",
"348 805 OFFCURVE",
"336 811 OFFCURVE",
"336 828 CURVE SMOOTH",
"336 861 OFFCURVE",
"425 876 OFFCURVE",
"425 927 CURVE SMOOTH",
"425 969 OFFCURVE",
"389 991 OFFCURVE",
"336 991 CURVE SMOOTH",
"289 991 OFFCURVE",
"248 974 OFFCURVE",
"248 940 CURVE SMOOTH",
"248 923 OFFCURVE",
"256 915 OFFCURVE",
"271 915 CURVE SMOOTH",
"294 915 OFFCURVE",
"296 934 OFFCURVE",
"299 942 CURVE SMOOTH",
"304 956 OFFCURVE",
"321 962 OFFCURVE",
"337 962 CURVE SMOOTH",
"358 962 OFFCURVE",
"371 947 OFFCURVE",
"371 930 CURVE SMOOTH",
"371 885 OFFCURVE",
"289 874 OFFCURVE",
"289 828 CURVE SMOOTH",
"289 801 OFFCURVE",
"307 778 OFFCURVE",
"358 778 CURVE"
);
}
);
};
components = (
{
name = E;
},
{
name = hookabovecomb;
transform = "{1, 0, 0, 1, 197, 230}";
}
);
layerId = "D810D4E0-5EEA-4CB0-897C-7C2F2D158137";
width = 621;
},
{
background = {
paths = (
{
closed = 1;
nodes = (
"554 0 LINE",
"571 179 LINE",
"544 179 LINE",
"538 124 OFFCURVE",
"520 40 OFFCURVE",
"456 40 CURVE SMOOTH",
"201 40 LINE",
"201 659 LINE",
"441 659 LINE SMOOTH",
"516 659 OFFCURVE",
"525 567 OFFCURVE",
"528 527 CURVE",
"555 527 LINE",
"555 700 LINE",
"16 700 LINE",
"16 673 LINE",
"44 673 LINE SMOOTH",
"83 673 OFFCURVE",
"103 662 OFFCURVE",
"103 637 CURVE SMOOTH",
"103 62 LINE SMOOTH",
"103 37 OFFCURVE",
"83 26 OFFCURVE",
"44 26 CURVE SMOOTH",
"16 26 LINE",
"16 0 LINE"
);
},
{
closed = 1;
nodes = (
"455 251 LINE",
"455 485 LINE",
"431 485 LINE",
"427 436 OFFCURVE",
"424 388 OFFCURVE",
"379 388 CURVE SMOOTH",
"162 388 LINE",
"162 348 LINE",
"379 348 LINE SMOOTH",
"424 348 OFFCURVE",
"427 300 OFFCURVE",
"431 251 CURVE"
);
},
{
closed = 1;
nodes = (
"367 798 LINE",
"348 805 OFFCURVE",
"336 811 OFFCURVE",
"336 828 CURVE SMOOTH",
"336 861 OFFCURVE",
"425 876 OFFCURVE",
"425 927 CURVE SMOOTH",
"425 969 OFFCURVE",
"389 991 OFFCURVE",
"336 991 CURVE SMOOTH",
"289 991 OFFCURVE",
"248 974 OFFCURVE",
"248 940 CURVE SMOOTH",
"248 923 OFFCURVE",
"256 915 OFFCURVE",
"271 915 CURVE SMOOTH",
"294 915 OFFCURVE",
"296 934 OFFCURVE",
"299 942 CURVE SMOOTH",
"304 956 OFFCURVE",
"321 962 OFFCURVE",
"337 962 CURVE SMOOTH",
"358 962 OFFCURVE",
"371 947 OFFCURVE",
"371 930 CURVE SMOOTH",
"371 885 OFFCURVE",
"289 874 OFFCURVE",
"289 828 CURVE SMOOTH",
"289 801 OFFCURVE",
"307 778 OFFCURVE",
"358 778 CURVE"
);
}
);
};
components = (
{
name = E;
},
{
name = hookabovecomb;
transform = "{1, 0, 0, 1, 189, 230}";
}
);
layerId = "FBA9A202-A695-4A56-B536-8E03A4D5E61C";
width = 631;
},
{
components = (
{
name = E;
},
{
name = hookabovecomb;
transform = "{1, 0, 0, 1, 218, 230}";
}
);
layerId = "92CE152A-AC33-4332-A899-C7DC9B2DD026";
width = 626;
},
{
background = {
paths = (
{
closed = 1;
nodes = (
"554 0 LINE",
"571 179 LINE",
"544 179 LINE",
"538 124 OFFCURVE",
"520 40 OFFCURVE",
"456 40 CURVE SMOOTH",
"201 40 LINE",
"201 659 LINE",
"441 659 LINE SMOOTH",
"516 659 OFFCURVE",
"525 567 OFFCURVE",
"528 527 CURVE",
"555 527 LINE",
"555 700 LINE",
"16 700 LINE",
"16 673 LINE",
"44 673 LINE SMOOTH",
"83 673 OFFCURVE",
"103 662 OFFCURVE",
"103 637 CURVE SMOOTH",
"103 62 LINE SMOOTH",
"103 37 OFFCURVE",
"83 26 OFFCURVE",
"44 26 CURVE SMOOTH",
"16 26 LINE",
"16 0 LINE"
);
},
{
closed = 1;
nodes = (
"455 251 LINE",
"455 485 LINE",
"431 485 LINE",
"427 436 OFFCURVE",
"424 388 OFFCURVE",
"379 388 CURVE SMOOTH",
"162 388 LINE",
"162 348 LINE",
"379 348 LINE SMOOTH",
"424 348 OFFCURVE",
"427 300 OFFCURVE",
"431 251 CURVE"
);
},
{
closed = 1;
nodes = (
"367 798 LINE",
"348 805 OFFCURVE",
"336 811 OFFCURVE",
"336 828 CURVE SMOOTH",
"336 861 OFFCURVE",
"425 876 OFFCURVE",
"425 927 CURVE SMOOTH",
"425 969 OFFCURVE",
"389 991 OFFCURVE",
"336 991 CURVE SMOOTH",
"289 991 OFFCURVE",
"248 974 OFFCURVE",
"248 940 CURVE SMOOTH",
"248 923 OFFCURVE",
"256 915 OFFCURVE",
"271 915 CURVE SMOOTH",
"294 915 OFFCURVE",
"296 934 OFFCURVE",
"299 942 CURVE SMOOTH",
"304 956 OFFCURVE",
"321 962 OFFCURVE",
"337 962 CURVE SMOOTH",
"358 962 OFFCURVE",
"371 947 OFFCURVE",
"371 930 CURVE SMOOTH",
"371 885 OFFCURVE",
"289 874 OFFCURVE",
"289 828 CURVE SMOOTH",
"289 801 OFFCURVE",
"307 778 OFFCURVE",
"358 778 CURVE"
);
}
);
};
components = (
{
name = E;
},
{
name = hookabovecomb;
transform = "{1, 0, 0, 1, 238, 230}";
}
);
layerId = "8FB96992-DBAA-412F-B62D-2E73CBD2FD04";
width = 621;
}
);
note = Ehookabove;
rightKerningGroup = E;
unicode = 1EBA;
},
{
glyphname = Emacron;
lastChange = "2018-07-08 13:30:42 +0000";
layers = (
{
background = {
paths = (
{
closed = 1;
nodes = (
"554 0 LINE",
"571 179 LINE",
"544 179 LINE",
"538 124 OFFCURVE",
"520 40 OFFCURVE",
"456 40 CURVE SMOOTH",
"201 40 LINE",
"201 659 LINE",
"441 659 LINE SMOOTH",
"516 659 OFFCURVE",
"525 567 OFFCURVE",
"528 527 CURVE",
"555 527 LINE",
"555 700 LINE",
"16 700 LINE",
"16 673 LINE",
"44 673 LINE SMOOTH",
"83 673 OFFCURVE",
"103 662 OFFCURVE",
"103 637 CURVE SMOOTH",
"103 62 LINE SMOOTH",
"103 37 OFFCURVE",
"83 26 OFFCURVE",
"44 26 CURVE SMOOTH",
"16 26 LINE",
"16 0 LINE"
);
},
{
closed = 1;
nodes = (
"455 251 LINE",
"455 485 LINE",
"431 485 LINE",
"427 436 OFFCURVE",
"424 388 OFFCURVE",
"379 388 CURVE SMOOTH",
"162 388 LINE",
"162 348 LINE",
"379 348 LINE SMOOTH",
"424 348 OFFCURVE",
"427 300 OFFCURVE",
"431 251 CURVE"
);
},
{
closed = 1;
nodes = (
"495 782 LINE",
"495 824 LINE",
"162 824 LINE",
"162 782 LINE"
);
}
);
};
components = (
{
name = E;
},
{
name = macroncomb;
transform = "{1, 0, 0, 1, 310, 230}";
}
);
layerId = "671CEF0C-3804-4AAB-8F09-7652EF8CF253";
width = 631;
},
{
components = (
{
name = E;
},
{
name = macroncomb;
transform = "{1, 0, 0, 1, 311, 230}";
}
);
layerId = "467B800A-9F0B-4EDA-B6B6-3D16CD953827";
width = 626;
},
{
background = {
paths = (
{
closed = 1;
nodes = (
"554 0 LINE",
"571 179 LINE",
"544 179 LINE",
"538 124 OFFCURVE",
"520 40 OFFCURVE",
"456 40 CURVE SMOOTH",
"201 40 LINE",
"201 659 LINE",
"441 659 LINE SMOOTH",
"516 659 OFFCURVE",
"525 567 OFFCURVE",
"528 527 CURVE",
"555 527 LINE",
"555 700 LINE",
"16 700 LINE",
"16 673 LINE",
"44 673 LINE SMOOTH",
"83 673 OFFCURVE",
"103 662 OFFCURVE",
"103 637 CURVE SMOOTH",
"103 62 LINE SMOOTH",
"103 37 OFFCURVE",
"83 26 OFFCURVE",
"44 26 CURVE SMOOTH",
"16 26 LINE",
"16 0 LINE"
);
},
{
closed = 1;
nodes = (
"455 251 LINE",
"455 485 LINE",
"431 485 LINE",
"427 436 OFFCURVE",
"424 388 OFFCURVE",
"379 388 CURVE SMOOTH",
"162 388 LINE",
"162 348 LINE",
"379 348 LINE SMOOTH",
"424 348 OFFCURVE",
"427 300 OFFCURVE",
"431 251 CURVE"
);
},
{
closed = 1;
nodes = (
"495 782 LINE",
"495 824 LINE",
"162 824 LINE",
"162 782 LINE"
);
}
);
};
components = (
{
name = E;
},
{
name = macroncomb;
transform = "{1, 0, 0, 1, 309, 230}";
}
);
layerId = "D810D4E0-5EEA-4CB0-897C-7C2F2D158137";
width = 621;
},
{
background = {
paths = (
{
closed = 1;
nodes = (
"554 0 LINE",
"571 179 LINE",
"544 179 LINE",
"538 124 OFFCURVE",
"520 40 OFFCURVE",
"456 40 CURVE SMOOTH",
"201 40 LINE",
"201 659 LINE",
"441 659 LINE SMOOTH",
"516 659 OFFCURVE",
"525 567 OFFCURVE",
"528 527 CURVE",
"555 527 LINE",
"555 700 LINE",
"16 700 LINE",
"16 673 LINE",
"44 673 LINE SMOOTH",
"83 673 OFFCURVE",
"103 662 OFFCURVE",
"103 637 CURVE SMOOTH",
"103 62 LINE SMOOTH",
"103 37 OFFCURVE",
"83 26 OFFCURVE",
"44 26 CURVE SMOOTH",
"16 26 LINE",
"16 0 LINE"
);
},
{
closed = 1;
nodes = (
"455 251 LINE",
"455 485 LINE",
"431 485 LINE",
"427 436 OFFCURVE",
"424 388 OFFCURVE",
"379 388 CURVE SMOOTH",
"162 388 LINE",
"162 348 LINE",
"379 348 LINE SMOOTH",
"424 348 OFFCURVE",
"427 300 OFFCURVE",
"431 251 CURVE"
);
},
{
closed = 1;
nodes = (
"495 782 LINE",
"495 824 LINE",
"162 824 LINE",
"162 782 LINE"
);
}
);
};
components = (
{
name = E;
},
{
name = macroncomb;
transform = "{1, 0, 0, 1, 351, 230}";
}
);
layerId = "FBA9A202-A695-4A56-B536-8E03A4D5E61C";
width = 631;
},
{
components = (
{
name = E;
},
{
name = macroncomb;
transform = "{1, 0, 0, 1, 352, 230}";
}
);
layerId = "92CE152A-AC33-4332-A899-C7DC9B2DD026";
width = 626;
},
{
background = {
paths = (
{
closed = 1;
nodes = (
"554 0 LINE",
"571 179 LINE",
"544 179 LINE",
"538 124 OFFCURVE",
"520 40 OFFCURVE",
"456 40 CURVE SMOOTH",
"201 40 LINE",
"201 659 LINE",
"441 659 LINE SMOOTH",
"516 659 OFFCURVE",
"525 567 OFFCURVE",
"528 527 CURVE",
"555 527 LINE",
"555 700 LINE",
"16 700 LINE",
"16 673 LINE",
"44 673 LINE SMOOTH",
"83 673 OFFCURVE",
"103 662 OFFCURVE",
"103 637 CURVE SMOOTH",
"103 62 LINE SMOOTH",
"103 37 OFFCURVE",
"83 26 OFFCURVE",
"44 26 CURVE SMOOTH",
"16 26 LINE",
"16 0 LINE"
);
},
{
closed = 1;
nodes = (
"455 251 LINE",
"455 485 LINE",
"431 485 LINE",
"427 436 OFFCURVE",
"424 388 OFFCURVE",
"379 388 CURVE SMOOTH",
"162 388 LINE",
"162 348 LINE",
"379 348 LINE SMOOTH",
"424 348 OFFCURVE",
"427 300 OFFCURVE",
"431 251 CURVE"
);
},
{
closed = 1;
nodes = (
"495 782 LINE",
"495 824 LINE",
"162 824 LINE",
"162 782 LINE"
);
}
);
};
components = (
{
name = E;
},
{
name = macroncomb;
transform = "{1, 0, 0, 1, 350, 230}";
}
);
layerId = "8FB96992-DBAA-412F-B62D-2E73CBD2FD04";
width = 621;
}
);
note = Emacron;
rightKerningGroup = E;
unicode = 0112;
},
{
glyphname = Eogonek;
lastChange = "2018-07-24 14:43:54 +0000";
layers = (
{
background = {
paths = (
{
closed = 1;
nodes = (
"554 0 LINE",
"571 179 LINE",
"544 179 LINE",
"538 124 OFFCURVE",
"520 40 OFFCURVE",
"456 40 CURVE SMOOTH",
"201 40 LINE",
"201 659 LINE",
"441 659 LINE SMOOTH",
"516 659 OFFCURVE",
"525 567 OFFCURVE",
"528 527 CURVE",
"555 527 LINE",
"555 700 LINE",
"16 700 LINE",
"16 673 LINE",
"44 673 LINE SMOOTH",
"83 673 OFFCURVE",
"103 662 OFFCURVE",
"103 637 CURVE SMOOTH",
"103 62 LINE SMOOTH",
"103 37 OFFCURVE",
"83 26 OFFCURVE",
"44 26 CURVE SMOOTH",
"16 26 LINE",
"16 0 LINE"
);
},
{
closed = 1;
nodes = (
"496 -196 OFFCURVE",
"524 -189 OFFCURVE",
"549 -172 CURVE",
"543 -152 LINE",
"527 -158 OFFCURVE",
"510 -162 OFFCURVE",
"497 -162 CURVE SMOOTH",
"464 -162 OFFCURVE",
"437 -146 OFFCURVE",
"437 -106 CURVE SMOOTH",
"437 -66 OFFCURVE",
"464 -26 OFFCURVE",
"510 4 CURVE",
"469 4 LINE",
"416 -22 OFFCURVE",
"376 -64 OFFCURVE",
"376 -114 CURVE SMOOTH",
"376 -147 OFFCURVE",
"395 -196 OFFCURVE",
"470 -196 CURVE SMOOTH"
);
},
{
closed = 1;
nodes = (
"455 251 LINE",
"455 485 LINE",
"431 485 LINE",
"427 436 OFFCURVE",
"424 388 OFFCURVE",
"379 388 CURVE SMOOTH",
"162 388 LINE",
"162 348 LINE",
"379 348 LINE SMOOTH",
"424 348 OFFCURVE",
"427 300 OFFCURVE",
"431 251 CURVE"
);
}
);
};
components = (
{
name = E;
},
{
name = ogonekcomb;
transform = "{1, 0, 0, 1, 358, -10}";
}
);
layerId = "671CEF0C-3804-4AAB-8F09-7652EF8CF253";
width = 631;
},
{
components = (
{
name = E;
},
{
name = ogonekcomb;
transform = "{1, 0, 0, 1, 353, -4}";
}
);
layerId = "467B800A-9F0B-4EDA-B6B6-3D16CD953827";
width = 626;
},
{
background = {
paths = (
{
closed = 1;
nodes = (
"554 0 LINE",
"571 179 LINE",
"544 179 LINE",
"538 124 OFFCURVE",
"520 40 OFFCURVE",
"456 40 CURVE SMOOTH",
"201 40 LINE",
"201 659 LINE",
"441 659 LINE SMOOTH",
"516 659 OFFCURVE",
"525 567 OFFCURVE",
"528 527 CURVE",
"555 527 LINE",
"555 700 LINE",
"16 700 LINE",
"16 673 LINE",
"44 673 LINE SMOOTH",
"83 673 OFFCURVE",
"103 662 OFFCURVE",
"103 637 CURVE SMOOTH",
"103 62 LINE SMOOTH",
"103 37 OFFCURVE",
"83 26 OFFCURVE",
"44 26 CURVE SMOOTH",
"16 26 LINE",
"16 0 LINE"
);
},
{
closed = 1;
nodes = (
"496 -196 OFFCURVE",
"524 -189 OFFCURVE",
"549 -172 CURVE",
"543 -152 LINE",
"527 -158 OFFCURVE",
"510 -162 OFFCURVE",
"497 -162 CURVE SMOOTH",
"464 -162 OFFCURVE",
"437 -146 OFFCURVE",
"437 -106 CURVE SMOOTH",
"437 -66 OFFCURVE",
"464 -26 OFFCURVE",
"510 4 CURVE",
"469 4 LINE",
"416 -22 OFFCURVE",
"376 -64 OFFCURVE",
"376 -114 CURVE SMOOTH",
"376 -147 OFFCURVE",
"395 -196 OFFCURVE",
"470 -196 CURVE SMOOTH"
);
},
{
closed = 1;
nodes = (
"455 251 LINE",
"455 485 LINE",
"431 485 LINE",
"427 436 OFFCURVE",
"424 388 OFFCURVE",
"379 388 CURVE SMOOTH",
"162 388 LINE",
"162 348 LINE",
"379 348 LINE SMOOTH",
"424 348 OFFCURVE",
"427 300 OFFCURVE",
"431 251 CURVE"
);
}
);
};
components = (
{
name = E;
},
{
name = ogonekcomb;
transform = "{1, 0, 0, 1, 345, 4}";
}
);
layerId = "D810D4E0-5EEA-4CB0-897C-7C2F2D158137";
width = 621;
},
{
background = {
paths = (
{
closed = 1;
nodes = (
"554 0 LINE",
"571 179 LINE",
"544 179 LINE",
"538 124 OFFCURVE",
"520 40 OFFCURVE",
"456 40 CURVE SMOOTH",
"201 40 LINE",
"201 659 LINE",
"441 659 LINE SMOOTH",
"516 659 OFFCURVE",
"525 567 OFFCURVE",
"528 527 CURVE",
"555 527 LINE",
"555 700 LINE",
"16 700 LINE",
"16 673 LINE",
"44 673 LINE SMOOTH",
"83 673 OFFCURVE",
"103 662 OFFCURVE",
"103 637 CURVE SMOOTH",
"103 62 LINE SMOOTH",
"103 37 OFFCURVE",
"83 26 OFFCURVE",
"44 26 CURVE SMOOTH",
"16 26 LINE",
"16 0 LINE"
);
},
{
closed = 1;
nodes = (
"496 -196 OFFCURVE",
"524 -189 OFFCURVE",
"549 -172 CURVE",
"543 -152 LINE",
"527 -158 OFFCURVE",
"510 -162 OFFCURVE",
"497 -162 CURVE SMOOTH",
"464 -162 OFFCURVE",
"437 -146 OFFCURVE",
"437 -106 CURVE SMOOTH",
"437 -66 OFFCURVE",
"464 -26 OFFCURVE",
"510 4 CURVE",
"469 4 LINE",
"416 -22 OFFCURVE",
"376 -64 OFFCURVE",
"376 -114 CURVE SMOOTH",
"376 -147 OFFCURVE",
"395 -196 OFFCURVE",
"470 -196 CURVE SMOOTH"
);
},
{
closed = 1;
nodes = (
"455 251 LINE",
"455 485 LINE",
"431 485 LINE",
"427 436 OFFCURVE",
"424 388 OFFCURVE",
"379 388 CURVE SMOOTH",
"162 388 LINE",
"162 348 LINE",
"379 348 LINE SMOOTH",
"424 348 OFFCURVE",
"427 300 OFFCURVE",
"431 251 CURVE"
);
}
);
};
components = (
{
name = E;
},
{
name = ogonekcomb;
transform = "{1, 0, 0, 1, 360, -10}";
}
);
layerId = "FBA9A202-A695-4A56-B536-8E03A4D5E61C";
width = 631;
},
{
components = (
{
name = E;
},
{
name = ogonekcomb;
transform = "{1, 0, 0, 1, 376, -4}";
}
);
layerId = "92CE152A-AC33-4332-A899-C7DC9B2DD026";
width = 626;
},
{
background = {
paths = (
{
closed = 1;
nodes = (
"554 0 LINE",
"571 179 LINE",
"544 179 LINE",
"538 124 OFFCURVE",
"520 40 OFFCURVE",
"456 40 CURVE SMOOTH",
"201 40 LINE",
"201 659 LINE",
"441 659 LINE SMOOTH",
"516 659 OFFCURVE",
"525 567 OFFCURVE",
"528 527 CURVE",
"555 527 LINE",
"555 700 LINE",
"16 700 LINE",
"16 673 LINE",
"44 673 LINE SMOOTH",
"83 673 OFFCURVE",
"103 662 OFFCURVE",
"103 637 CURVE SMOOTH",
"103 62 LINE SMOOTH",
"103 37 OFFCURVE",
"83 26 OFFCURVE",
"44 26 CURVE SMOOTH",
"16 26 LINE",
"16 0 LINE"
);
},
{
closed = 1;
nodes = (
"496 -196 OFFCURVE",
"524 -189 OFFCURVE",
"549 -172 CURVE",
"543 -152 LINE",
"527 -158 OFFCURVE",
"510 -162 OFFCURVE",
"497 -162 CURVE SMOOTH",
"464 -162 OFFCURVE",
"437 -146 OFFCURVE",
"437 -106 CURVE SMOOTH",
"437 -66 OFFCURVE",
"464 -26 OFFCURVE",
"510 4 CURVE",
"469 4 LINE",
"416 -22 OFFCURVE",
"376 -64 OFFCURVE",
"376 -114 CURVE SMOOTH",
"376 -147 OFFCURVE",
"395 -196 OFFCURVE",
"470 -196 CURVE SMOOTH"
);
},
{
closed = 1;
nodes = (
"455 251 LINE",
"455 485 LINE",
"431 485 LINE",
"427 436 OFFCURVE",
"424 388 OFFCURVE",
"379 388 CURVE SMOOTH",
"162 388 LINE",
"162 348 LINE",
"379 348 LINE SMOOTH",
"424 348 OFFCURVE",
"427 300 OFFCURVE",
"431 251 CURVE"
);
}
);
};
components = (
{
name = E;
},
{
name = ogonekcomb;
transform = "{1, 0, 0, 1, 343, 1}";
}
);
layerId = "8FB96992-DBAA-412F-B62D-2E73CBD2FD04";
width = 621;
}
);
note = Eogonek;
rightKerningGroup = E;
unicode = 0118;
},
{
glyphname = Etilde;
lastChange = "2018-07-08 08:32:23 +0000";
layers = (
{
background = {
paths = (
{
closed = 1;
nodes = (
"554 0 LINE",
"571 179 LINE",
"544 179 LINE",
"538 124 OFFCURVE",
"520 40 OFFCURVE",
"456 40 CURVE SMOOTH",
"201 40 LINE",
"201 659 LINE",
"441 659 LINE SMOOTH",
"516 659 OFFCURVE",
"525 567 OFFCURVE",
"528 527 CURVE",
"555 527 LINE",
"555 700 LINE",
"16 700 LINE",
"16 673 LINE",
"44 673 LINE SMOOTH",
"83 673 OFFCURVE",
"103 662 OFFCURVE",
"103 637 CURVE SMOOTH",
"103 62 LINE SMOOTH",
"103 37 OFFCURVE",
"83 26 OFFCURVE",
"44 26 CURVE SMOOTH",
"16 26 LINE",
"16 0 LINE"
);
},
{
closed = 1;
nodes = (
"455 251 LINE",
"455 485 LINE",
"431 485 LINE",
"427 436 OFFCURVE",
"424 388 OFFCURVE",
"379 388 CURVE SMOOTH",
"162 388 LINE",
"162 348 LINE",
"379 348 LINE SMOOTH",
"424 348 OFFCURVE",
"427 300 OFFCURVE",
"431 251 CURVE"
);
},
{
closed = 1;
nodes = (
"190 817 OFFCURVE",
"208 838 OFFCURVE",
"241 838 CURVE SMOOTH",
"292 838 OFFCURVE",
"341 784 OFFCURVE",
"392 784 CURVE SMOOTH",
"450 784 OFFCURVE",
"480 832 OFFCURVE",
"492 884 CURVE",
"471 895 LINE",
"455 855 OFFCURVE",
"439 833 OFFCURVE",
"405 833 CURVE SMOOTH",
"356 833 OFFCURVE",
"304 886 OFFCURVE",
"253 886 CURVE SMOOTH",
"199 886 OFFCURVE",
"166 842 OFFCURVE",
"154 790 CURVE",
"176 779 LINE"
);
}
);
};
components = (
{
name = E;
},
{
name = tildecomb;
transform = "{1, 0, 0, 1, 85, 191}";
}
);
layerId = "671CEF0C-3804-4AAB-8F09-7652EF8CF253";
width = 631;
},
{
components = (
{
name = E;
},
{
name = tildecomb;
transform = "{1, 0, 0, 1, 108, 191}";
}
);
layerId = "467B800A-9F0B-4EDA-B6B6-3D16CD953827";
width = 626;
},
{
background = {
paths = (
{
closed = 1;
nodes = (
"554 0 LINE",
"571 179 LINE",
"544 179 LINE",
"538 124 OFFCURVE",
"520 40 OFFCURVE",
"456 40 CURVE SMOOTH",
"201 40 LINE",
"201 659 LINE",
"441 659 LINE SMOOTH",
"516 659 OFFCURVE",
"525 567 OFFCURVE",
"528 527 CURVE",
"555 527 LINE",
"555 700 LINE",
"16 700 LINE",
"16 673 LINE",
"44 673 LINE SMOOTH",
"83 673 OFFCURVE",
"103 662 OFFCURVE",
"103 637 CURVE SMOOTH",
"103 62 LINE SMOOTH",
"103 37 OFFCURVE",
"83 26 OFFCURVE",
"44 26 CURVE SMOOTH",
"16 26 LINE",
"16 0 LINE"
);
},
{
closed = 1;
nodes = (
"455 251 LINE",
"455 485 LINE",
"431 485 LINE",
"427 436 OFFCURVE",
"424 388 OFFCURVE",
"379 388 CURVE SMOOTH",
"162 388 LINE",
"162 348 LINE",
"379 348 LINE SMOOTH",
"424 348 OFFCURVE",
"427 300 OFFCURVE",
"431 251 CURVE"
);
},
{
closed = 1;
nodes = (
"190 817 OFFCURVE",
"208 838 OFFCURVE",
"241 838 CURVE SMOOTH",
"292 838 OFFCURVE",
"341 784 OFFCURVE",
"392 784 CURVE SMOOTH",
"450 784 OFFCURVE",
"480 832 OFFCURVE",
"492 884 CURVE",
"471 895 LINE",
"455 855 OFFCURVE",
"439 833 OFFCURVE",
"405 833 CURVE SMOOTH",
"356 833 OFFCURVE",
"304 886 OFFCURVE",
"253 886 CURVE SMOOTH",
"199 886 OFFCURVE",
"166 842 OFFCURVE",
"154 790 CURVE",
"176 779 LINE"
);
}
);
};
components = (
{
name = E;
},
{
name = tildecomb;
transform = "{1, 0, 0, 1, 122, 191}";
}
);
layerId = "D810D4E0-5EEA-4CB0-897C-7C2F2D158137";
width = 621;
},
{
background = {
paths = (
{
closed = 1;
nodes = (
"554 0 LINE",
"571 179 LINE",
"544 179 LINE",
"538 124 OFFCURVE",
"520 40 OFFCURVE",
"456 40 CURVE SMOOTH",
"201 40 LINE",
"201 659 LINE",
"441 659 LINE SMOOTH",
"516 659 OFFCURVE",
"525 567 OFFCURVE",
"528 527 CURVE",
"555 527 LINE",
"555 700 LINE",
"16 700 LINE",
"16 673 LINE",
"44 673 LINE SMOOTH",
"83 673 OFFCURVE",
"103 662 OFFCURVE",
"103 637 CURVE SMOOTH",
"103 62 LINE SMOOTH",
"103 37 OFFCURVE",
"83 26 OFFCURVE",
"44 26 CURVE SMOOTH",
"16 26 LINE",
"16 0 LINE"
);
},
{
closed = 1;
nodes = (
"455 251 LINE",
"455 485 LINE",
"431 485 LINE",
"427 436 OFFCURVE",
"424 388 OFFCURVE",
"379 388 CURVE SMOOTH",
"162 388 LINE",
"162 348 LINE",
"379 348 LINE SMOOTH",
"424 348 OFFCURVE",
"427 300 OFFCURVE",
"431 251 CURVE"
);
},
{
closed = 1;
nodes = (
"190 817 OFFCURVE",
"208 838 OFFCURVE",
"241 838 CURVE SMOOTH",
"292 838 OFFCURVE",
"341 784 OFFCURVE",
"392 784 CURVE SMOOTH",
"450 784 OFFCURVE",
"480 832 OFFCURVE",
"492 884 CURVE",
"471 895 LINE",
"455 855 OFFCURVE",
"439 833 OFFCURVE",
"405 833 CURVE SMOOTH",
"356 833 OFFCURVE",
"304 886 OFFCURVE",
"253 886 CURVE SMOOTH",
"199 886 OFFCURVE",
"166 842 OFFCURVE",
"154 790 CURVE",
"176 779 LINE"
);
}
);
};
components = (
{
name = E;
},
{
name = tildecomb;
transform = "{1, 0, 0, 1, 119, 191}";
}
);
layerId = "FBA9A202-A695-4A56-B536-8E03A4D5E61C";
width = 631;
},
{
components = (
{
name = E;
},
{
name = tildecomb;
transform = "{1, 0, 0, 1, 142, 191}";
}
);
layerId = "92CE152A-AC33-4332-A899-C7DC9B2DD026";
width = 626;
},
{
background = {
paths = (
{
closed = 1;
nodes = (
"554 0 LINE",
"571 179 LINE",
"544 179 LINE",
"538 124 OFFCURVE",
"520 40 OFFCURVE",
"456 40 CURVE SMOOTH",
"201 40 LINE",
"201 659 LINE",
"441 659 LINE SMOOTH",
"516 659 OFFCURVE",
"525 567 OFFCURVE",
"528 527 CURVE",
"555 527 LINE",
"555 700 LINE",
"16 700 LINE",
"16 673 LINE",
"44 673 LINE SMOOTH",
"83 673 OFFCURVE",
"103 662 OFFCURVE",
"103 637 CURVE SMOOTH",
"103 62 LINE SMOOTH",
"103 37 OFFCURVE",
"83 26 OFFCURVE",
"44 26 CURVE SMOOTH",
"16 26 LINE",
"16 0 LINE"
);
},
{
closed = 1;
nodes = (
"455 251 LINE",
"455 485 LINE",
"431 485 LINE",
"427 436 OFFCURVE",
"424 388 OFFCURVE",
"379 388 CURVE SMOOTH",
"162 388 LINE",
"162 348 LINE",
"379 348 LINE SMOOTH",
"424 348 OFFCURVE",
"427 300 OFFCURVE",
"431 251 CURVE"
);
},
{
closed = 1;
nodes = (
"190 817 OFFCURVE",
"208 838 OFFCURVE",
"241 838 CURVE SMOOTH",
"292 838 OFFCURVE",
"341 784 OFFCURVE",
"392 784 CURVE SMOOTH",
"450 784 OFFCURVE",
"480 832 OFFCURVE",
"492 884 CURVE",
"471 895 LINE",
"455 855 OFFCURVE",
"439 833 OFFCURVE",
"405 833 CURVE SMOOTH",
"356 833 OFFCURVE",
"304 886 OFFCURVE",
"253 886 CURVE SMOOTH",
"199 886 OFFCURVE",
"166 842 OFFCURVE",
"154 790 CURVE",
"176 779 LINE"
);
}
);
};
components = (
{
name = E;
},
{
name = tildecomb;
transform = "{1, 0, 0, 1, 156, 191}";
}
);
layerId = "8FB96992-DBAA-412F-B62D-2E73CBD2FD04";
width = 621;
}
);
note = Etilde;
rightKerningGroup = E;
unicode = 1EBC;
},
{
glyphname = F;
lastChange = "2018-07-08 08:32:23 +0000";
layers = (
{
anchors = (
{
name = bottom;
position = "{296, 0}";
},
{
name = top;
position = "{296, 700}";
}
);
background = {
paths = (
{
closed = 1;
nodes = (
"118 -9 OFFCURVE",
"139 12 OFFCURVE",
"139 50 CURVE SMOOTH",
"139 324 LINE",
"377 324 LINE SMOOTH",
"413 324 OFFCURVE",
"431 342 OFFCURVE",
"431 377 CURVE",
"139 377 LINE",
"139 481 LINE SMOOTH",
"139 576 OFFCURVE",
"234 656 OFFCURVE",
"355 656 CURVE SMOOTH",
"478 656 OFFCURVE",
"573 576 OFFCURVE",
"573 481 CURVE SMOOTH",
"573 472 OFFCURVE",
"573 461 OFFCURVE",
"572 451 CURVE",
"603 451 OFFCURVE",
"638 470 OFFCURVE",
"628 523 CURVE",
"594 649 OFFCURVE",
"472 709 OFFCURVE",
"355 709 CURVE SMOOTH",
"223 709 OFFCURVE",
"80 621 OFFCURVE",
"80 481 CURVE SMOOTH",
"80 -9 LINE"
);
}
);
};
layerId = "671CEF0C-3804-4AAB-8F09-7652EF8CF253";
paths = (
{
closed = 1;
nodes = (
"159 -9 OFFCURVE",
"202 21 OFFCURVE",
"202 92 CURVE SMOOTH",
"202 295 LINE",
"371 295 LINE SMOOTH",
"436 295 OFFCURVE",
"464 333 OFFCURVE",
"464 421 CURVE",
"202 421 LINE",
"202 574 LINE",
"491 574 LINE SMOOTH",
"556 574 OFFCURVE",
"584 612 OFFCURVE",
"584 700 CURVE",
"129 700 LINE SMOOTH",
"88 700 OFFCURVE",
"55 670 OFFCURVE",
"55 633 CURVE SMOOTH",
"55 -9 LINE"
);
}
);
width = 619;
},
{
anchors = (
{
name = bottom;
position = "{296, 0}";
},
{
name = top;
position = "{296, 700}";
}
);
layerId = "467B800A-9F0B-4EDA-B6B6-3D16CD953827";
paths = (
{
closed = 1;
nodes = (
"134 -9 OFFCURVE",
"164 15 OFFCURVE",
"164 67 CURVE SMOOTH",
"164 317 LINE",
"375 317 LINE SMOOTH",
"422 317 OFFCURVE",
"444 343 OFFCURVE",
"444 399 CURVE",
"164 399 LINE",
"164 618 LINE",
"495 618 LINE SMOOTH",
"542 618 OFFCURVE",
"564 644 OFFCURVE",
"564 700 CURVE",
"118 700 LINE SMOOTH",
"91 700 OFFCURVE",
"70 681 OFFCURVE",
"70 656 CURVE SMOOTH",
"70 -9 LINE"
);
}
);
width = 599;
},
{
anchors = (
{
name = bottom;
position = "{294, 0}";
},
{
name = top;
position = "{294, 700}";
}
);
background = {
paths = (
{
closed = 1;
nodes = (
"118 -9 OFFCURVE",
"139 12 OFFCURVE",
"139 50 CURVE SMOOTH",
"139 324 LINE",
"377 324 LINE SMOOTH",
"413 324 OFFCURVE",
"431 342 OFFCURVE",
"431 377 CURVE",
"139 377 LINE",
"139 481 LINE SMOOTH",
"139 576 OFFCURVE",
"234 656 OFFCURVE",
"355 656 CURVE SMOOTH",
"478 656 OFFCURVE",
"573 576 OFFCURVE",
"573 481 CURVE SMOOTH",
"573 472 OFFCURVE",
"573 461 OFFCURVE",
"572 451 CURVE",
"603 451 OFFCURVE",
"638 470 OFFCURVE",
"628 523 CURVE",
"594 649 OFFCURVE",
"472 709 OFFCURVE",
"355 709 CURVE SMOOTH",
"223 709 OFFCURVE",
"80 621 OFFCURVE",
"80 481 CURVE SMOOTH",
"80 -9 LINE"
);
}
);
};
layerId = "D810D4E0-5EEA-4CB0-897C-7C2F2D158137";
paths = (
{
closed = 1;
nodes = (
"112 -9 OFFCURVE",
"131 11 OFFCURVE",
"131 46 CURVE SMOOTH",
"131 334 LINE",
"375 334 LINE SMOOTH",
"408 334 OFFCURVE",
"426 350 OFFCURVE",
"426 381 CURVE",
"131 381 LINE",
"131 654 LINE",
"495 654 LINE SMOOTH",
"528 654 OFFCURVE",
"546 670 OFFCURVE",
"546 700 CURVE",
"106 700 LINE SMOOTH",
"92 700 OFFCURVE",
"80 689 OFFCURVE",
"80 675 CURVE SMOOTH",
"80 -9 LINE"
);
}
);
width = 591;
},
{
anchors = (
{
name = bottom;
position = "{252, 0}";
},
{
name = top;
position = "{375, 700}";
}
);
background = {
paths = (
{
closed = 1;
nodes = (
"118 -9 OFFCURVE",
"139 12 OFFCURVE",
"139 50 CURVE SMOOTH",
"139 324 LINE",
"377 324 LINE SMOOTH",
"413 324 OFFCURVE",
"431 342 OFFCURVE",
"431 377 CURVE",
"139 377 LINE",
"139 481 LINE SMOOTH",
"139 576 OFFCURVE",
"234 656 OFFCURVE",
"355 656 CURVE SMOOTH",
"478 656 OFFCURVE",
"573 576 OFFCURVE",
"573 481 CURVE SMOOTH",
"573 472 OFFCURVE",
"573 461 OFFCURVE",
"572 451 CURVE",
"603 451 OFFCURVE",
"638 470 OFFCURVE",
"628 523 CURVE",
"594 649 OFFCURVE",
"472 709 OFFCURVE",
"355 709 CURVE SMOOTH",
"223 709 OFFCURVE",
"80 621 OFFCURVE",
"80 481 CURVE SMOOTH",
"80 -9 LINE"
);
}
);
};
layerId = "FBA9A202-A695-4A56-B536-8E03A4D5E61C";
paths = (
{
closed = 1;
nodes = (
"113 -9 OFFCURVE",
"161 21 OFFCURVE",
"174 92 CURVE SMOOTH",
"210 295 LINE",
"379 295 LINE SMOOTH",
"444 295 OFFCURVE",
"478 332 OFFCURVE",
"494 421 CURVE",
"232 421 LINE",
"259 574 LINE",
"548 574 LINE SMOOTH",
"613 574 OFFCURVE",
"647 612 OFFCURVE",
"663 700 CURVE",
"208 700 LINE SMOOTH",
"167 700 OFFCURVE",
"129 670 OFFCURVE",
"122 633 CURVE SMOOTH",
"9 -9 LINE"
);
}
);
width = 619;
},
{
anchors = (
{
name = bottom;
position = "{252, 0}";
},
{
name = top;
position = "{375, 700}";
}
);
layerId = "92CE152A-AC33-4332-A899-C7DC9B2DD026";
paths = (
{
closed = 1;
nodes = (
"88 -9 OFFCURVE",
"122 16 OFFCURVE",
"131 67 CURVE SMOOTH",
"175 317 LINE",
"386 317 LINE SMOOTH",
"433 317 OFFCURVE",
"461 344 OFFCURVE",
"470 399 CURVE",
"190 399 LINE",
"229 618 LINE",
"560 618 LINE SMOOTH",
"607 618 OFFCURVE",
"634 644 OFFCURVE",
"643 700 CURVE",
"197 700 LINE SMOOTH",
"170 700 OFFCURVE",
"145 681 OFFCURVE",
"141 656 CURVE SMOOTH",
"24 -9 LINE"
);
}
);
width = 599;
},
{
anchors = (
{
name = bottom;
position = "{59, 0}";
},
{
name = top;
position = "{373, 700}";
}
);
background = {
paths = (
{
closed = 1;
nodes = (
"118 -9 OFFCURVE",
"139 12 OFFCURVE",
"139 50 CURVE SMOOTH",
"139 324 LINE",
"377 324 LINE SMOOTH",
"413 324 OFFCURVE",
"431 342 OFFCURVE",
"431 377 CURVE",
"139 377 LINE",
"139 481 LINE SMOOTH",
"139 576 OFFCURVE",
"234 656 OFFCURVE",
"355 656 CURVE SMOOTH",
"478 656 OFFCURVE",
"573 576 OFFCURVE",
"573 481 CURVE SMOOTH",
"573 472 OFFCURVE",
"573 461 OFFCURVE",
"572 451 CURVE",
"603 451 OFFCURVE",
"638 470 OFFCURVE",
"628 523 CURVE",
"594 649 OFFCURVE",
"472 709 OFFCURVE",
"355 709 CURVE SMOOTH",
"223 709 OFFCURVE",
"80 621 OFFCURVE",
"80 481 CURVE SMOOTH",
"80 -9 LINE"
);
}
);
};
layerId = "8FB96992-DBAA-412F-B62D-2E73CBD2FD04";
paths = (
{
closed = 1;
nodes = (
"66 -9 OFFCURVE",
"89 11 OFFCURVE",
"95 46 CURVE SMOOTH",
"145 334 LINE",
"389 334 LINE SMOOTH",
"422 334 OFFCURVE",
"443 350 OFFCURVE",
"449 381 CURVE",
"154 381 LINE",
"202 654 LINE",
"566 654 LINE SMOOTH",
"599 654 OFFCURVE",
"620 671 OFFCURVE",
"625 700 CURVE",
"185 700 LINE SMOOTH",
"171 700 OFFCURVE",
"157 689 OFFCURVE",
"155 675 CURVE SMOOTH",
"34 -9 LINE"
);
}
);
width = 591;
}
);
note = F;
unicode = 0046;
},
{
glyphname = G;
lastChange = "2018-07-08 10:10:07 +0000";
layers = (
{
anchors = (
{
name = bottom;
position = "{338, 0}";
},
{
name = top;
position = "{338, 700}";
}
);
background = {
paths = (
{
closed = 1;
nodes = (
"474 -9 OFFCURVE",
"621 75 OFFCURVE",
"621 221 CURVE",
"621 221 OFFCURVE",
"621 332 OFFCURVE",
"621 348 CURVE SMOOTH",
"621 364 OFFCURVE",
"608 377 OFFCURVE",
"591 377 CURVE SMOOTH",
"400 377 LINE SMOOTH",
"364 377 OFFCURVE",
"347 360 OFFCURVE",
"347 324 CURVE",
"562 324 LINE",
"562 221 LINE SMOOTH",
"562 125 OFFCURVE",
"466 44 OFFCURVE",
"345 44 CURVE SMOOTH",
"224 44 OFFCURVE",
"129 125 OFFCURVE",
"129 221 CURVE SMOOTH",
"129 481 LINE SMOOTH",
"129 576 OFFCURVE",
"224 656 OFFCURVE",
"345 656 CURVE SMOOTH",
"468 656 OFFCURVE",
"563 576 OFFCURVE",
"563 481 CURVE SMOOTH",
"563 472 OFFCURVE",
"563 461 OFFCURVE",
"562 451 CURVE",
"593 451 OFFCURVE",
"630 470 OFFCURVE",
"618 523 CURVE SMOOTH",
"589 649 OFFCURVE",
"462 709 OFFCURVE",
"345 709 CURVE SMOOTH",
"213 709 OFFCURVE",
"70 621 OFFCURVE",
"70 481 CURVE SMOOTH",
"70 221 LINE SMOOTH",
"70 75 OFFCURVE",
"217 -9 OFFCURVE",
"345 -9 CURVE SMOOTH"
);
}
);
};
layerId = "671CEF0C-3804-4AAB-8F09-7652EF8CF253";
paths = (
{
closed = 1;
nodes = (
"525 -9 OFFCURVE",
"650 88 OFFCURVE",
"650 228 CURVE SMOOTH",
"650 302 LINE SMOOTH",
"650 342 OFFCURVE",
"622 369 OFFCURVE",
"582 369 CURVE SMOOTH",
"339 369 LINE",
"339 301 OFFCURVE",
"377 254 OFFCURVE",
"431 254 CURVE SMOOTH",
"504 254 LINE",
"504 231 LINE SMOOTH",
"504 164 OFFCURVE",
"439 117 OFFCURVE",
"346 117 CURVE SMOOTH",
"249 117 OFFCURVE",
"182 178 OFFCURVE",
"182 266 CURVE SMOOTH",
"182 436 LINE SMOOTH",
"182 523 OFFCURVE",
"247 583 OFFCURVE",
"340 583 CURVE SMOOTH",
"435 583 OFFCURVE",
"501 538 OFFCURVE",
"501 474 CURVE SMOOTH",
"501 459 OFFCURVE",
"500 438 OFFCURVE",
"498 424 CURVE",
"585 402 OFFCURVE",
"646 434 OFFCURVE",
"646 501 CURVE SMOOTH",
"646 624 OFFCURVE",
"521 709 OFFCURVE",
"340 709 CURVE SMOOTH",
"160 709 OFFCURVE",
"35 597 OFFCURVE",
"35 436 CURVE SMOOTH",
"35 266 LINE SMOOTH",
"35 104 OFFCURVE",
"163 -9 OFFCURVE",
"346 -9 CURVE SMOOTH"
);
}
);
width = 685;
},
{
anchors = (
{
name = bottom;
position = "{342, 0}";
},
{
name = top;
position = "{342, 700}";
}
);
layerId = "467B800A-9F0B-4EDA-B6B6-3D16CD953827";
paths = (
{
closed = 1;
nodes = (
"521 -9 OFFCURVE",
"639 87 OFFCURVE",
"639 224 CURVE SMOOTH",
"639 315 LINE SMOOTH",
"639 341 OFFCURVE",
"621 359 OFFCURVE",
"594 359 CURVE SMOOTH",
"350 359 LINE",
"350 313 OFFCURVE",
"378 281 OFFCURVE",
"419 281 CURVE SMOOTH",
"545 281 LINE",
"545 225 LINE SMOOTH",
"545 135 OFFCURVE",
"465 73 OFFCURVE",
"351 73 CURVE SMOOTH",
"235 73 OFFCURVE",
"154 141 OFFCURVE",
"154 239 CURVE SMOOTH",
"154 463 LINE SMOOTH",
"154 560 OFFCURVE",
"233 627 OFFCURVE",
"347 627 CURVE SMOOTH",
"462 627 OFFCURVE",
"542 566 OFFCURVE",
"542 478 CURVE SMOOTH",
"542 462 OFFCURVE",
"541 446 OFFCURVE",
"540 440 CURVE",
"595 431 OFFCURVE",
"634 456 OFFCURVE",
"634 502 CURVE SMOOTH",
"634 624 OFFCURVE",
"516 709 OFFCURVE",
"347 709 CURVE SMOOTH",
"178 709 OFFCURVE",
"60 608 OFFCURVE",
"60 463 CURVE SMOOTH",
"60 239 LINE SMOOTH",
"60 93 OFFCURVE",
"179 -9 OFFCURVE",
"351 -9 CURVE SMOOTH"
);
}
);
width = 694;
},
{
anchors = (
{
name = bottom;
position = "{335, 0}";
},
{
name = top;
position = "{335, 700}";
}
);
background = {
paths = (
{
closed = 1;
nodes = (
"474 -9 OFFCURVE",
"621 75 OFFCURVE",
"621 221 CURVE",
"621 221 OFFCURVE",
"621 332 OFFCURVE",
"621 348 CURVE SMOOTH",
"621 364 OFFCURVE",
"608 377 OFFCURVE",
"591 377 CURVE SMOOTH",
"400 377 LINE SMOOTH",
"364 377 OFFCURVE",
"347 360 OFFCURVE",
"347 324 CURVE",
"562 324 LINE",
"562 221 LINE SMOOTH",
"562 125 OFFCURVE",
"466 44 OFFCURVE",
"345 44 CURVE SMOOTH",
"224 44 OFFCURVE",
"129 125 OFFCURVE",
"129 221 CURVE SMOOTH",
"129 481 LINE SMOOTH",
"129 576 OFFCURVE",
"224 656 OFFCURVE",
"345 656 CURVE SMOOTH",
"468 656 OFFCURVE",
"563 576 OFFCURVE",
"563 481 CURVE SMOOTH",
"563 472 OFFCURVE",
"563 461 OFFCURVE",
"562 451 CURVE",
"593 451 OFFCURVE",
"630 470 OFFCURVE",
"618 523 CURVE SMOOTH",
"589 649 OFFCURVE",
"462 709 OFFCURVE",
"345 709 CURVE SMOOTH",
"213 709 OFFCURVE",
"70 621 OFFCURVE",
"70 481 CURVE SMOOTH",
"70 221 LINE SMOOTH",
"70 75 OFFCURVE",
"217 -9 OFFCURVE",
"345 -9 CURVE SMOOTH"
);
}
);
};
layerId = "D810D4E0-5EEA-4CB0-897C-7C2F2D158137";
paths = (
{
closed = 1;
nodes = (
"506 -9 OFFCURVE",
"619 85 OFFCURVE",
"619 220 CURVE SMOOTH",
"619 325 LINE SMOOTH",
"619 340 OFFCURVE",
"608 350 OFFCURVE",
"593 350 CURVE SMOOTH",
"349 350 LINE",
"349 322 OFFCURVE",
"369 303 OFFCURVE",
"398 303 CURVE SMOOTH",
"569 303 LINE",
"569 220 LINE SMOOTH",
"569 112 OFFCURVE",
"477 37 OFFCURVE",
"344 37 CURVE SMOOTH",
"212 37 OFFCURVE",
"121 111 OFFCURVE",
"121 217 CURVE SMOOTH",
"121 485 LINE SMOOTH",
"121 590 OFFCURVE",
"212 663 OFFCURVE",
"342 663 CURVE SMOOTH",
"474 663 OFFCURVE",
"566 589 OFFCURVE",
"566 482 CURVE SMOOTH",
"566 469 OFFCURVE",
"566 458 OFFCURVE",
"565 454 CURVE",
"594 455 OFFCURVE",
"614 475 OFFCURVE",
"614 503 CURVE SMOOTH",
"614 625 OFFCURVE",
"502 709 OFFCURVE",
"342 709 CURVE SMOOTH",
"182 709 OFFCURVE",
"70 617 OFFCURVE",
"70 485 CURVE SMOOTH",
"70 217 LINE SMOOTH",
"70 84 OFFCURVE",
"182 -9 OFFCURVE",
"344 -9 CURVE SMOOTH"
);
}
);
width = 684;
},
{
anchors = (
{
name = bottom;
position = "{294, 0}";
},
{
name = top;
position = "{418, 700}";
}
);
background = {
paths = (
{
closed = 1;
nodes = (
"474 -9 OFFCURVE",
"621 75 OFFCURVE",
"621 221 CURVE",
"621 221 OFFCURVE",
"621 332 OFFCURVE",
"621 348 CURVE SMOOTH",
"621 364 OFFCURVE",
"608 377 OFFCURVE",
"591 377 CURVE SMOOTH",
"400 377 LINE SMOOTH",
"364 377 OFFCURVE",
"347 360 OFFCURVE",
"347 324 CURVE",
"562 324 LINE",
"562 221 LINE SMOOTH",
"562 125 OFFCURVE",
"466 44 OFFCURVE",
"345 44 CURVE SMOOTH",
"224 44 OFFCURVE",
"129 125 OFFCURVE",
"129 221 CURVE SMOOTH",
"129 481 LINE SMOOTH",
"129 576 OFFCURVE",
"224 656 OFFCURVE",
"345 656 CURVE SMOOTH",
"468 656 OFFCURVE",
"563 576 OFFCURVE",
"563 481 CURVE SMOOTH",
"563 472 OFFCURVE",
"563 461 OFFCURVE",
"562 451 CURVE",
"593 451 OFFCURVE",
"630 470 OFFCURVE",
"618 523 CURVE SMOOTH",
"589 649 OFFCURVE",
"462 709 OFFCURVE",
"345 709 CURVE SMOOTH",
"213 709 OFFCURVE",
"70 621 OFFCURVE",
"70 481 CURVE SMOOTH",
"70 221 LINE SMOOTH",
"70 75 OFFCURVE",
"217 -9 OFFCURVE",
"345 -9 CURVE SMOOTH"
);
}
);
};
layerId = "FBA9A202-A695-4A56-B536-8E03A4D5E61C";
paths = (
{
closed = 1;
nodes = (
"486 -9 OFFCURVE",
"621 88 OFFCURVE",
"645 228 CURVE SMOOTH",
"658 302 LINE SMOOTH",
"665 342 OFFCURVE",
"642 369 OFFCURVE",
"602 369 CURVE SMOOTH",
"359 369 LINE",
"347 301 OFFCURVE",
"377 254 OFFCURVE",
"431 254 CURVE SMOOTH",
"504 254 LINE",
"500 231 LINE SMOOTH",
"488 164 OFFCURVE",
"415 117 OFFCURVE",
"322 117 CURVE SMOOTH",
"225 117 OFFCURVE",
"169 178 OFFCURVE",
"184 266 CURVE SMOOTH",
"214 436 LINE SMOOTH",
"229 523 OFFCURVE",
"304 583 OFFCURVE",
"398 583 CURVE SMOOTH",
"482 583 OFFCURVE",
"541 546 OFFCURVE",
"541 492 CURVE SMOOTH",
"541 476 OFFCURVE",
"536 448 OFFCURVE",
"528 424 CURVE",
"625 424 OFFCURVE",
"692 467 OFFCURVE",
"692 528 CURVE SMOOTH",
"692 635 OFFCURVE",
"580 709 OFFCURVE",
"420 709 CURVE SMOOTH",
"234 709 OFFCURVE",
"96 597 OFFCURVE",
"67 436 CURVE SMOOTH",
"37 266 LINE SMOOTH",
"8 104 OFFCURVE",
"122 -9 OFFCURVE",
"306 -9 CURVE SMOOTH"
);
}
);
width = 685;
},
{
anchors = (
{
name = bottom;
position = "{298, 0}";
},
{
name = top;
position = "{421, 700}";
}
);
layerId = "92CE152A-AC33-4332-A899-C7DC9B2DD026";
paths = (
{
closed = 1;
nodes = (
"484 -9 OFFCURVE",
"609 80 OFFCURVE",
"634 224 CURVE SMOOTH",
"650 315 LINE SMOOTH",
"655 342 OFFCURVE",
"641 359 OFFCURVE",
"613 359 CURVE SMOOTH",
"369 359 LINE",
"361 311 OFFCURVE",
"382 281 OFFCURVE",
"424 281 CURVE SMOOTH",
"550 281 LINE",
"540 225 LINE SMOOTH",
"523 131 OFFCURVE",
"440 73 OFFCURVE",
"320 73 CURVE SMOOTH",
"198 73 OFFCURVE",
"134 136 OFFCURVE",
"152 239 CURVE SMOOTH",
"191 463 LINE SMOOTH",
"208 565 OFFCURVE",
"293 627 OFFCURVE",
"413 627 CURVE SMOOTH",
"520 627 OFFCURVE",
"585 580 OFFCURVE",
"585 504 CURVE SMOOTH",
"585 489 OFFCURVE",
"580 465 OFFCURVE",
"573 440 CURVE",
"640 440 OFFCURVE",
"681 474 OFFCURVE",
"681 530 CURVE SMOOTH",
"681 641 OFFCURVE",
"585 709 OFFCURVE",
"428 709 CURVE SMOOTH",
"250 709 OFFCURVE",
"124 616 OFFCURVE",
"97 463 CURVE SMOOTH",
"58 239 LINE SMOOTH",
"31 85 OFFCURVE",
"125 -9 OFFCURVE",
"305 -9 CURVE SMOOTH"
);
}
);
width = 694;
},
{
anchors = (
{
name = bottom;
position = "{291, 0}";
},
{
name = top;
position = "{414, 700}";
}
);
background = {
paths = (
{
closed = 1;
nodes = (
"474 -9 OFFCURVE",
"621 75 OFFCURVE",
"621 221 CURVE",
"621 221 OFFCURVE",
"621 332 OFFCURVE",
"621 348 CURVE SMOOTH",
"621 364 OFFCURVE",
"608 377 OFFCURVE",
"591 377 CURVE SMOOTH",
"400 377 LINE SMOOTH",
"364 377 OFFCURVE",
"347 360 OFFCURVE",
"347 324 CURVE",
"562 324 LINE",
"562 221 LINE SMOOTH",
"562 125 OFFCURVE",
"466 44 OFFCURVE",
"345 44 CURVE SMOOTH",
"224 44 OFFCURVE",
"129 125 OFFCURVE",
"129 221 CURVE SMOOTH",
"129 481 LINE SMOOTH",
"129 576 OFFCURVE",
"224 656 OFFCURVE",
"345 656 CURVE SMOOTH",
"468 656 OFFCURVE",
"563 576 OFFCURVE",
"563 481 CURVE SMOOTH",
"563 472 OFFCURVE",
"563 461 OFFCURVE",
"562 451 CURVE",
"593 451 OFFCURVE",
"630 470 OFFCURVE",
"618 523 CURVE SMOOTH",
"589 649 OFFCURVE",
"462 709 OFFCURVE",
"345 709 CURVE SMOOTH",
"213 709 OFFCURVE",
"70 621 OFFCURVE",
"70 481 CURVE SMOOTH",
"70 221 LINE SMOOTH",
"70 75 OFFCURVE",
"217 -9 OFFCURVE",
"345 -9 CURVE SMOOTH"
);
}
);
};
layerId = "8FB96992-DBAA-412F-B62D-2E73CBD2FD04";
paths = (
{
closed = 1;
nodes = (
"460 -9 OFFCURVE",
"589 85 OFFCURVE",
"613 220 CURVE SMOOTH",
"631 325 LINE SMOOTH",
"634 340 OFFCURVE",
"625 350 OFFCURVE",
"609 350 CURVE SMOOTH",
"365 350 LINE",
"361 322 OFFCURVE",
"377 303 OFFCURVE",
"406 303 CURVE SMOOTH",
"577 303 LINE",
"562 220 LINE SMOOTH",
"542 112 OFFCURVE",
"438 37 OFFCURVE",
"306 37 CURVE SMOOTH",
"174 37 OFFCURVE",
"96 111 OFFCURVE",
"115 217 CURVE SMOOTH",
"162 485 LINE SMOOTH",
"181 590 OFFCURVE",
"284 663 OFFCURVE",
"415 663 CURVE SMOOTH",
"529 663 OFFCURVE",
"609 602 OFFCURVE",
"609 515 CURVE SMOOTH",
"609 498 OFFCURVE",
"605 473 OFFCURVE",
"600 454 CURVE",
"635 456 OFFCURVE",
"660 487 OFFCURVE",
"660 531 CURVE SMOOTH",
"660 636 OFFCURVE",
"563 709 OFFCURVE",
"423 709 CURVE SMOOTH",
"262 709 OFFCURVE",
"134 617 OFFCURVE",
"111 485 CURVE SMOOTH",
"64 217 LINE SMOOTH",
"40 84 OFFCURVE",
"136 -9 OFFCURVE",
"298 -9 CURVE SMOOTH"
);
}
);
width = 684;
}
);
leftKerningGroup = C;
note = G;
rightKerningGroup = C;
unicode = 0047;
},
{
glyphname = H;
lastChange = "2018-07-08 08:32:23 +0000";
layers = (
{
anchors = (
{
name = bottom;
position = "{345, -10}";
},
{
name = center;
position = "{345, 350}";
},
{
name = top;
position = "{345, 700}";
},
{
name = topleft;
position = "{39, 700}";
}
);
background = {
paths = (
{
closed = 1;
nodes = (
"138 -9 OFFCURVE",
"158 12 OFFCURVE",
"158 50 CURVE SMOOTH",
"158 324 LINE",
"592 324 LINE",
"592 -9 LINE",
"630 -9 OFFCURVE",
"651 12 OFFCURVE",
"651 50 CURVE SMOOTH",
"651 709 LINE",
"612 709 OFFCURVE",
"592 688 OFFCURVE",
"592 650 CURVE SMOOTH",
"592 377 LINE",
"158 377 LINE",
"158 709 LINE",
"120 709 OFFCURVE",
"99 688 OFFCURVE",
"99 650 CURVE SMOOTH",
"99 -9 LINE"
);
}
);
};
layerId = "671CEF0C-3804-4AAB-8F09-7652EF8CF253";
paths = (
{
closed = 1;
nodes = (
"151 -9 OFFCURVE",
"202 28 OFFCURVE",
"202 97 CURVE SMOOTH",
"202 289 LINE",
"483 289 LINE",
"483 -9 LINE",
"579 -9 OFFCURVE",
"630 28 OFFCURVE",
"630 97 CURVE SMOOTH",
"630 709 LINE",
"534 709 OFFCURVE",
"483 672 OFFCURVE",
"483 603 CURVE SMOOTH",
"483 416 LINE",
"202 416 LINE",
"202 709 LINE",
"106 709 OFFCURVE",
"55 672 OFFCURVE",
"55 603 CURVE SMOOTH",
"55 -9 LINE"
);
}
);
width = 685;
},
{
anchors = (
{
name = bottom;
position = "{343, -4}";
},
{
name = center;
position = "{343, 350}";
},
{
name = top;
position = "{343, 700}";
},
{
name = topleft;
position = "{28, 700}";
}
);
layerId = "467B800A-9F0B-4EDA-B6B6-3D16CD953827";
paths = (
{
closed = 1;
nodes = (
"131 -9 OFFCURVE",
"164 18 OFFCURVE",
"164 69 CURVE SMOOTH",
"164 311 LINE",
"519 311 LINE",
"519 -9 LINE",
"580 -9 OFFCURVE",
"613 19 OFFCURVE",
"613 69 CURVE SMOOTH",
"613 709 LINE",
"552 709 OFFCURVE",
"519 682 OFFCURVE",
"519 631 CURVE SMOOTH",
"519 394 LINE",
"164 394 LINE",
"164 709 LINE",
"103 709 OFFCURVE",
"70 681 OFFCURVE",
"70 631 CURVE SMOOTH",
"70 -9 LINE"
);
}
);
width = 683;
},
{
anchors = (
{
name = bottom;
position = "{338, -82}";
},
{
name = center;
position = "{338, 433}";
},
{
name = top;
position = "{338, 700}";
},
{
name = topleft;
position = "{16, 700}";
}
);
background = {
paths = (
{
closed = 1;
nodes = (
"119 -9 OFFCURVE",
"139 12 OFFCURVE",
"139 50 CURVE SMOOTH",
"139 324 LINE",
"573 324 LINE",
"573 -9 LINE",
"611 -9 OFFCURVE",
"632 12 OFFCURVE",
"632 50 CURVE SMOOTH",
"632 709 LINE",
"593 709 OFFCURVE",
"573 688 OFFCURVE",
"573 650 CURVE SMOOTH",
"573 377 LINE",
"139 377 LINE",
"139 709 LINE",
"101 709 OFFCURVE",
"80 688 OFFCURVE",
"80 650 CURVE SMOOTH",
"80 -9 LINE"
);
}
);
};
layerId = "D810D4E0-5EEA-4CB0-897C-7C2F2D158137";
paths = (
{
closed = 1;
nodes = (
"113 -9 OFFCURVE",
"131 10 OFFCURVE",
"131 46 CURVE SMOOTH",
"131 330 LINE",
"546 330 LINE",
"546 -9 LINE",
"579 -9 OFFCURVE",
"597 11 OFFCURVE",
"597 46 CURVE SMOOTH",
"597 709 LINE",
"564 709 OFFCURVE",
"546 690 OFFCURVE",
"546 654 CURVE SMOOTH",
"546 376 LINE",
"131 376 LINE",
"131 709 LINE",
"98 709 OFFCURVE",
"80 689 OFFCURVE",
"80 654 CURVE SMOOTH",
"80 -9 LINE"
);
}
);
width = 677;
},
{
anchors = (
{
name = bottom;
position = "{299, -10}";
},
{
name = center;
position = "{362, 350}";
},
{
name = top;
position = "{424, 700}";
},
{
name = topleft;
position = "{118, 700}";
}
);
background = {
paths = (
{
closed = 1;
nodes = (
"138 -9 OFFCURVE",
"158 12 OFFCURVE",
"158 50 CURVE SMOOTH",
"158 324 LINE",
"592 324 LINE",
"592 -9 LINE",
"630 -9 OFFCURVE",
"651 12 OFFCURVE",
"651 50 CURVE SMOOTH",
"651 709 LINE",
"612 709 OFFCURVE",
"592 688 OFFCURVE",
"592 650 CURVE SMOOTH",
"592 377 LINE",
"158 377 LINE",
"158 709 LINE",
"120 709 OFFCURVE",
"99 688 OFFCURVE",
"99 650 CURVE SMOOTH",
"99 -9 LINE"
);
}
);
};
layerId = "FBA9A202-A695-4A56-B536-8E03A4D5E61C";
paths = (
{
closed = 1;
nodes = (
"105 -9 OFFCURVE",
"163 28 OFFCURVE",
"175 97 CURVE SMOOTH",
"209 289 LINE",
"489 289 LINE",
"436 -9 LINE",
"532 -9 OFFCURVE",
"590 28 OFFCURVE",
"602 97 CURVE SMOOTH",
"710 709 LINE",
"614 709 OFFCURVE",
"556 672 OFFCURVE",
"544 603 CURVE SMOOTH",
"511 416 LINE",
"231 416 LINE",
"283 709 LINE",
"186 709 OFFCURVE",
"129 673 OFFCURVE",
"117 603 CURVE SMOOTH",
"9 -9 LINE"
);
}
);
width = 685;
},
{
anchors = (
{
name = bottom;
position = "{298, -4}";
},
{
name = center;
position = "{360, 350}";
},
{
name = top;
position = "{422, 700}";
},
{
name = topleft;
position = "{107, 700}";
}
);
layerId = "92CE152A-AC33-4332-A899-C7DC9B2DD026";
paths = (
{
closed = 1;
nodes = (
"86 -9 OFFCURVE",
"123 18 OFFCURVE",
"132 69 CURVE SMOOTH",
"174 311 LINE",
"528 311 LINE",
"472 -9 LINE",
"533 -9 OFFCURVE",
"571 19 OFFCURVE",
"580 69 CURVE SMOOTH",
"693 709 LINE",
"631 709 OFFCURVE",
"594 682 OFFCURVE",
"585 631 CURVE SMOOTH",
"543 394 LINE",
"189 394 LINE",
"245 709 LINE",
"184 709 OFFCURVE",
"146 681 OFFCURVE",
"137 631 CURVE SMOOTH",
"24 -9 LINE"
);
}
);
width = 683;
},
{
anchors = (
{
name = bottom;
position = "{279, 0}";
},
{
name = center;
position = "{370, 433}";
},
{
name = top;
position = "{417, 700}";
},
{
name = topleft;
position = "{95, 700}";
}
);
background = {
paths = (
{
closed = 1;
nodes = (
"119 -9 OFFCURVE",
"139 12 OFFCURVE",
"139 50 CURVE SMOOTH",
"139 324 LINE",
"573 324 LINE",
"573 -9 LINE",
"611 -9 OFFCURVE",
"632 12 OFFCURVE",
"632 50 CURVE SMOOTH",
"632 709 LINE",
"593 709 OFFCURVE",
"573 688 OFFCURVE",
"573 650 CURVE SMOOTH",
"573 377 LINE",
"139 377 LINE",
"139 709 LINE",
"101 709 OFFCURVE",
"80 688 OFFCURVE",
"80 650 CURVE SMOOTH",
"80 -9 LINE"
);
}
);
};
layerId = "8FB96992-DBAA-412F-B62D-2E73CBD2FD04";
paths = (
{
closed = 1;
nodes = (
"67 -9 OFFCURVE",
"89 11 OFFCURVE",
"95 46 CURVE SMOOTH",
"145 330 LINE",
"559 330 LINE",
"499 -9 LINE",
"531 -9 OFFCURVE",
"554 11 OFFCURVE",
"560 46 CURVE SMOOTH",
"677 709 LINE",
"644 709 OFFCURVE",
"622 690 OFFCURVE",
"616 654 CURVE SMOOTH",
"567 376 LINE",
"153 376 LINE",
"212 709 LINE",
"179 709 OFFCURVE",
"157 689 OFFCURVE",
"151 654 CURVE SMOOTH",
"34 -9 LINE"
);
}
);
width = 677;
}
);
leftKerningGroup = H;
note = H;
rightKerningGroup = H;
unicode = 0048;
},
{
glyphname = Hbar;
lastChange = "2018-07-08 08:32:23 +0000";
layers = (
{
components = (
{
name = H;
transform = "{1, 0, 0, 1, 45, 0}";
}
);
layerId = "671CEF0C-3804-4AAB-8F09-7652EF8CF253";
paths = (
{
closed = 1;
nodes = (
"702 478 LINE SMOOTH",
"737 478 OFFCURVE",
"762 516 OFFCURVE",
"762 571 CURVE",
"75 571 LINE SMOOTH",
"40 571 OFFCURVE",
"15 534 OFFCURVE",
"15 478 CURVE"
);
}
);
width = 777;
},
{
components = (
{
alignment = -1;
name = H;
transform = "{1, 0, 0, 1, 47, 0}";
}
);
layerId = "467B800A-9F0B-4EDA-B6B6-3D16CD953827";
paths = (
{
closed = 1;
nodes = (
"690 492 LINE SMOOTH",
"725 492 OFFCURVE",
"744 516 OFFCURVE",
"744 559 CURVE",
"89 559 LINE SMOOTH",
"54 559 OFFCURVE",
"35 536 OFFCURVE",
"35 492 CURVE"
);
}
);
width = 779;
},
{
components = (
{
name = H;
transform = "{1, 0, 0, 1, 42, 0}";
}
);
layerId = "D810D4E0-5EEA-4CB0-897C-7C2F2D158137";
paths = (
{
closed = 1;
nodes = (
"674 504 LINE SMOOTH",
"704 504 OFFCURVE",
"723 512 OFFCURVE",
"723 549 CURVE",
"94 549 LINE SMOOTH",
"63 549 OFFCURVE",
"45 541 OFFCURVE",
"45 504 CURVE"
);
}
);
width = 768;
},
{
components = (
{
name = H;
transform = "{1, 0, 0, 1, 47, 0}";
}
);
layerId = "FBA9A202-A695-4A56-B536-8E03A4D5E61C";
paths = (
{
closed = 1;
nodes = (
"742 478 LINE SMOOTH",
"776 478 OFFCURVE",
"809 516 OFFCURVE",
"818 571 CURVE",
"130 571 LINE SMOOTH",
"96 571 OFFCURVE",
"64 534 OFFCURVE",
"54 478 CURVE"
);
}
);
width = 777;
},
{
components = (
{
alignment = -1;
name = H;
transform = "{1, 0, 0, 1, 47, 0}";
}
);
layerId = "92CE152A-AC33-4332-A899-C7DC9B2DD026";
paths = (
{
closed = 1;
nodes = (
"732 492 LINE SMOOTH",
"767 492 OFFCURVE",
"790 516 OFFCURVE",
"798 559 CURVE",
"143 559 LINE SMOOTH",
"108 559 OFFCURVE",
"85 536 OFFCURVE",
"77 492 CURVE"
);
}
);
width = 779;
},
{
components = (
{
name = H;
transform = "{1, 0, 0, 1, 41, 0}";
}
);
layerId = "8FB96992-DBAA-412F-B62D-2E73CBD2FD04";
paths = (
{
closed = 1;
nodes = (
"718 504 LINE SMOOTH",
"748 504 OFFCURVE",
"768 512 OFFCURVE",
"775 549 CURVE",
"146 549 LINE SMOOTH",
"122 549 OFFCURVE",
"96 546 OFFCURVE",
"89 504 CURVE"
);
}
);
width = 768;
}
);
leftKerningGroup = H;
note = Hbar;
rightKerningGroup = H;
unicode = 0126;
},
{
glyphname = I;
lastChange = "2018-07-08 09:53:00 +0000";
layers = (
{
anchors = (
{
name = bottom;
position = "{149, 0}";
},
{
name = ogonek;
position = "{150, 47}";
},
{
name = top;
position = "{149, 700}";
},
{
name = topleft;
position = "{59, 700}";
}
);
background = {
paths = (
{
closed = 1;
nodes = (
"158 -9 OFFCURVE",
"178 12 OFFCURVE",
"178 50 CURVE SMOOTH",
"178 709 LINE",
"140 709 OFFCURVE",
"119 688 OFFCURVE",
"119 650 CURVE SMOOTH",
"119 -9 LINE"
);
}
);
};
layerId = "671CEF0C-3804-4AAB-8F09-7652EF8CF253";
paths = (
{
closed = 1;
nodes = (
"169 -9 OFFCURVE",
"222 30 OFFCURVE",
"222 98 CURVE SMOOTH",
"222 709 LINE",
"129 709 OFFCURVE",
"75 669 OFFCURVE",
"75 602 CURVE SMOOTH",
"75 -9 LINE"
);
}
);
width = 297;
},
{
anchors = (
{
name = bottom;
position = "{138, 0}";
},
{
name = ogonek;
position = "{178, 33}";
},
{
name = top;
position = "{138, 700}";
},
{
name = topleft;
position = "{48, 700}";
}
);
layerId = "467B800A-9F0B-4EDA-B6B6-3D16CD953827";
paths = (
{
closed = 1;
nodes = (
"150 -9 OFFCURVE",
"184 19 OFFCURVE",
"184 69 CURVE SMOOTH",
"184 709 LINE",
"124 709 OFFCURVE",
"90 681 OFFCURVE",
"90 631 CURVE SMOOTH",
"90 -9 LINE"
);
}
);
width = 274;
},
{
anchors = (
{
name = bottom;
position = "{126, 0}";
},
{
name = ogonek;
position = "{142, 19}";
},
{
name = top;
position = "{126, 700}";
},
{
name = topleft;
position = "{36, 700}";
}
);
background = {
paths = (
{
closed = 1;
nodes = (
"139 -9 OFFCURVE",
"159 12 OFFCURVE",
"159 50 CURVE SMOOTH",
"159 709 LINE",
"121 709 OFFCURVE",
"100 688 OFFCURVE",
"100 650 CURVE SMOOTH",
"100 -9 LINE"
);
}
);
};
layerId = "D810D4E0-5EEA-4CB0-897C-7C2F2D158137";
paths = (
{
closed = 1;
nodes = (
"133 -9 OFFCURVE",
"151 10 OFFCURVE",
"151 46 CURVE SMOOTH",
"151 709 LINE",
"118 709 OFFCURVE",
"100 689 OFFCURVE",
"100 654 CURVE SMOOTH",
"100 -9 LINE"
);
}
);
width = 251;
},
{
anchors = (
{
name = bottom;
position = "{105, 0}";
},
{
name = ogonek;
position = "{116, 47}";
},
{
name = top;
position = "{228, 700}";
},
{
name = topleft;
position = "{138, 700}";
}
);
background = {
paths = (
{
closed = 1;
nodes = (
"158 -9 OFFCURVE",
"178 12 OFFCURVE",
"178 50 CURVE SMOOTH",
"178 709 LINE",
"140 709 OFFCURVE",
"119 688 OFFCURVE",
"119 650 CURVE SMOOTH",
"119 -9 LINE"
);
}
);
};
layerId = "FBA9A202-A695-4A56-B536-8E03A4D5E61C";
paths = (
{
closed = 1;
nodes = (
"122 -9 OFFCURVE",
"182 30 OFFCURVE",
"194 98 CURVE SMOOTH",
"302 709 LINE",
"209 709 OFFCURVE",
"149 670 OFFCURVE",
"137 602 CURVE SMOOTH",
"29 -9 LINE"
);
}
);
width = 297;
},
{
anchors = (
{
name = bottom;
position = "{94, 0}";
},
{
name = ogonek;
position = "{140, 33}";
},
{
name = top;
position = "{217, 700}";
},
{
name = topleft;
position = "{127, 700}";
}
);
layerId = "92CE152A-AC33-4332-A899-C7DC9B2DD026";
paths = (
{
closed = 1;
nodes = (
"104 -9 OFFCURVE",
"142 19 OFFCURVE",
"151 69 CURVE SMOOTH",
"264 709 LINE",
"204 709 OFFCURVE",
"166 681 OFFCURVE",
"157 631 CURVE SMOOTH",
"44 -9 LINE"
);
}
);
width = 274;
},
{
anchors = (
{
name = bottom;
position = "{82, 0}";
},
{
name = ogonek;
position = "{100, 19}";
},
{
name = top;
position = "{205, 700}";
},
{
name = topleft;
position = "{115, 700}";
}
);
background = {
paths = (
{
closed = 1;
nodes = (
"139 -9 OFFCURVE",
"159 12 OFFCURVE",
"159 50 CURVE SMOOTH",
"159 709 LINE",
"121 709 OFFCURVE",
"100 688 OFFCURVE",
"100 650 CURVE SMOOTH",
"100 -9 LINE"
);
}
);
};
layerId = "8FB96992-DBAA-412F-B62D-2E73CBD2FD04";
paths = (
{
closed = 1;
nodes = (
"87 -9 OFFCURVE",
"108 11 OFFCURVE",
"114 46 CURVE SMOOTH",
"231 709 LINE",
"198 709 OFFCURVE",
"177 689 OFFCURVE",
"171 654 CURVE SMOOTH",
"54 -9 LINE"
);
}
);
width = 251;
}
);
note = I;
unicode = 0049;
},
{
glyphname = IJ;
lastChange = "2018-07-08 08:32:23 +0000";
layers = (
{
background = {
paths = (
{
closed = 1;
nodes = (
"139 -9 OFFCURVE",
"159 12 OFFCURVE",
"159 50 CURVE SMOOTH",
"159 709 LINE",
"121 709 OFFCURVE",
"100 688 OFFCURVE",
"100 650 CURVE SMOOTH",
"100 -9 LINE"
);
},
{
closed = 1;
nodes = (
"602 -9 OFFCURVE",
"690 89 OFFCURVE",
"690 221 CURVE SMOOTH",
"690 671 LINE SMOOTH",
"690 688 OFFCURVE",
"678 700 OFFCURVE",
"662 700 CURVE SMOOTH",
"439 700 LINE",
"439 665 OFFCURVE",
"457 647 OFFCURVE",
"492 647 CURVE SMOOTH",
"631 647 LINE",
"631 221 LINE SMOOTH",
"631 115 OFFCURVE",
"577 46 OFFCURVE",
"459 46 CURVE SMOOTH",
"344 46 OFFCURVE",
"289 117 OFFCURVE",
"289 221 CURVE SMOOTH",
"289 230 OFFCURVE",
"290 240 OFFCURVE",
"292 251 CURVE",
"264 251 OFFCURVE",
"232 237 OFFCURVE",
"232 202 CURVE SMOOTH",
"232 86 OFFCURVE",
"320 -9 OFFCURVE",
"459 -9 CURVE SMOOTH"
);
}
);
};
layerId = "671CEF0C-3804-4AAB-8F09-7652EF8CF253";
paths = (
{
closed = 1;
nodes = (
"733 -9 OFFCURVE",
"848 104 OFFCURVE",
"848 259 CURVE SMOOTH",
"848 633 LINE SMOOTH",
"848 672 OFFCURVE",
"815 700 OFFCURVE",
"776 700 CURVE SMOOTH",
"507 700 LINE",
"507 619 OFFCURVE",
"535 573 OFFCURVE",
"606 573 CURVE SMOOTH",
"701 573 LINE",
"701 259 LINE SMOOTH",
"701 170 OFFCURVE",
"658 119 OFFCURVE",
"574 119 CURVE SMOOTH",
"493 119 OFFCURVE",
"447 160 OFFCURVE",
"447 247 CURVE SMOOTH",
"447 260 OFFCURVE",
"447 279 OFFCURVE",
"450 295 CURVE",
"367 315 OFFCURVE",
"302 281 OFFCURVE",
"302 215 CURVE SMOOTH",
"302 82 OFFCURVE",
"421 -9 OFFCURVE",
"574 -9 CURVE SMOOTH"
);
},
{
closed = 1;
nodes = (
"162 -9 OFFCURVE",
"222 25 OFFCURVE",
"222 98 CURVE SMOOTH",
"222 709 LINE",
"137 709 OFFCURVE",
"75 675 OFFCURVE",
"75 602 CURVE SMOOTH",
"75 -9 LINE"
);
}
);
width = 898;
},
{
layerId = "467B800A-9F0B-4EDA-B6B6-3D16CD953827";
paths = (
{
closed = 1;
nodes = (
"654 -9 OFFCURVE",
"753 95 OFFCURVE",
"753 236 CURVE SMOOTH",
"753 656 LINE SMOOTH",
"753 682 OFFCURVE",
"733 700 OFFCURVE",
"708 700 CURVE SMOOTH",
"466 700 LINE",
"466 647 OFFCURVE",
"488 617 OFFCURVE",
"538 617 CURVE SMOOTH",
"659 617 LINE",
"659 236 LINE SMOOTH",
"659 137 OFFCURVE",
"609 75 OFFCURVE",
"505 75 CURVE SMOOTH",
"404 75 OFFCURVE",
"352 134 OFFCURVE",
"352 231 CURVE SMOOTH",
"352 242 OFFCURVE",
"353 256 OFFCURVE",
"355 269 CURVE",
"305 277 OFFCURVE",
"260 255 OFFCURVE",
"260 207 CURVE SMOOTH",
"260 84 OFFCURVE",
"360 -9 OFFCURVE",
"505 -9 CURVE SMOOTH"
);
},
{
closed = 1;
nodes = (
"148 -9 OFFCURVE",
"184 17 OFFCURVE",
"184 69 CURVE SMOOTH",
"184 709 LINE",
"127 709 OFFCURVE",
"90 683 OFFCURVE",
"90 631 CURVE SMOOTH",
"90 -9 LINE"
);
}
);
width = 813;
},
{
layerId = "D810D4E0-5EEA-4CB0-897C-7C2F2D158137";
paths = (
{
closed = 1;
nodes = (
"587 -9 OFFCURVE",
"673 88 OFFCURVE",
"673 218 CURVE SMOOTH",
"673 675 LINE SMOOTH",
"673 689 OFFCURVE",
"663 700 OFFCURVE",
"649 700 CURVE SMOOTH",
"430 700 LINE",
"430 669 OFFCURVE",
"448 654 OFFCURVE",
"479 654 CURVE SMOOTH",
"622 654 LINE",
"622 218 LINE SMOOTH",
"622 110 OFFCURVE",
"567 39 OFFCURVE",
"446 39 CURVE SMOOTH",
"328 39 OFFCURVE",
"272 113 OFFCURVE",
"272 219 CURVE SMOOTH",
"272 228 OFFCURVE",
"273 236 OFFCURVE",
"275 247 CURVE",
"252 245 OFFCURVE",
"223 232 OFFCURVE",
"223 201 CURVE SMOOTH",
"223 87 OFFCURVE",
"308 -9 OFFCURVE",
"446 -9 CURVE SMOOTH"
);
},
{
closed = 1;
nodes = (
"134 -9 OFFCURVE",
"151 11 OFFCURVE",
"151 46 CURVE SMOOTH",
"151 709 LINE",
"118 709 OFFCURVE",
"100 689 OFFCURVE",
"100 654 CURVE SMOOTH",
"100 -9 LINE"
);
}
);
width = 743;
},
{
background = {
paths = (
{
closed = 1;
nodes = (
"139 -9 OFFCURVE",
"159 12 OFFCURVE",
"159 50 CURVE SMOOTH",
"159 709 LINE",
"121 709 OFFCURVE",
"100 688 OFFCURVE",
"100 650 CURVE SMOOTH",
"100 -9 LINE"
);
},
{
closed = 1;
nodes = (
"602 -9 OFFCURVE",
"690 89 OFFCURVE",
"690 221 CURVE SMOOTH",
"690 671 LINE SMOOTH",
"690 688 OFFCURVE",
"678 700 OFFCURVE",
"662 700 CURVE SMOOTH",
"439 700 LINE",
"439 665 OFFCURVE",
"457 647 OFFCURVE",
"492 647 CURVE SMOOTH",
"631 647 LINE",
"631 221 LINE SMOOTH",
"631 115 OFFCURVE",
"577 46 OFFCURVE",
"459 46 CURVE SMOOTH",
"344 46 OFFCURVE",
"289 117 OFFCURVE",
"289 221 CURVE SMOOTH",
"289 230 OFFCURVE",
"290 240 OFFCURVE",
"292 251 CURVE",
"264 251 OFFCURVE",
"232 237 OFFCURVE",
"232 202 CURVE SMOOTH",
"232 86 OFFCURVE",
"320 -9 OFFCURVE",
"459 -9 CURVE SMOOTH"
);
}
);
};
layerId = "FBA9A202-A695-4A56-B536-8E03A4D5E61C";
paths = (
{
closed = 1;
nodes = (
"710 -9 OFFCURVE",
"822 104 OFFCURVE",
"849 259 CURVE SMOOTH",
"915 633 LINE SMOOTH",
"922 672 OFFCURVE",
"893 700 OFFCURVE",
"855 700 CURVE SMOOTH",
"586 700 LINE",
"570 608 OFFCURVE",
"600 573 OFFCURVE",
"663 573 CURVE SMOOTH",
"758 573 LINE",
"702 259 LINE SMOOTH",
"686 170 OFFCURVE",
"634 119 OFFCURVE",
"551 119 CURVE SMOOTH",
"474 119 OFFCURVE",
"443 149 OFFCURVE",
"443 212 CURVE SMOOTH",
"443 234 OFFCURVE",
"451 276 OFFCURVE",
"458 295 CURVE",
"378 315 OFFCURVE",
"292 285 OFFCURVE",
"292 178 CURVE SMOOTH",
"292 65 OFFCURVE",
"391 -9 OFFCURVE",
"528 -9 CURVE SMOOTH"
);
},
{
closed = 1;
nodes = (
"116 -9 OFFCURVE",
"182 25 OFFCURVE",
"195 98 CURVE SMOOTH",
"303 709 LINE",
"217 709 OFFCURVE",
"150 675 OFFCURVE",
"137 602 CURVE SMOOTH",
"29 -9 LINE"
);
}
);
width = 898;
},
{
layerId = "92CE152A-AC33-4332-A899-C7DC9B2DD026";
paths = (
{
closed = 1;
nodes = (
"626 -9 OFFCURVE",
"725 95 OFFCURVE",
"750 236 CURVE SMOOTH",
"824 656 LINE SMOOTH",
"829 682 OFFCURVE",
"811 700 OFFCURVE",
"787 700 CURVE SMOOTH",
"545 700 LINE",
"536 647 OFFCURVE",
"552 617 OFFCURVE",
"602 617 CURVE SMOOTH",
"723 617 LINE",
"656 236 LINE SMOOTH",
"639 137 OFFCURVE",
"578 75 OFFCURVE",
"474 75 CURVE SMOOTH",
"378 75 OFFCURVE",
"345 118 OFFCURVE",
"345 191 CURVE SMOOTH",
"345 218 OFFCURVE",
"354 257 OFFCURVE",
"358 269 CURVE",
"304 278 OFFCURVE",
"249 256 OFFCURVE",
"249 169 CURVE SMOOTH",
"249 66 OFFCURVE",
"329 -9 OFFCURVE",
"459 -9 CURVE SMOOTH"
);
},
{
closed = 1;
nodes = (
"101 -9 OFFCURVE",
"143 17 OFFCURVE",
"152 69 CURVE SMOOTH",
"265 709 LINE",
"208 709 OFFCURVE",
"166 683 OFFCURVE",
"157 631 CURVE SMOOTH",
"44 -9 LINE"
);
}
);
width = 813;
},
{
layerId = "8FB96992-DBAA-412F-B62D-2E73CBD2FD04";
paths = (
{
closed = 1;
nodes = (
"552 -9 OFFCURVE",
"643 88 OFFCURVE",
"666 218 CURVE SMOOTH",
"747 675 LINE SMOOTH",
"749 688 OFFCURVE",
"742 700 OFFCURVE",
"727 700 CURVE SMOOTH",
"508 700 LINE",
"503 672 OFFCURVE",
"515 654 OFFCURVE",
"549 654 CURVE SMOOTH",
"692 654 LINE",
"615 218 LINE SMOOTH",
"596 110 OFFCURVE",
"528 39 OFFCURVE",
"407 39 CURVE SMOOTH",
"300 39 OFFCURVE",
"261 93 OFFCURVE",
"261 174 CURVE SMOOTH",
"261 202 OFFCURVE",
"269 235 OFFCURVE",
"273 247 CURVE",
"229 243 OFFCURVE",
"210 218 OFFCURVE",
"210 162 CURVE SMOOTH",
"210 67 OFFCURVE",
"277 -9 OFFCURVE",
"399 -9 CURVE SMOOTH"
);
},
{
closed = 1;
nodes = (
"87 -9 OFFCURVE",
"109 11 OFFCURVE",
"115 46 CURVE SMOOTH",
"232 709 LINE",
"199 709 OFFCURVE",
"177 689 OFFCURVE",
"171 654 CURVE SMOOTH",
"54 -9 LINE"
);
}
);
width = 743;
}
);
leftMetricsKey = I;
note = IJ;
rightKerningGroup = J;
rightMetricsKey = J;
unicode = 0132;
},
{
glyphname = J;
lastChange = "2018-07-08 08:32:23 +0000";
layers = (
{
anchors = (
{
name = bottom;
position = "{298, 0}";
},
{
name = top;
position = "{383, 700}";
}
);
background = {
paths = (
{
closed = 1;
nodes = (
"416 -9 OFFCURVE",
"527 94 OFFCURVE",
"527 221 CURVE SMOOTH",
"527 671 LINE SMOOTH",
"527 688 OFFCURVE",
"515 700 OFFCURVE",
"499 700 CURVE SMOOTH",
"276 700 LINE",
"276 665 OFFCURVE",
"294 647 OFFCURVE",
"329 647 CURVE SMOOTH",
"468 647 LINE",
"468 597 OFFCURVE",
"468 221 OFFCURVE",
"468 221 CURVE",
"468 125 OFFCURVE",
"384 44 OFFCURVE",
"281 44 CURVE SMOOTH",
"176 44 OFFCURVE",
"92 125 OFFCURVE",
"92 221 CURVE SMOOTH",
"92 230 OFFCURVE",
"93 240 OFFCURVE",
"95 251 CURVE",
"62 251 OFFCURVE",
"27 231 OFFCURVE",
"37 180 CURVE SMOOTH",
"59 72 OFFCURVE",
"158 -9 OFFCURVE",
"281 -9 CURVE SMOOTH"
);
}
);
};
layerId = "671CEF0C-3804-4AAB-8F09-7652EF8CF253";
paths = (
{
closed = 1;
nodes = (
"456 -9 OFFCURVE",
"571 104 OFFCURVE",
"571 259 CURVE SMOOTH",
"571 633 LINE SMOOTH",
"571 671 OFFCURVE",
"539 700 OFFCURVE",
"499 700 CURVE SMOOTH",
"230 700 LINE",
"230 614 OFFCURVE",
"262 573 OFFCURVE",
"329 573 CURVE SMOOTH",
"424 573 LINE",
"424 259 LINE SMOOTH",
"424 168 OFFCURVE",
"379 119 OFFCURVE",
"297 119 CURVE SMOOTH",
"213 119 OFFCURVE",
"170 163 OFFCURVE",
"170 247 CURVE SMOOTH",
"170 270 OFFCURVE",
"171 284 OFFCURVE",
"173 295 CURVE",
"89 295 OFFCURVE",
"25 280 OFFCURVE",
"25 215 CURVE SMOOTH",
"25 86 OFFCURVE",
"140 -9 OFFCURVE",
"297 -9 CURVE SMOOTH"
);
}
);
width = 621;
},
{
anchors = (
{
name = bottom;
position = "{304, 0}";
},
{
name = top;
position = "{389, 700}";
}
);
layerId = "467B800A-9F0B-4EDA-B6B6-3D16CD953827";
paths = (
{
closed = 1;
nodes = (
"444 -9 OFFCURVE",
"550 94 OFFCURVE",
"550 236 CURVE SMOOTH",
"550 656 LINE SMOOTH",
"550 681 OFFCURVE",
"531 700 OFFCURVE",
"505 700 CURVE SMOOTH",
"263 700 LINE",
"263 645 OFFCURVE",
"287 617 OFFCURVE",
"335 617 CURVE SMOOTH",
"456 617 LINE",
"456 236 LINE SMOOTH",
"456 134 OFFCURVE",
"397 75 OFFCURVE",
"296 75 CURVE SMOOTH",
"196 75 OFFCURVE",
"137 133 OFFCURVE",
"137 231 CURVE SMOOTH",
"137 243 OFFCURVE",
"138 257 OFFCURVE",
"140 269 CURVE",
"85 269 OFFCURVE",
"45 251 OFFCURVE",
"45 207 CURVE SMOOTH",
"45 83 OFFCURVE",
"152 -9 OFFCURVE",
"296 -9 CURVE SMOOTH"
);
}
);
width = 610;
},
{
anchors = (
{
name = bottom;
position = "{302, 0}";
},
{
name = top;
position = "{387, 700}";
}
);
background = {
paths = (
{
closed = 1;
nodes = (
"422 -9 OFFCURVE",
"533 94 OFFCURVE",
"533 221 CURVE SMOOTH",
"533 671 LINE SMOOTH",
"533 688 OFFCURVE",
"521 700 OFFCURVE",
"505 700 CURVE SMOOTH",
"282 700 LINE",
"282 665 OFFCURVE",
"300 647 OFFCURVE",
"335 647 CURVE SMOOTH",
"474 647 LINE",
"474 597 OFFCURVE",
"474 221 OFFCURVE",
"474 221 CURVE",
"474 125 OFFCURVE",
"390 44 OFFCURVE",
"287 44 CURVE SMOOTH",
"182 44 OFFCURVE",
"98 125 OFFCURVE",
"98 221 CURVE SMOOTH",
"98 230 OFFCURVE",
"99 240 OFFCURVE",
"101 251 CURVE",
"68 251 OFFCURVE",
"33 231 OFFCURVE",
"43 180 CURVE SMOOTH",
"65 72 OFFCURVE",
"164 -9 OFFCURVE",
"287 -9 CURVE SMOOTH"
);
}
);
};
layerId = "D810D4E0-5EEA-4CB0-897C-7C2F2D158137";
paths = (
{
closed = 1;
nodes = (
"428 -9 OFFCURVE",
"527 86 OFFCURVE",
"527 218 CURVE SMOOTH",
"527 675 LINE SMOOTH",
"527 689 OFFCURVE",
"516 700 OFFCURVE",
"503 700 CURVE SMOOTH",
"284 700 LINE",
"284 670 OFFCURVE",
"301 654 OFFCURVE",
"333 654 CURVE SMOOTH",
"476 654 LINE",
"476 218 LINE SMOOTH",
"476 106 OFFCURVE",
"406 39 OFFCURVE",
"289 39 CURVE SMOOTH",
"176 39 OFFCURVE",
"104 109 OFFCURVE",
"104 219 CURVE SMOOTH",
"104 228 OFFCURVE",
"105 237 OFFCURVE",
"107 247 CURVE",
"76 244 OFFCURVE",
"55 226 OFFCURVE",
"55 201 CURVE SMOOTH",
"55 82 OFFCURVE",
"156 -9 OFFCURVE",
"289 -9 CURVE SMOOTH"
);
}
);
width = 597;
},
{
anchors = (
{
name = bottom;
position = "{254, 0}";
},
{
name = top;
position = "{463, 700}";
}
);
background = {
paths = (
{
closed = 1;
nodes = (
"416 -9 OFFCURVE",
"527 94 OFFCURVE",
"527 221 CURVE SMOOTH",
"527 671 LINE SMOOTH",
"527 688 OFFCURVE",
"515 700 OFFCURVE",
"499 700 CURVE SMOOTH",
"276 700 LINE",
"276 665 OFFCURVE",
"294 647 OFFCURVE",
"329 647 CURVE SMOOTH",
"468 647 LINE",
"468 597 OFFCURVE",
"468 221 OFFCURVE",
"468 221 CURVE",
"468 125 OFFCURVE",
"384 44 OFFCURVE",
"281 44 CURVE SMOOTH",
"176 44 OFFCURVE",
"92 125 OFFCURVE",
"92 221 CURVE SMOOTH",
"92 230 OFFCURVE",
"93 240 OFFCURVE",
"95 251 CURVE",
"62 251 OFFCURVE",
"27 231 OFFCURVE",
"37 180 CURVE SMOOTH",
"59 72 OFFCURVE",
"158 -9 OFFCURVE",
"281 -9 CURVE SMOOTH"
);
}
);
};
layerId = "FBA9A202-A695-4A56-B536-8E03A4D5E61C";
paths = (
{
closed = 1;
nodes = (
"426 -9 OFFCURVE",
"542 88 OFFCURVE",
"572 259 CURVE SMOOTH",
"638 633 LINE SMOOTH",
"645 670 OFFCURVE",
"618 700 OFFCURVE",
"578 700 CURVE SMOOTH",
"309 700 LINE",
"294 614 OFFCURVE",
"318 573 OFFCURVE",
"385 573 CURVE SMOOTH",
"480 573 LINE",
"425 259 LINE SMOOTH",
"409 168 OFFCURVE",
"356 119 OFFCURVE",
"273 119 CURVE SMOOTH",
"202 119 OFFCURVE",
"165 151 OFFCURVE",
"165 212 CURVE SMOOTH",
"165 232 OFFCURVE",
"172 275 OFFCURVE",
"179 295 CURVE",
"84 295 OFFCURVE",
"14 270 OFFCURVE",
"14 178 CURVE SMOOTH",
"14 70 OFFCURVE",
"114 -9 OFFCURVE",
"251 -9 CURVE SMOOTH"
);
}
);
width = 621;
},
{
anchors = (
{
name = bottom;
position = "{260, 0}";
},
{
name = top;
position = "{468, 700}";
}
);
layerId = "92CE152A-AC33-4332-A899-C7DC9B2DD026";
paths = (
{
closed = 1;
nodes = (
"411 -9 OFFCURVE",
"519 80 OFFCURVE",
"547 236 CURVE SMOOTH",
"621 656 LINE SMOOTH",
"625 681 OFFCURVE",
"609 700 OFFCURVE",
"584 700 CURVE SMOOTH",
"342 700 LINE",
"333 645 OFFCURVE",
"352 617 OFFCURVE",
"400 617 CURVE SMOOTH",
"521 617 LINE",
"453 236 LINE SMOOTH",
"434 128 OFFCURVE",
"372 75 OFFCURVE",
"265 75 CURVE SMOOTH",
"175 75 OFFCURVE",
"129 115 OFFCURVE",
"129 194 CURVE SMOOTH",
"129 212 OFFCURVE",
"135 244 OFFCURVE",
"142 269 CURVE",
"75 269 OFFCURVE",
"33 242 OFFCURVE",
"33 171 CURVE SMOOTH",
"33 68 OFFCURVE",
"126 -9 OFFCURVE",
"250 -9 CURVE SMOOTH"
);
}
);
width = 610;
},
{
anchors = (
{
name = bottom;
position = "{258, 0}";
},
{
name = top;
position = "{466, 700}";
}
);
background = {
paths = (
{
closed = 1;
nodes = (
"422 -9 OFFCURVE",
"533 94 OFFCURVE",
"533 221 CURVE SMOOTH",
"533 671 LINE SMOOTH",
"533 688 OFFCURVE",
"521 700 OFFCURVE",
"505 700 CURVE SMOOTH",
"282 700 LINE",
"282 665 OFFCURVE",
"300 647 OFFCURVE",
"335 647 CURVE SMOOTH",
"474 647 LINE",
"474 597 OFFCURVE",
"474 221 OFFCURVE",
"474 221 CURVE",
"474 125 OFFCURVE",
"390 44 OFFCURVE",
"287 44 CURVE SMOOTH",
"182 44 OFFCURVE",
"98 125 OFFCURVE",
"98 221 CURVE SMOOTH",
"98 230 OFFCURVE",
"99 240 OFFCURVE",
"101 251 CURVE",
"68 251 OFFCURVE",
"33 231 OFFCURVE",
"43 180 CURVE SMOOTH",
"65 72 OFFCURVE",
"164 -9 OFFCURVE",
"287 -9 CURVE SMOOTH"
);
}
);
};
layerId = "8FB96992-DBAA-412F-B62D-2E73CBD2FD04";
paths = (
{
closed = 1;
nodes = (
"391 -9 OFFCURVE",
"495 76 OFFCURVE",
"520 218 CURVE SMOOTH",
"601 675 LINE SMOOTH",
"603 689 OFFCURVE",
"594 700 OFFCURVE",
"581 700 CURVE SMOOTH",
"362 700 LINE",
"357 670 OFFCURVE",
"371 654 OFFCURVE",
"403 654 CURVE SMOOTH",
"546 654 LINE",
"469 218 LINE SMOOTH",
"448 101 OFFCURVE",
"373 39 OFFCURVE",
"251 39 CURVE SMOOTH",
"148 39 OFFCURVE",
"94 88 OFFCURVE",
"94 179 CURVE SMOOTH",
"94 198 OFFCURVE",
"99 229 OFFCURVE",
"105 247 CURVE",
"61 243 OFFCURVE",
"42 218 OFFCURVE",
"42 166 CURVE SMOOTH",
"42 68 OFFCURVE",
"130 -9 OFFCURVE",
"242 -9 CURVE SMOOTH"
);
}
);
width = 597;
}
);
leftKerningGroup = J;
note = J;
rightKerningGroup = J;
unicode = 004A;
},
